<mxfile host="app.diagrams.net" modified="2024-01-31T11:17:36.388Z" agent="Mozilla/5.0 (Windows NT 10.0; Win64; x64) AppleWebKit/537.36 (KHTML, like Gecko) Chrome/121.0.0.0 Safari/537.36 Edg/121.0.0.0" etag="w24f_cS-fInZEOovbVCE" version="23.0.2" type="github">
  <diagram name="Page-1" id="mxDL47bwsSZrBwZIi3Cx">
    <mxGraphModel dx="1063" dy="-1044" grid="1" gridSize="10" guides="1" tooltips="1" connect="1" arrows="1" fold="1" page="1" pageScale="1" pageWidth="1169" pageHeight="827" math="0" shadow="0">
      <root>
        <mxCell id="0" />
        <mxCell id="1" parent="0" />
        <mxCell id="MSijpHfO0dpYwcQFmJdh-456" value="" style="shape=image;verticalLabelPosition=bottom;labelBackgroundColor=default;verticalAlign=top;aspect=fixed;imageAspect=0;image=data:image/png,iVBORw0KGgoAAAANSUhEUgAAAZYAAAGWCAIAAADUmjLBAAAACXBIWXMAABJ0AAASdAHeZh94AAAAEXRFWHRTb2Z0d2FyZQBTbmlwYXN0ZV0Xzt0AAAuoSURBVHic7drPb9z1ncfxz8x37LEn8RBISBStBVGThrColUDWRinKZdFelijasn8AEv/ASittjhy4cuDEj2sOFcpWyrJsD+xh2SogAWrSIFSJSFkIJFHrhmDs2CGxZzyzB7fUuzGVSpv55mU/Hqev39+RPm9HXz09M0pjOByWdXq93szMzOHDh48ePVrgT3f+/PlTp06dPXt279696+fHjx+vquqZZ56pazGiXbly5fnnn3/nnXeOHDmyft7a8NVVtTI29vVIFmOzabVWvu1WVfU9V3w3rdbtjecbTn/4w397+um37uY+bFrN5vJPftLZ8Nb3v//fTz/9ixHvw+bwq1/1m83BnfONE3b58syHHz56l1dic/r0089KOb/hrdnZv/7ww78Z7TpsEp988uVw+K93zjdO2Jdf7v/ss8N3eSU2p2vXxr8tYfPzf+W54rv59a+vDIc/vXPeevvtt9f/3O/3l5aWRrUVm9Py8vK77767c+fO9cPr16/v2bOnrpXYHM6dO3fr1q31k9axY8dKKa1Wr5TS74+tTauqGv1ybA5VVX399dfPPvvsnbfWHjb4DprNZqfTOXHiRCmlqlabzX6v1y6lNF588cVSyhNPnOr32x999A9rr+52u5OTkzWuS67l5eX5+fkNb23fvn3btm0j3ofNod/vz83Nrf0nsIceOnvgwJmf//yfBoOqtfbe/uGHJ/v99m9/630+f652u+0DI39xrVZr9+7da9fT093vfa/6+OPdg0GrWe9aAH8OCQOCSRgQTMKAYBIGBJMwIJiEAcEkDAgmYUAwCQOCSRgQTMKAYBIGBJMwIJiEAcEkDAgmYUAwCQOCSRgQTMKAYBIGBJMwIJiEAcEkDAgmYUAwCQOCSRgQTMKAYBIGBJMwIJiEAcEkDAgmYUAwCQOCSRgQTMKAYBIGBJMwIJiEAcEkDAgmYUAwCQOCSRgQTMKAYBIGBJMwIJiEAcEkDAgmYUAwCQOCSRgQTMKAYBIGBJMwIJiEAcEkDAgmYUAwCQOCSRgQTMKAYBIGBJMwIJiEAcEkDAgmYUAwCQOCSRgQTMKAYBIGBJMwIJiEAcEkDAgmYUAwCQOCSRgQTMKAYBIGBJMwIJiEAcEkDAgmYUAwCQOCSRgQTMKAYBIGBJMwIJiEAcEkDAgmYUAwCQOCSRgQTMKAYBIGBJMwIJiEAcEkDAgmYUAwCQOCSRgQTMKAYBIGBJMwIJiEAcEkDAgmYUAwCQOCSRgQTMKAYBIGBJMwIJiEAcEkDAjW+v1Fo84tRq7R2Fq/b1224L/zcDise4WRqu/3baw9Xa2pqalSythYq9EYX7veCnbt2rVjx466t9j8ut1ut9ute4vRWVxcXFhYqHuL0VlYWPjiiy9Gf+7ExESz2dy+fftg0GpVVVVKaTQazWZj7XormJiY6HQ6dW+x+U1NTW2pPxWNRqPX69W9xegsLy/XEo1ms1lKqaqq0ah8FwYEkzAgmIQBwSQMCCZhQDAJA4JJGBBMwoBgEgYEkzAgmIQBwSQMCCZhQDAJA4JJGBBMwoBgEgYEkzAgmIQBwSQMCCZhQDAJA4JJGBBMwoBgEgYEkzAgmIQBwSQMCCZhQDAJA4JJGBBMwoBgEgYEkzAgmIQBwSQMCCZhQDAJA4K16l4ASNXtdicnJ0d/7o4dH31zLWHAd1RVVVVVoz93bGzsm2sfJIFgEgYEkzAgmIQBwSQMCCZhQDAJA4JJGBBMwoBgEgYEkzAgmIQBwSQMCCZhQDAJA4JJGBBMwoBgEgYEkzAgmIQBwSQMCCZhQDAJA4JJGBBMwoBgEgYEkzAgmIQBwSQMCCZhQDAJA4JJGBBMwoBgEgYEa7388sullJ07LwyH1dzcy2vTp5566tChQ7UuBvAHs7Ozr7zyyurqaillbOzTqpr7zW9eLaXZ2rdvXymllH2llG63DAaD06dPHzp0SMKAe8f8/PypU6eOHTu2Z8+eUh4v5fG1dLVee+219a/r9XoffPBBLSsC/HEnTpw4cuTI+onvwoBgrXqPf/DBB6empkZ/7tjY2OgPBf7iak7Y2NjY5ORkvTsAuXyQBIK1zp07t/7nfr9/69aturYB+CMuXLgwPj6+ftKamZmpaxuAP8lzzz33/yatl156qZRy8ODrq6vjn3zyj2vT3bt3j3o1gG+3b9++06dPD4fDUkqn81/j4z89f/6fh8NWa//+/aWUH/xganV1opT9de8JsIGJiYnHHnts7Xpq6kK7Pb64uH8waPk6HwgmYUAwCQOCSRgQTMKAYBIGBJMwIJiEAcEkDAgmYUAwCQOCSRgQTMKAYBIGBJMwIJiEAcEkDAgmYUAwCQOCSRgQTMKAYBIGBJMwIJiEAcEkDAgmYUAwCQOCSRgQTMKAYBIGBJMwIJiEAcEkDAgmYUAwCQOCSRgQTMKAYBIGBJMwIJiEAcEkDAgmYUAwCQOCSRgQTMKAYBIGBJMwIJiEAcEkDAgmYUAwCQOCSRgQTMKAYBIGBJMwIJiEAcEkDAgmYUAwCQOCSRgQTMKAYBIGBJMwIJiEAcEkDAgmYUAwCQOCSRgQTMKAYBIGBJMwIJiEAcEkDAjWqvf469evz8/P17vDVrC4uLi0tDT6c6uqarVqfsZGaWJiotPp1L3F5rd37xfT07+7rvnxWllZWVlZqXeHreDGjRsLCwt1b7H5dbvdulfYElZWet9c+yAJBJMwIJiEAcEkDAgmYUAwCQOCSRgQTMKAYBIGBJMwIJiEAcEkDAgmYUAwCQOCSRgQTMKAYBIGBJMwIJiEAcEkDAgmYUAwCQOCSRgQTMKAYBIGBJMwIJiEAcEkDAgmYUAwCQOCSRgQTMKAYBIGBJMwIJiEAcEkDAgmYUAwCQOCtepeYGtZXFxcWloa/bmrq6ujP3QLunnz5vLy8ujP3bZtW7fbHf259wIJG6ler1fLI85orK6u1vLXot1uj/7Qe4QPkkAwCQOCSRgQTMKAYBIGBJMwIJiEAcEkDAgmYUAwCQOCSRgQTMKAYBIGBJMwIJiEAcEkDAgmYUAwCQOCSRgQTMKAYBIGBJMwIJiEAcEkDAgmYUAwCQOCSRgQTMKAYBIGBJMwIJiEAcEkDAgmYUAwCQOCSRgQTMKAYBIGBJMwIFir3++XUgaD4WAwWLsepWaz2WzKKPAdtYbDYSmllOFwWH5/DZDBOyAgmIQBwSQMCCZhQDAJA4JJGBBMwoBgEgYEkzAgmIQBwSQMCCZhQDAJA4JJGBBMwoBgEgYEkzAgmIQBwSQMCCZhQDAJA4JJGBBMwoBgEgYEkzAgmIQBwSQMCCZhQDAJA4JJGBBMwoBgEgYEkzAgmIQBwVonT54spbz11ifDYXXt2sm16ZNPPnngwIFaFyPV7Ozs+++/v+GtRx555NFHHx3xPmwOX3311ZtvvjkYDEopU1Of79jx1dWrJ4fDZrPT6XQ6ncXFHy0tHe50OhMTE2fOnLl8+XLdC5Pq+vXr77333tTU1O7/68KFC5cuXap7O1ItLCy88cYbi4uL7XZ7ZeXgtWt/Pz4+2W63W6+//vr61/V6vZmZmbq2ZHO4//77X3311b17964fHj9+vNfr1bUSm8MLL7xw5MiR9RPfhQHBWhtODx7896NHz4zg+EajlNIYwUH3iH6/1++v1r3F3TU1tfSzn21869ChX/z4x5+Odp0toaqqsbGxure4u+6773azObhzvnHCbtx4aHZ2M3+d32w2Go0a3oHeuvX17du3R3/uww8/PD09PZqzdu78uJT/3PDWffc9MT39dyPY4erVq59//vkIDrpHtNsTnU6n7i3urrm5ueHwf+6cb5yw2dnHL17827u8Up2qqmo2a0jY3NzcjRs3Rn9uu31kenpkX3H+x7clrJQflfIvI9hgdvbsL3/53ggOukd0u90HHnig7i3uritXPhsON3h737p48eL6n/v9/vLy8qi2YnPq9/uXLl1aWlpaP7x582Zd+7BpXLlyZdeuXesn/wu0ePJBAaGnUQAAAABJRU5ErkJggg==;" vertex="1" parent="1">
          <mxGeometry x="360" y="1680" width="300" height="300" as="geometry" />
        </mxCell>
        <mxCell id="MSijpHfO0dpYwcQFmJdh-344" value="" style="shape=table;startSize=0;container=1;collapsible=0;childLayout=tableLayout;fillColor=none;aspect=fixed;" vertex="1" parent="1">
          <mxGeometry x="360" y="1680" width="300" height="300" as="geometry" />
        </mxCell>
        <mxCell id="MSijpHfO0dpYwcQFmJdh-345" value="" style="shape=tableRow;horizontal=0;startSize=0;swimlaneHead=0;swimlaneBody=0;strokeColor=inherit;top=0;left=0;bottom=0;right=0;collapsible=0;dropTarget=0;fillColor=none;points=[[0,0.5],[1,0.5]];portConstraint=eastwest;" vertex="1" parent="MSijpHfO0dpYwcQFmJdh-344">
          <mxGeometry width="300" height="30" as="geometry" />
        </mxCell>
        <mxCell id="MSijpHfO0dpYwcQFmJdh-346" value="61" style="shape=partialRectangle;html=1;whiteSpace=wrap;connectable=0;strokeColor=inherit;overflow=hidden;fillColor=none;top=0;left=0;bottom=0;right=0;pointerEvents=1;" vertex="1" parent="MSijpHfO0dpYwcQFmJdh-345">
          <mxGeometry width="30" height="30" as="geometry">
            <mxRectangle width="30" height="30" as="alternateBounds" />
          </mxGeometry>
        </mxCell>
        <mxCell id="MSijpHfO0dpYwcQFmJdh-347" value="61" style="shape=partialRectangle;html=1;whiteSpace=wrap;connectable=0;strokeColor=inherit;overflow=hidden;fillColor=none;top=0;left=0;bottom=0;right=0;pointerEvents=1;" vertex="1" parent="MSijpHfO0dpYwcQFmJdh-345">
          <mxGeometry x="30" width="30" height="30" as="geometry">
            <mxRectangle width="30" height="30" as="alternateBounds" />
          </mxGeometry>
        </mxCell>
        <mxCell id="MSijpHfO0dpYwcQFmJdh-348" value="61" style="shape=partialRectangle;html=1;whiteSpace=wrap;connectable=0;strokeColor=inherit;overflow=hidden;fillColor=none;top=0;left=0;bottom=0;right=0;pointerEvents=1;" vertex="1" parent="MSijpHfO0dpYwcQFmJdh-345">
          <mxGeometry x="60" width="30" height="30" as="geometry">
            <mxRectangle width="30" height="30" as="alternateBounds" />
          </mxGeometry>
        </mxCell>
        <mxCell id="MSijpHfO0dpYwcQFmJdh-349" value="61" style="shape=partialRectangle;html=1;whiteSpace=wrap;connectable=0;strokeColor=inherit;overflow=hidden;fillColor=none;top=0;left=0;bottom=0;right=0;pointerEvents=1;" vertex="1" parent="MSijpHfO0dpYwcQFmJdh-345">
          <mxGeometry x="90" width="30" height="30" as="geometry">
            <mxRectangle width="30" height="30" as="alternateBounds" />
          </mxGeometry>
        </mxCell>
        <mxCell id="MSijpHfO0dpYwcQFmJdh-350" value="61" style="shape=partialRectangle;html=1;whiteSpace=wrap;connectable=0;strokeColor=inherit;overflow=hidden;fillColor=none;top=0;left=0;bottom=0;right=0;pointerEvents=1;" vertex="1" parent="MSijpHfO0dpYwcQFmJdh-345">
          <mxGeometry x="120" width="30" height="30" as="geometry">
            <mxRectangle width="30" height="30" as="alternateBounds" />
          </mxGeometry>
        </mxCell>
        <mxCell id="MSijpHfO0dpYwcQFmJdh-351" value="61" style="shape=partialRectangle;html=1;whiteSpace=wrap;connectable=0;strokeColor=inherit;overflow=hidden;fillColor=none;top=0;left=0;bottom=0;right=0;pointerEvents=1;" vertex="1" parent="MSijpHfO0dpYwcQFmJdh-345">
          <mxGeometry x="150" width="30" height="30" as="geometry">
            <mxRectangle width="30" height="30" as="alternateBounds" />
          </mxGeometry>
        </mxCell>
        <mxCell id="MSijpHfO0dpYwcQFmJdh-352" value="61" style="shape=partialRectangle;html=1;whiteSpace=wrap;connectable=0;strokeColor=inherit;overflow=hidden;fillColor=none;top=0;left=0;bottom=0;right=0;pointerEvents=1;" vertex="1" parent="MSijpHfO0dpYwcQFmJdh-345">
          <mxGeometry x="180" width="30" height="30" as="geometry">
            <mxRectangle width="30" height="30" as="alternateBounds" />
          </mxGeometry>
        </mxCell>
        <mxCell id="MSijpHfO0dpYwcQFmJdh-353" value="61" style="shape=partialRectangle;html=1;whiteSpace=wrap;connectable=0;strokeColor=inherit;overflow=hidden;fillColor=none;top=0;left=0;bottom=0;right=0;pointerEvents=1;" vertex="1" parent="MSijpHfO0dpYwcQFmJdh-345">
          <mxGeometry x="210" width="30" height="30" as="geometry">
            <mxRectangle width="30" height="30" as="alternateBounds" />
          </mxGeometry>
        </mxCell>
        <mxCell id="MSijpHfO0dpYwcQFmJdh-354" value="61" style="shape=partialRectangle;html=1;whiteSpace=wrap;connectable=0;strokeColor=inherit;overflow=hidden;fillColor=none;top=0;left=0;bottom=0;right=0;pointerEvents=1;" vertex="1" parent="MSijpHfO0dpYwcQFmJdh-345">
          <mxGeometry x="240" width="30" height="30" as="geometry">
            <mxRectangle width="30" height="30" as="alternateBounds" />
          </mxGeometry>
        </mxCell>
        <mxCell id="MSijpHfO0dpYwcQFmJdh-355" value="61" style="shape=partialRectangle;html=1;whiteSpace=wrap;connectable=0;strokeColor=inherit;overflow=hidden;fillColor=none;top=0;left=0;bottom=0;right=0;pointerEvents=1;" vertex="1" parent="MSijpHfO0dpYwcQFmJdh-345">
          <mxGeometry x="270" width="30" height="30" as="geometry">
            <mxRectangle width="30" height="30" as="alternateBounds" />
          </mxGeometry>
        </mxCell>
        <mxCell id="MSijpHfO0dpYwcQFmJdh-356" value="" style="shape=tableRow;horizontal=0;startSize=0;swimlaneHead=0;swimlaneBody=0;strokeColor=inherit;top=0;left=0;bottom=0;right=0;collapsible=0;dropTarget=0;fillColor=none;points=[[0,0.5],[1,0.5]];portConstraint=eastwest;" vertex="1" parent="MSijpHfO0dpYwcQFmJdh-344">
          <mxGeometry y="30" width="300" height="30" as="geometry" />
        </mxCell>
        <mxCell id="MSijpHfO0dpYwcQFmJdh-357" value="61" style="shape=partialRectangle;html=1;whiteSpace=wrap;connectable=0;strokeColor=inherit;overflow=hidden;fillColor=none;top=0;left=0;bottom=0;right=0;pointerEvents=1;" vertex="1" parent="MSijpHfO0dpYwcQFmJdh-356">
          <mxGeometry width="30" height="30" as="geometry">
            <mxRectangle width="30" height="30" as="alternateBounds" />
          </mxGeometry>
        </mxCell>
        <mxCell id="MSijpHfO0dpYwcQFmJdh-358" value="61" style="shape=partialRectangle;html=1;whiteSpace=wrap;connectable=0;strokeColor=inherit;overflow=hidden;fillColor=none;top=0;left=0;bottom=0;right=0;pointerEvents=1;" vertex="1" parent="MSijpHfO0dpYwcQFmJdh-356">
          <mxGeometry x="30" width="30" height="30" as="geometry">
            <mxRectangle width="30" height="30" as="alternateBounds" />
          </mxGeometry>
        </mxCell>
        <mxCell id="MSijpHfO0dpYwcQFmJdh-359" value="61" style="shape=partialRectangle;html=1;whiteSpace=wrap;connectable=0;strokeColor=inherit;overflow=hidden;fillColor=none;top=0;left=0;bottom=0;right=0;pointerEvents=1;" vertex="1" parent="MSijpHfO0dpYwcQFmJdh-356">
          <mxGeometry x="60" width="30" height="30" as="geometry">
            <mxRectangle width="30" height="30" as="alternateBounds" />
          </mxGeometry>
        </mxCell>
        <mxCell id="MSijpHfO0dpYwcQFmJdh-360" value="61" style="shape=partialRectangle;html=1;whiteSpace=wrap;connectable=0;strokeColor=inherit;overflow=hidden;fillColor=none;top=0;left=0;bottom=0;right=0;pointerEvents=1;" vertex="1" parent="MSijpHfO0dpYwcQFmJdh-356">
          <mxGeometry x="90" width="30" height="30" as="geometry">
            <mxRectangle width="30" height="30" as="alternateBounds" />
          </mxGeometry>
        </mxCell>
        <mxCell id="MSijpHfO0dpYwcQFmJdh-361" value="61" style="shape=partialRectangle;html=1;whiteSpace=wrap;connectable=0;strokeColor=inherit;overflow=hidden;fillColor=none;top=0;left=0;bottom=0;right=0;pointerEvents=1;" vertex="1" parent="MSijpHfO0dpYwcQFmJdh-356">
          <mxGeometry x="120" width="30" height="30" as="geometry">
            <mxRectangle width="30" height="30" as="alternateBounds" />
          </mxGeometry>
        </mxCell>
        <mxCell id="MSijpHfO0dpYwcQFmJdh-362" value="61" style="shape=partialRectangle;html=1;whiteSpace=wrap;connectable=0;strokeColor=inherit;overflow=hidden;fillColor=none;top=0;left=0;bottom=0;right=0;pointerEvents=1;" vertex="1" parent="MSijpHfO0dpYwcQFmJdh-356">
          <mxGeometry x="150" width="30" height="30" as="geometry">
            <mxRectangle width="30" height="30" as="alternateBounds" />
          </mxGeometry>
        </mxCell>
        <mxCell id="MSijpHfO0dpYwcQFmJdh-363" value="61" style="shape=partialRectangle;html=1;whiteSpace=wrap;connectable=0;strokeColor=inherit;overflow=hidden;fillColor=none;top=0;left=0;bottom=0;right=0;pointerEvents=1;" vertex="1" parent="MSijpHfO0dpYwcQFmJdh-356">
          <mxGeometry x="180" width="30" height="30" as="geometry">
            <mxRectangle width="30" height="30" as="alternateBounds" />
          </mxGeometry>
        </mxCell>
        <mxCell id="MSijpHfO0dpYwcQFmJdh-364" value="61" style="shape=partialRectangle;html=1;whiteSpace=wrap;connectable=0;strokeColor=inherit;overflow=hidden;fillColor=none;top=0;left=0;bottom=0;right=0;pointerEvents=1;" vertex="1" parent="MSijpHfO0dpYwcQFmJdh-356">
          <mxGeometry x="210" width="30" height="30" as="geometry">
            <mxRectangle width="30" height="30" as="alternateBounds" />
          </mxGeometry>
        </mxCell>
        <mxCell id="MSijpHfO0dpYwcQFmJdh-365" value="61" style="shape=partialRectangle;html=1;whiteSpace=wrap;connectable=0;strokeColor=inherit;overflow=hidden;fillColor=none;top=0;left=0;bottom=0;right=0;pointerEvents=1;" vertex="1" parent="MSijpHfO0dpYwcQFmJdh-356">
          <mxGeometry x="240" width="30" height="30" as="geometry">
            <mxRectangle width="30" height="30" as="alternateBounds" />
          </mxGeometry>
        </mxCell>
        <mxCell id="MSijpHfO0dpYwcQFmJdh-366" value="61" style="shape=partialRectangle;html=1;whiteSpace=wrap;connectable=0;strokeColor=inherit;overflow=hidden;fillColor=none;top=0;left=0;bottom=0;right=0;pointerEvents=1;" vertex="1" parent="MSijpHfO0dpYwcQFmJdh-356">
          <mxGeometry x="270" width="30" height="30" as="geometry">
            <mxRectangle width="30" height="30" as="alternateBounds" />
          </mxGeometry>
        </mxCell>
        <mxCell id="MSijpHfO0dpYwcQFmJdh-367" value="" style="shape=tableRow;horizontal=0;startSize=0;swimlaneHead=0;swimlaneBody=0;strokeColor=inherit;top=0;left=0;bottom=0;right=0;collapsible=0;dropTarget=0;fillColor=none;points=[[0,0.5],[1,0.5]];portConstraint=eastwest;" vertex="1" parent="MSijpHfO0dpYwcQFmJdh-344">
          <mxGeometry y="60" width="300" height="30" as="geometry" />
        </mxCell>
        <mxCell id="MSijpHfO0dpYwcQFmJdh-368" value="61" style="shape=partialRectangle;html=1;whiteSpace=wrap;connectable=0;strokeColor=inherit;overflow=hidden;fillColor=none;top=0;left=0;bottom=0;right=0;pointerEvents=1;" vertex="1" parent="MSijpHfO0dpYwcQFmJdh-367">
          <mxGeometry width="30" height="30" as="geometry">
            <mxRectangle width="30" height="30" as="alternateBounds" />
          </mxGeometry>
        </mxCell>
        <mxCell id="MSijpHfO0dpYwcQFmJdh-369" value="61" style="shape=partialRectangle;html=1;whiteSpace=wrap;connectable=0;strokeColor=inherit;overflow=hidden;fillColor=none;top=0;left=0;bottom=0;right=0;pointerEvents=1;" vertex="1" parent="MSijpHfO0dpYwcQFmJdh-367">
          <mxGeometry x="30" width="30" height="30" as="geometry">
            <mxRectangle width="30" height="30" as="alternateBounds" />
          </mxGeometry>
        </mxCell>
        <mxCell id="MSijpHfO0dpYwcQFmJdh-370" value="61" style="shape=partialRectangle;html=1;whiteSpace=wrap;connectable=0;strokeColor=inherit;overflow=hidden;fillColor=none;top=0;left=0;bottom=0;right=0;pointerEvents=1;" vertex="1" parent="MSijpHfO0dpYwcQFmJdh-367">
          <mxGeometry x="60" width="30" height="30" as="geometry">
            <mxRectangle width="30" height="30" as="alternateBounds" />
          </mxGeometry>
        </mxCell>
        <mxCell id="MSijpHfO0dpYwcQFmJdh-371" value="61" style="shape=partialRectangle;html=1;whiteSpace=wrap;connectable=0;strokeColor=inherit;overflow=hidden;fillColor=none;top=0;left=0;bottom=0;right=0;pointerEvents=1;" vertex="1" parent="MSijpHfO0dpYwcQFmJdh-367">
          <mxGeometry x="90" width="30" height="30" as="geometry">
            <mxRectangle width="30" height="30" as="alternateBounds" />
          </mxGeometry>
        </mxCell>
        <mxCell id="MSijpHfO0dpYwcQFmJdh-372" value="61" style="shape=partialRectangle;html=1;whiteSpace=wrap;connectable=0;strokeColor=inherit;overflow=hidden;fillColor=none;top=0;left=0;bottom=0;right=0;pointerEvents=1;" vertex="1" parent="MSijpHfO0dpYwcQFmJdh-367">
          <mxGeometry x="120" width="30" height="30" as="geometry">
            <mxRectangle width="30" height="30" as="alternateBounds" />
          </mxGeometry>
        </mxCell>
        <mxCell id="MSijpHfO0dpYwcQFmJdh-373" value="61" style="shape=partialRectangle;html=1;whiteSpace=wrap;connectable=0;strokeColor=inherit;overflow=hidden;fillColor=none;top=0;left=0;bottom=0;right=0;pointerEvents=1;" vertex="1" parent="MSijpHfO0dpYwcQFmJdh-367">
          <mxGeometry x="150" width="30" height="30" as="geometry">
            <mxRectangle width="30" height="30" as="alternateBounds" />
          </mxGeometry>
        </mxCell>
        <mxCell id="MSijpHfO0dpYwcQFmJdh-374" value="61" style="shape=partialRectangle;html=1;whiteSpace=wrap;connectable=0;strokeColor=inherit;overflow=hidden;fillColor=none;top=0;left=0;bottom=0;right=0;pointerEvents=1;" vertex="1" parent="MSijpHfO0dpYwcQFmJdh-367">
          <mxGeometry x="180" width="30" height="30" as="geometry">
            <mxRectangle width="30" height="30" as="alternateBounds" />
          </mxGeometry>
        </mxCell>
        <mxCell id="MSijpHfO0dpYwcQFmJdh-375" value="61" style="shape=partialRectangle;html=1;whiteSpace=wrap;connectable=0;strokeColor=inherit;overflow=hidden;fillColor=none;top=0;left=0;bottom=0;right=0;pointerEvents=1;" vertex="1" parent="MSijpHfO0dpYwcQFmJdh-367">
          <mxGeometry x="210" width="30" height="30" as="geometry">
            <mxRectangle width="30" height="30" as="alternateBounds" />
          </mxGeometry>
        </mxCell>
        <mxCell id="MSijpHfO0dpYwcQFmJdh-376" value="61" style="shape=partialRectangle;html=1;whiteSpace=wrap;connectable=0;strokeColor=inherit;overflow=hidden;fillColor=none;top=0;left=0;bottom=0;right=0;pointerEvents=1;" vertex="1" parent="MSijpHfO0dpYwcQFmJdh-367">
          <mxGeometry x="240" width="30" height="30" as="geometry">
            <mxRectangle width="30" height="30" as="alternateBounds" />
          </mxGeometry>
        </mxCell>
        <mxCell id="MSijpHfO0dpYwcQFmJdh-377" value="61" style="shape=partialRectangle;html=1;whiteSpace=wrap;connectable=0;strokeColor=inherit;overflow=hidden;fillColor=none;top=0;left=0;bottom=0;right=0;pointerEvents=1;" vertex="1" parent="MSijpHfO0dpYwcQFmJdh-367">
          <mxGeometry x="270" width="30" height="30" as="geometry">
            <mxRectangle width="30" height="30" as="alternateBounds" />
          </mxGeometry>
        </mxCell>
        <mxCell id="MSijpHfO0dpYwcQFmJdh-378" value="" style="shape=tableRow;horizontal=0;startSize=0;swimlaneHead=0;swimlaneBody=0;strokeColor=inherit;top=0;left=0;bottom=0;right=0;collapsible=0;dropTarget=0;fillColor=none;points=[[0,0.5],[1,0.5]];portConstraint=eastwest;" vertex="1" parent="MSijpHfO0dpYwcQFmJdh-344">
          <mxGeometry y="90" width="300" height="30" as="geometry" />
        </mxCell>
        <mxCell id="MSijpHfO0dpYwcQFmJdh-379" value="67" style="shape=partialRectangle;html=1;whiteSpace=wrap;connectable=0;strokeColor=inherit;overflow=hidden;fillColor=none;top=0;left=0;bottom=0;right=0;pointerEvents=1;" vertex="1" parent="MSijpHfO0dpYwcQFmJdh-378">
          <mxGeometry width="30" height="30" as="geometry">
            <mxRectangle width="30" height="30" as="alternateBounds" />
          </mxGeometry>
        </mxCell>
        <mxCell id="MSijpHfO0dpYwcQFmJdh-380" value="67" style="shape=partialRectangle;html=1;whiteSpace=wrap;connectable=0;strokeColor=inherit;overflow=hidden;fillColor=none;top=0;left=0;bottom=0;right=0;pointerEvents=1;" vertex="1" parent="MSijpHfO0dpYwcQFmJdh-378">
          <mxGeometry x="30" width="30" height="30" as="geometry">
            <mxRectangle width="30" height="30" as="alternateBounds" />
          </mxGeometry>
        </mxCell>
        <mxCell id="MSijpHfO0dpYwcQFmJdh-381" value="83" style="shape=partialRectangle;html=1;whiteSpace=wrap;connectable=0;strokeColor=inherit;overflow=hidden;fillColor=none;top=0;left=0;bottom=0;right=0;pointerEvents=1;" vertex="1" parent="MSijpHfO0dpYwcQFmJdh-378">
          <mxGeometry x="60" width="30" height="30" as="geometry">
            <mxRectangle width="30" height="30" as="alternateBounds" />
          </mxGeometry>
        </mxCell>
        <mxCell id="MSijpHfO0dpYwcQFmJdh-382" value="83" style="shape=partialRectangle;html=1;whiteSpace=wrap;connectable=0;strokeColor=inherit;overflow=hidden;fillColor=none;top=0;left=0;bottom=0;right=0;pointerEvents=1;" vertex="1" parent="MSijpHfO0dpYwcQFmJdh-378">
          <mxGeometry x="90" width="30" height="30" as="geometry">
            <mxRectangle width="30" height="30" as="alternateBounds" />
          </mxGeometry>
        </mxCell>
        <mxCell id="MSijpHfO0dpYwcQFmJdh-383" value="83" style="shape=partialRectangle;html=1;whiteSpace=wrap;connectable=0;strokeColor=inherit;overflow=hidden;fillColor=none;top=0;left=0;bottom=0;right=0;pointerEvents=1;" vertex="1" parent="MSijpHfO0dpYwcQFmJdh-378">
          <mxGeometry x="120" width="30" height="30" as="geometry">
            <mxRectangle width="30" height="30" as="alternateBounds" />
          </mxGeometry>
        </mxCell>
        <mxCell id="MSijpHfO0dpYwcQFmJdh-384" value="96" style="shape=partialRectangle;html=1;whiteSpace=wrap;connectable=0;strokeColor=inherit;overflow=hidden;fillColor=none;top=0;left=0;bottom=0;right=0;pointerEvents=1;" vertex="1" parent="MSijpHfO0dpYwcQFmJdh-378">
          <mxGeometry x="150" width="30" height="30" as="geometry">
            <mxRectangle width="30" height="30" as="alternateBounds" />
          </mxGeometry>
        </mxCell>
        <mxCell id="MSijpHfO0dpYwcQFmJdh-385" value="96" style="shape=partialRectangle;html=1;whiteSpace=wrap;connectable=0;strokeColor=inherit;overflow=hidden;fillColor=none;top=0;left=0;bottom=0;right=0;pointerEvents=1;" vertex="1" parent="MSijpHfO0dpYwcQFmJdh-378">
          <mxGeometry x="180" width="30" height="30" as="geometry">
            <mxRectangle width="30" height="30" as="alternateBounds" />
          </mxGeometry>
        </mxCell>
        <mxCell id="MSijpHfO0dpYwcQFmJdh-386" value="83" style="shape=partialRectangle;html=1;whiteSpace=wrap;connectable=0;strokeColor=inherit;overflow=hidden;fillColor=none;top=0;left=0;bottom=0;right=0;pointerEvents=1;" vertex="1" parent="MSijpHfO0dpYwcQFmJdh-378">
          <mxGeometry x="210" width="30" height="30" as="geometry">
            <mxRectangle width="30" height="30" as="alternateBounds" />
          </mxGeometry>
        </mxCell>
        <mxCell id="MSijpHfO0dpYwcQFmJdh-387" value="83" style="shape=partialRectangle;html=1;whiteSpace=wrap;connectable=0;strokeColor=inherit;overflow=hidden;fillColor=none;top=0;left=0;bottom=0;right=0;pointerEvents=1;" vertex="1" parent="MSijpHfO0dpYwcQFmJdh-378">
          <mxGeometry x="240" width="30" height="30" as="geometry">
            <mxRectangle width="30" height="30" as="alternateBounds" />
          </mxGeometry>
        </mxCell>
        <mxCell id="MSijpHfO0dpYwcQFmJdh-388" value="67" style="shape=partialRectangle;html=1;whiteSpace=wrap;connectable=0;strokeColor=inherit;overflow=hidden;fillColor=none;top=0;left=0;bottom=0;right=0;pointerEvents=1;" vertex="1" parent="MSijpHfO0dpYwcQFmJdh-378">
          <mxGeometry x="270" width="30" height="30" as="geometry">
            <mxRectangle width="30" height="30" as="alternateBounds" />
          </mxGeometry>
        </mxCell>
        <mxCell id="MSijpHfO0dpYwcQFmJdh-389" value="" style="shape=tableRow;horizontal=0;startSize=0;swimlaneHead=0;swimlaneBody=0;strokeColor=inherit;top=0;left=0;bottom=0;right=0;collapsible=0;dropTarget=0;fillColor=none;points=[[0,0.5],[1,0.5]];portConstraint=eastwest;" vertex="1" parent="MSijpHfO0dpYwcQFmJdh-344">
          <mxGeometry y="120" width="300" height="30" as="geometry" />
        </mxCell>
        <mxCell id="MSijpHfO0dpYwcQFmJdh-390" value="67" style="shape=partialRectangle;html=1;whiteSpace=wrap;connectable=0;strokeColor=inherit;overflow=hidden;fillColor=none;top=0;left=0;bottom=0;right=0;pointerEvents=1;" vertex="1" parent="MSijpHfO0dpYwcQFmJdh-389">
          <mxGeometry width="30" height="30" as="geometry">
            <mxRectangle width="30" height="30" as="alternateBounds" />
          </mxGeometry>
        </mxCell>
        <mxCell id="MSijpHfO0dpYwcQFmJdh-391" value="67" style="shape=partialRectangle;html=1;whiteSpace=wrap;connectable=0;strokeColor=inherit;overflow=hidden;fillColor=none;top=0;left=0;bottom=0;right=0;pointerEvents=1;" vertex="1" parent="MSijpHfO0dpYwcQFmJdh-389">
          <mxGeometry x="30" width="30" height="30" as="geometry">
            <mxRectangle width="30" height="30" as="alternateBounds" />
          </mxGeometry>
        </mxCell>
        <mxCell id="MSijpHfO0dpYwcQFmJdh-392" value="83" style="shape=partialRectangle;html=1;whiteSpace=wrap;connectable=0;strokeColor=inherit;overflow=hidden;fillColor=none;top=0;left=0;bottom=0;right=0;pointerEvents=1;" vertex="1" parent="MSijpHfO0dpYwcQFmJdh-389">
          <mxGeometry x="60" width="30" height="30" as="geometry">
            <mxRectangle width="30" height="30" as="alternateBounds" />
          </mxGeometry>
        </mxCell>
        <mxCell id="MSijpHfO0dpYwcQFmJdh-393" value="83" style="shape=partialRectangle;html=1;whiteSpace=wrap;connectable=0;strokeColor=inherit;overflow=hidden;fillColor=none;top=0;left=0;bottom=0;right=0;pointerEvents=1;" vertex="1" parent="MSijpHfO0dpYwcQFmJdh-389">
          <mxGeometry x="90" width="30" height="30" as="geometry">
            <mxRectangle width="30" height="30" as="alternateBounds" />
          </mxGeometry>
        </mxCell>
        <mxCell id="MSijpHfO0dpYwcQFmJdh-394" value="83" style="shape=partialRectangle;html=1;whiteSpace=wrap;connectable=0;strokeColor=inherit;overflow=hidden;fillColor=none;top=0;left=0;bottom=0;right=0;pointerEvents=1;" vertex="1" parent="MSijpHfO0dpYwcQFmJdh-389">
          <mxGeometry x="120" width="30" height="30" as="geometry">
            <mxRectangle width="30" height="30" as="alternateBounds" />
          </mxGeometry>
        </mxCell>
        <mxCell id="MSijpHfO0dpYwcQFmJdh-395" value="96" style="shape=partialRectangle;html=1;whiteSpace=wrap;connectable=0;strokeColor=inherit;overflow=hidden;fillColor=none;top=0;left=0;bottom=0;right=0;pointerEvents=1;" vertex="1" parent="MSijpHfO0dpYwcQFmJdh-389">
          <mxGeometry x="150" width="30" height="30" as="geometry">
            <mxRectangle width="30" height="30" as="alternateBounds" />
          </mxGeometry>
        </mxCell>
        <mxCell id="MSijpHfO0dpYwcQFmJdh-396" value="96" style="shape=partialRectangle;html=1;whiteSpace=wrap;connectable=0;strokeColor=inherit;overflow=hidden;fillColor=none;top=0;left=0;bottom=0;right=0;pointerEvents=1;" vertex="1" parent="MSijpHfO0dpYwcQFmJdh-389">
          <mxGeometry x="180" width="30" height="30" as="geometry">
            <mxRectangle width="30" height="30" as="alternateBounds" />
          </mxGeometry>
        </mxCell>
        <mxCell id="MSijpHfO0dpYwcQFmJdh-397" value="83" style="shape=partialRectangle;html=1;whiteSpace=wrap;connectable=0;strokeColor=inherit;overflow=hidden;fillColor=none;top=0;left=0;bottom=0;right=0;pointerEvents=1;" vertex="1" parent="MSijpHfO0dpYwcQFmJdh-389">
          <mxGeometry x="210" width="30" height="30" as="geometry">
            <mxRectangle width="30" height="30" as="alternateBounds" />
          </mxGeometry>
        </mxCell>
        <mxCell id="MSijpHfO0dpYwcQFmJdh-398" value="83" style="shape=partialRectangle;html=1;whiteSpace=wrap;connectable=0;strokeColor=inherit;overflow=hidden;fillColor=none;top=0;left=0;bottom=0;right=0;pointerEvents=1;" vertex="1" parent="MSijpHfO0dpYwcQFmJdh-389">
          <mxGeometry x="240" width="30" height="30" as="geometry">
            <mxRectangle width="30" height="30" as="alternateBounds" />
          </mxGeometry>
        </mxCell>
        <mxCell id="MSijpHfO0dpYwcQFmJdh-399" value="83" style="shape=partialRectangle;html=1;whiteSpace=wrap;connectable=0;strokeColor=inherit;overflow=hidden;fillColor=none;top=0;left=0;bottom=0;right=0;pointerEvents=1;" vertex="1" parent="MSijpHfO0dpYwcQFmJdh-389">
          <mxGeometry x="270" width="30" height="30" as="geometry">
            <mxRectangle width="30" height="30" as="alternateBounds" />
          </mxGeometry>
        </mxCell>
        <mxCell id="MSijpHfO0dpYwcQFmJdh-400" value="" style="shape=tableRow;horizontal=0;startSize=0;swimlaneHead=0;swimlaneBody=0;strokeColor=inherit;top=0;left=0;bottom=0;right=0;collapsible=0;dropTarget=0;fillColor=none;points=[[0,0.5],[1,0.5]];portConstraint=eastwest;" vertex="1" parent="MSijpHfO0dpYwcQFmJdh-344">
          <mxGeometry y="150" width="300" height="30" as="geometry" />
        </mxCell>
        <mxCell id="MSijpHfO0dpYwcQFmJdh-401" value="67" style="shape=partialRectangle;html=1;whiteSpace=wrap;connectable=0;strokeColor=inherit;overflow=hidden;fillColor=none;top=0;left=0;bottom=0;right=0;pointerEvents=1;" vertex="1" parent="MSijpHfO0dpYwcQFmJdh-400">
          <mxGeometry width="30" height="30" as="geometry">
            <mxRectangle width="30" height="30" as="alternateBounds" />
          </mxGeometry>
        </mxCell>
        <mxCell id="MSijpHfO0dpYwcQFmJdh-402" value="83" style="shape=partialRectangle;html=1;whiteSpace=wrap;connectable=0;strokeColor=inherit;overflow=hidden;fillColor=none;top=0;left=0;bottom=0;right=0;pointerEvents=1;" vertex="1" parent="MSijpHfO0dpYwcQFmJdh-400">
          <mxGeometry x="30" width="30" height="30" as="geometry">
            <mxRectangle width="30" height="30" as="alternateBounds" />
          </mxGeometry>
        </mxCell>
        <mxCell id="MSijpHfO0dpYwcQFmJdh-403" value="83" style="shape=partialRectangle;html=1;whiteSpace=wrap;connectable=0;strokeColor=inherit;overflow=hidden;fillColor=none;top=0;left=0;bottom=0;right=0;pointerEvents=1;" vertex="1" parent="MSijpHfO0dpYwcQFmJdh-400">
          <mxGeometry x="60" width="30" height="30" as="geometry">
            <mxRectangle width="30" height="30" as="alternateBounds" />
          </mxGeometry>
        </mxCell>
        <mxCell id="MSijpHfO0dpYwcQFmJdh-404" value="83" style="shape=partialRectangle;html=1;whiteSpace=wrap;connectable=0;strokeColor=inherit;overflow=hidden;fillColor=none;top=0;left=0;bottom=0;right=0;pointerEvents=1;" vertex="1" parent="MSijpHfO0dpYwcQFmJdh-400">
          <mxGeometry x="90" width="30" height="30" as="geometry">
            <mxRectangle width="30" height="30" as="alternateBounds" />
          </mxGeometry>
        </mxCell>
        <mxCell id="MSijpHfO0dpYwcQFmJdh-405" value="83" style="shape=partialRectangle;html=1;whiteSpace=wrap;connectable=0;strokeColor=inherit;overflow=hidden;fillColor=none;top=0;left=0;bottom=0;right=0;pointerEvents=1;" vertex="1" parent="MSijpHfO0dpYwcQFmJdh-400">
          <mxGeometry x="120" width="30" height="30" as="geometry">
            <mxRectangle width="30" height="30" as="alternateBounds" />
          </mxGeometry>
        </mxCell>
        <mxCell id="MSijpHfO0dpYwcQFmJdh-406" value="96" style="shape=partialRectangle;html=1;whiteSpace=wrap;connectable=0;strokeColor=inherit;overflow=hidden;fillColor=none;top=0;left=0;bottom=0;right=0;pointerEvents=1;" vertex="1" parent="MSijpHfO0dpYwcQFmJdh-400">
          <mxGeometry x="150" width="30" height="30" as="geometry">
            <mxRectangle width="30" height="30" as="alternateBounds" />
          </mxGeometry>
        </mxCell>
        <mxCell id="MSijpHfO0dpYwcQFmJdh-407" value="96" style="shape=partialRectangle;html=1;whiteSpace=wrap;connectable=0;strokeColor=inherit;overflow=hidden;fillColor=none;top=0;left=0;bottom=0;right=0;pointerEvents=1;" vertex="1" parent="MSijpHfO0dpYwcQFmJdh-400">
          <mxGeometry x="180" width="30" height="30" as="geometry">
            <mxRectangle width="30" height="30" as="alternateBounds" />
          </mxGeometry>
        </mxCell>
        <mxCell id="MSijpHfO0dpYwcQFmJdh-408" value="83" style="shape=partialRectangle;html=1;whiteSpace=wrap;connectable=0;strokeColor=inherit;overflow=hidden;fillColor=none;top=0;left=0;bottom=0;right=0;pointerEvents=1;" vertex="1" parent="MSijpHfO0dpYwcQFmJdh-400">
          <mxGeometry x="210" width="30" height="30" as="geometry">
            <mxRectangle width="30" height="30" as="alternateBounds" />
          </mxGeometry>
        </mxCell>
        <mxCell id="MSijpHfO0dpYwcQFmJdh-409" value="83" style="shape=partialRectangle;html=1;whiteSpace=wrap;connectable=0;strokeColor=inherit;overflow=hidden;fillColor=none;top=0;left=0;bottom=0;right=0;pointerEvents=1;" vertex="1" parent="MSijpHfO0dpYwcQFmJdh-400">
          <mxGeometry x="240" width="30" height="30" as="geometry">
            <mxRectangle width="30" height="30" as="alternateBounds" />
          </mxGeometry>
        </mxCell>
        <mxCell id="MSijpHfO0dpYwcQFmJdh-410" value="83" style="shape=partialRectangle;html=1;whiteSpace=wrap;connectable=0;strokeColor=inherit;overflow=hidden;fillColor=none;top=0;left=0;bottom=0;right=0;pointerEvents=1;" vertex="1" parent="MSijpHfO0dpYwcQFmJdh-400">
          <mxGeometry x="270" width="30" height="30" as="geometry">
            <mxRectangle width="30" height="30" as="alternateBounds" />
          </mxGeometry>
        </mxCell>
        <mxCell id="MSijpHfO0dpYwcQFmJdh-411" value="" style="shape=tableRow;horizontal=0;startSize=0;swimlaneHead=0;swimlaneBody=0;strokeColor=inherit;top=0;left=0;bottom=0;right=0;collapsible=0;dropTarget=0;fillColor=none;points=[[0,0.5],[1,0.5]];portConstraint=eastwest;" vertex="1" parent="MSijpHfO0dpYwcQFmJdh-344">
          <mxGeometry y="180" width="300" height="30" as="geometry" />
        </mxCell>
        <mxCell id="MSijpHfO0dpYwcQFmJdh-412" value="67" style="shape=partialRectangle;html=1;whiteSpace=wrap;connectable=0;strokeColor=inherit;overflow=hidden;fillColor=none;top=0;left=0;bottom=0;right=0;pointerEvents=1;" vertex="1" parent="MSijpHfO0dpYwcQFmJdh-411">
          <mxGeometry width="30" height="30" as="geometry">
            <mxRectangle width="30" height="30" as="alternateBounds" />
          </mxGeometry>
        </mxCell>
        <mxCell id="MSijpHfO0dpYwcQFmJdh-413" value="83" style="shape=partialRectangle;html=1;whiteSpace=wrap;connectable=0;strokeColor=inherit;overflow=hidden;fillColor=none;top=0;left=0;bottom=0;right=0;pointerEvents=1;" vertex="1" parent="MSijpHfO0dpYwcQFmJdh-411">
          <mxGeometry x="30" width="30" height="30" as="geometry">
            <mxRectangle width="30" height="30" as="alternateBounds" />
          </mxGeometry>
        </mxCell>
        <mxCell id="MSijpHfO0dpYwcQFmJdh-414" value="83" style="shape=partialRectangle;html=1;whiteSpace=wrap;connectable=0;strokeColor=inherit;overflow=hidden;fillColor=none;top=0;left=0;bottom=0;right=0;pointerEvents=1;" vertex="1" parent="MSijpHfO0dpYwcQFmJdh-411">
          <mxGeometry x="60" width="30" height="30" as="geometry">
            <mxRectangle width="30" height="30" as="alternateBounds" />
          </mxGeometry>
        </mxCell>
        <mxCell id="MSijpHfO0dpYwcQFmJdh-415" value="83" style="shape=partialRectangle;html=1;whiteSpace=wrap;connectable=0;strokeColor=inherit;overflow=hidden;fillColor=none;top=0;left=0;bottom=0;right=0;pointerEvents=1;" vertex="1" parent="MSijpHfO0dpYwcQFmJdh-411">
          <mxGeometry x="90" width="30" height="30" as="geometry">
            <mxRectangle width="30" height="30" as="alternateBounds" />
          </mxGeometry>
        </mxCell>
        <mxCell id="MSijpHfO0dpYwcQFmJdh-416" value="83" style="shape=partialRectangle;html=1;whiteSpace=wrap;connectable=0;strokeColor=inherit;overflow=hidden;fillColor=none;top=0;left=0;bottom=0;right=0;pointerEvents=1;" vertex="1" parent="MSijpHfO0dpYwcQFmJdh-411">
          <mxGeometry x="120" width="30" height="30" as="geometry">
            <mxRectangle width="30" height="30" as="alternateBounds" />
          </mxGeometry>
        </mxCell>
        <mxCell id="MSijpHfO0dpYwcQFmJdh-417" value="96" style="shape=partialRectangle;html=1;whiteSpace=wrap;connectable=0;strokeColor=inherit;overflow=hidden;fillColor=none;top=0;left=0;bottom=0;right=0;pointerEvents=1;" vertex="1" parent="MSijpHfO0dpYwcQFmJdh-411">
          <mxGeometry x="150" width="30" height="30" as="geometry">
            <mxRectangle width="30" height="30" as="alternateBounds" />
          </mxGeometry>
        </mxCell>
        <mxCell id="MSijpHfO0dpYwcQFmJdh-418" value="96" style="shape=partialRectangle;html=1;whiteSpace=wrap;connectable=0;strokeColor=inherit;overflow=hidden;fillColor=none;top=0;left=0;bottom=0;right=0;pointerEvents=1;" vertex="1" parent="MSijpHfO0dpYwcQFmJdh-411">
          <mxGeometry x="180" width="30" height="30" as="geometry">
            <mxRectangle width="30" height="30" as="alternateBounds" />
          </mxGeometry>
        </mxCell>
        <mxCell id="MSijpHfO0dpYwcQFmJdh-419" value="83" style="shape=partialRectangle;html=1;whiteSpace=wrap;connectable=0;strokeColor=inherit;overflow=hidden;fillColor=none;top=0;left=0;bottom=0;right=0;pointerEvents=1;" vertex="1" parent="MSijpHfO0dpYwcQFmJdh-411">
          <mxGeometry x="210" width="30" height="30" as="geometry">
            <mxRectangle width="30" height="30" as="alternateBounds" />
          </mxGeometry>
        </mxCell>
        <mxCell id="MSijpHfO0dpYwcQFmJdh-420" value="83" style="shape=partialRectangle;html=1;whiteSpace=wrap;connectable=0;strokeColor=inherit;overflow=hidden;fillColor=none;top=0;left=0;bottom=0;right=0;pointerEvents=1;" vertex="1" parent="MSijpHfO0dpYwcQFmJdh-411">
          <mxGeometry x="240" width="30" height="30" as="geometry">
            <mxRectangle width="30" height="30" as="alternateBounds" />
          </mxGeometry>
        </mxCell>
        <mxCell id="MSijpHfO0dpYwcQFmJdh-421" value="83" style="shape=partialRectangle;html=1;whiteSpace=wrap;connectable=0;strokeColor=inherit;overflow=hidden;fillColor=none;top=0;left=0;bottom=0;right=0;pointerEvents=1;" vertex="1" parent="MSijpHfO0dpYwcQFmJdh-411">
          <mxGeometry x="270" width="30" height="30" as="geometry">
            <mxRectangle width="30" height="30" as="alternateBounds" />
          </mxGeometry>
        </mxCell>
        <mxCell id="MSijpHfO0dpYwcQFmJdh-422" value="" style="shape=tableRow;horizontal=0;startSize=0;swimlaneHead=0;swimlaneBody=0;strokeColor=inherit;top=0;left=0;bottom=0;right=0;collapsible=0;dropTarget=0;fillColor=none;points=[[0,0.5],[1,0.5]];portConstraint=eastwest;" vertex="1" parent="MSijpHfO0dpYwcQFmJdh-344">
          <mxGeometry y="210" width="300" height="30" as="geometry" />
        </mxCell>
        <mxCell id="MSijpHfO0dpYwcQFmJdh-423" value="67" style="shape=partialRectangle;html=1;whiteSpace=wrap;connectable=0;strokeColor=inherit;overflow=hidden;fillColor=none;top=0;left=0;bottom=0;right=0;pointerEvents=1;" vertex="1" parent="MSijpHfO0dpYwcQFmJdh-422">
          <mxGeometry width="30" height="30" as="geometry">
            <mxRectangle width="30" height="30" as="alternateBounds" />
          </mxGeometry>
        </mxCell>
        <mxCell id="MSijpHfO0dpYwcQFmJdh-424" value="67" style="shape=partialRectangle;html=1;whiteSpace=wrap;connectable=0;strokeColor=inherit;overflow=hidden;fillColor=none;top=0;left=0;bottom=0;right=0;pointerEvents=1;" vertex="1" parent="MSijpHfO0dpYwcQFmJdh-422">
          <mxGeometry x="30" width="30" height="30" as="geometry">
            <mxRectangle width="30" height="30" as="alternateBounds" />
          </mxGeometry>
        </mxCell>
        <mxCell id="MSijpHfO0dpYwcQFmJdh-425" value="67" style="shape=partialRectangle;html=1;whiteSpace=wrap;connectable=0;strokeColor=inherit;overflow=hidden;fillColor=none;top=0;left=0;bottom=0;right=0;pointerEvents=1;" vertex="1" parent="MSijpHfO0dpYwcQFmJdh-422">
          <mxGeometry x="60" width="30" height="30" as="geometry">
            <mxRectangle width="30" height="30" as="alternateBounds" />
          </mxGeometry>
        </mxCell>
        <mxCell id="MSijpHfO0dpYwcQFmJdh-426" value="67" style="shape=partialRectangle;html=1;whiteSpace=wrap;connectable=0;strokeColor=inherit;overflow=hidden;fillColor=none;top=0;left=0;bottom=0;right=0;pointerEvents=1;" vertex="1" parent="MSijpHfO0dpYwcQFmJdh-422">
          <mxGeometry x="90" width="30" height="30" as="geometry">
            <mxRectangle width="30" height="30" as="alternateBounds" />
          </mxGeometry>
        </mxCell>
        <mxCell id="MSijpHfO0dpYwcQFmJdh-427" value="55" style="shape=partialRectangle;html=1;whiteSpace=wrap;connectable=0;strokeColor=inherit;overflow=hidden;fillColor=none;top=0;left=0;bottom=0;right=0;pointerEvents=1;" vertex="1" parent="MSijpHfO0dpYwcQFmJdh-422">
          <mxGeometry x="120" width="30" height="30" as="geometry">
            <mxRectangle width="30" height="30" as="alternateBounds" />
          </mxGeometry>
        </mxCell>
        <mxCell id="MSijpHfO0dpYwcQFmJdh-428" value="55" style="shape=partialRectangle;html=1;whiteSpace=wrap;connectable=0;strokeColor=inherit;overflow=hidden;fillColor=none;top=0;left=0;bottom=0;right=0;pointerEvents=1;" vertex="1" parent="MSijpHfO0dpYwcQFmJdh-422">
          <mxGeometry x="150" width="30" height="30" as="geometry">
            <mxRectangle width="30" height="30" as="alternateBounds" />
          </mxGeometry>
        </mxCell>
        <mxCell id="MSijpHfO0dpYwcQFmJdh-429" value="55" style="shape=partialRectangle;html=1;whiteSpace=wrap;connectable=0;strokeColor=inherit;overflow=hidden;fillColor=none;top=0;left=0;bottom=0;right=0;pointerEvents=1;" vertex="1" parent="MSijpHfO0dpYwcQFmJdh-422">
          <mxGeometry x="180" width="30" height="30" as="geometry">
            <mxRectangle width="30" height="30" as="alternateBounds" />
          </mxGeometry>
        </mxCell>
        <mxCell id="MSijpHfO0dpYwcQFmJdh-430" value="67" style="shape=partialRectangle;html=1;whiteSpace=wrap;connectable=0;strokeColor=inherit;overflow=hidden;fillColor=none;top=0;left=0;bottom=0;right=0;pointerEvents=1;" vertex="1" parent="MSijpHfO0dpYwcQFmJdh-422">
          <mxGeometry x="210" width="30" height="30" as="geometry">
            <mxRectangle width="30" height="30" as="alternateBounds" />
          </mxGeometry>
        </mxCell>
        <mxCell id="MSijpHfO0dpYwcQFmJdh-431" value="67" style="shape=partialRectangle;html=1;whiteSpace=wrap;connectable=0;strokeColor=inherit;overflow=hidden;fillColor=none;top=0;left=0;bottom=0;right=0;pointerEvents=1;" vertex="1" parent="MSijpHfO0dpYwcQFmJdh-422">
          <mxGeometry x="240" width="30" height="30" as="geometry">
            <mxRectangle width="30" height="30" as="alternateBounds" />
          </mxGeometry>
        </mxCell>
        <mxCell id="MSijpHfO0dpYwcQFmJdh-432" value="67" style="shape=partialRectangle;html=1;whiteSpace=wrap;connectable=0;strokeColor=inherit;overflow=hidden;fillColor=none;top=0;left=0;bottom=0;right=0;pointerEvents=1;" vertex="1" parent="MSijpHfO0dpYwcQFmJdh-422">
          <mxGeometry x="270" width="30" height="30" as="geometry">
            <mxRectangle width="30" height="30" as="alternateBounds" />
          </mxGeometry>
        </mxCell>
        <mxCell id="MSijpHfO0dpYwcQFmJdh-433" value="" style="shape=tableRow;horizontal=0;startSize=0;swimlaneHead=0;swimlaneBody=0;strokeColor=inherit;top=0;left=0;bottom=0;right=0;collapsible=0;dropTarget=0;fillColor=none;points=[[0,0.5],[1,0.5]];portConstraint=eastwest;" vertex="1" parent="MSijpHfO0dpYwcQFmJdh-344">
          <mxGeometry y="240" width="300" height="30" as="geometry" />
        </mxCell>
        <mxCell id="MSijpHfO0dpYwcQFmJdh-434" value="67" style="shape=partialRectangle;html=1;whiteSpace=wrap;connectable=0;strokeColor=inherit;overflow=hidden;fillColor=none;top=0;left=0;bottom=0;right=0;pointerEvents=1;" vertex="1" parent="MSijpHfO0dpYwcQFmJdh-433">
          <mxGeometry width="30" height="30" as="geometry">
            <mxRectangle width="30" height="30" as="alternateBounds" />
          </mxGeometry>
        </mxCell>
        <mxCell id="MSijpHfO0dpYwcQFmJdh-435" value="67" style="shape=partialRectangle;html=1;whiteSpace=wrap;connectable=0;strokeColor=inherit;overflow=hidden;fillColor=none;top=0;left=0;bottom=0;right=0;pointerEvents=1;" vertex="1" parent="MSijpHfO0dpYwcQFmJdh-433">
          <mxGeometry x="30" width="30" height="30" as="geometry">
            <mxRectangle width="30" height="30" as="alternateBounds" />
          </mxGeometry>
        </mxCell>
        <mxCell id="MSijpHfO0dpYwcQFmJdh-436" value="67" style="shape=partialRectangle;html=1;whiteSpace=wrap;connectable=0;strokeColor=inherit;overflow=hidden;fillColor=none;top=0;left=0;bottom=0;right=0;pointerEvents=1;" vertex="1" parent="MSijpHfO0dpYwcQFmJdh-433">
          <mxGeometry x="60" width="30" height="30" as="geometry">
            <mxRectangle width="30" height="30" as="alternateBounds" />
          </mxGeometry>
        </mxCell>
        <mxCell id="MSijpHfO0dpYwcQFmJdh-437" value="55" style="shape=partialRectangle;html=1;whiteSpace=wrap;connectable=0;strokeColor=inherit;overflow=hidden;fillColor=none;top=0;left=0;bottom=0;right=0;pointerEvents=1;" vertex="1" parent="MSijpHfO0dpYwcQFmJdh-433">
          <mxGeometry x="90" width="30" height="30" as="geometry">
            <mxRectangle width="30" height="30" as="alternateBounds" />
          </mxGeometry>
        </mxCell>
        <mxCell id="MSijpHfO0dpYwcQFmJdh-438" value="55" style="shape=partialRectangle;html=1;whiteSpace=wrap;connectable=0;strokeColor=inherit;overflow=hidden;fillColor=none;top=0;left=0;bottom=0;right=0;pointerEvents=1;" vertex="1" parent="MSijpHfO0dpYwcQFmJdh-433">
          <mxGeometry x="120" width="30" height="30" as="geometry">
            <mxRectangle width="30" height="30" as="alternateBounds" />
          </mxGeometry>
        </mxCell>
        <mxCell id="MSijpHfO0dpYwcQFmJdh-439" value="55" style="shape=partialRectangle;html=1;whiteSpace=wrap;connectable=0;strokeColor=inherit;overflow=hidden;fillColor=none;top=0;left=0;bottom=0;right=0;pointerEvents=1;" vertex="1" parent="MSijpHfO0dpYwcQFmJdh-433">
          <mxGeometry x="150" width="30" height="30" as="geometry">
            <mxRectangle width="30" height="30" as="alternateBounds" />
          </mxGeometry>
        </mxCell>
        <mxCell id="MSijpHfO0dpYwcQFmJdh-440" value="55" style="shape=partialRectangle;html=1;whiteSpace=wrap;connectable=0;strokeColor=inherit;overflow=hidden;fillColor=none;top=0;left=0;bottom=0;right=0;pointerEvents=1;" vertex="1" parent="MSijpHfO0dpYwcQFmJdh-433">
          <mxGeometry x="180" width="30" height="30" as="geometry">
            <mxRectangle width="30" height="30" as="alternateBounds" />
          </mxGeometry>
        </mxCell>
        <mxCell id="MSijpHfO0dpYwcQFmJdh-441" value="55" style="shape=partialRectangle;html=1;whiteSpace=wrap;connectable=0;strokeColor=inherit;overflow=hidden;fillColor=none;top=0;left=0;bottom=0;right=0;pointerEvents=1;" vertex="1" parent="MSijpHfO0dpYwcQFmJdh-433">
          <mxGeometry x="210" width="30" height="30" as="geometry">
            <mxRectangle width="30" height="30" as="alternateBounds" />
          </mxGeometry>
        </mxCell>
        <mxCell id="MSijpHfO0dpYwcQFmJdh-442" value="67" style="shape=partialRectangle;html=1;whiteSpace=wrap;connectable=0;strokeColor=inherit;overflow=hidden;fillColor=none;top=0;left=0;bottom=0;right=0;pointerEvents=1;" vertex="1" parent="MSijpHfO0dpYwcQFmJdh-433">
          <mxGeometry x="240" width="30" height="30" as="geometry">
            <mxRectangle width="30" height="30" as="alternateBounds" />
          </mxGeometry>
        </mxCell>
        <mxCell id="MSijpHfO0dpYwcQFmJdh-443" value="67" style="shape=partialRectangle;html=1;whiteSpace=wrap;connectable=0;strokeColor=inherit;overflow=hidden;fillColor=none;top=0;left=0;bottom=0;right=0;pointerEvents=1;" vertex="1" parent="MSijpHfO0dpYwcQFmJdh-433">
          <mxGeometry x="270" width="30" height="30" as="geometry">
            <mxRectangle width="30" height="30" as="alternateBounds" />
          </mxGeometry>
        </mxCell>
        <mxCell id="MSijpHfO0dpYwcQFmJdh-444" value="" style="shape=tableRow;horizontal=0;startSize=0;swimlaneHead=0;swimlaneBody=0;strokeColor=inherit;top=0;left=0;bottom=0;right=0;collapsible=0;dropTarget=0;fillColor=none;points=[[0,0.5],[1,0.5]];portConstraint=eastwest;" vertex="1" parent="MSijpHfO0dpYwcQFmJdh-344">
          <mxGeometry y="270" width="300" height="30" as="geometry" />
        </mxCell>
        <mxCell id="MSijpHfO0dpYwcQFmJdh-445" value="65" style="shape=partialRectangle;html=1;whiteSpace=wrap;connectable=0;strokeColor=inherit;overflow=hidden;fillColor=none;top=0;left=0;bottom=0;right=0;pointerEvents=1;" vertex="1" parent="MSijpHfO0dpYwcQFmJdh-444">
          <mxGeometry width="30" height="30" as="geometry">
            <mxRectangle width="30" height="30" as="alternateBounds" />
          </mxGeometry>
        </mxCell>
        <mxCell id="MSijpHfO0dpYwcQFmJdh-446" value="67" style="shape=partialRectangle;html=1;whiteSpace=wrap;connectable=0;strokeColor=inherit;overflow=hidden;fillColor=none;top=0;left=0;bottom=0;right=0;pointerEvents=1;" vertex="1" parent="MSijpHfO0dpYwcQFmJdh-444">
          <mxGeometry x="30" width="30" height="30" as="geometry">
            <mxRectangle width="30" height="30" as="alternateBounds" />
          </mxGeometry>
        </mxCell>
        <mxCell id="MSijpHfO0dpYwcQFmJdh-447" value="67" style="shape=partialRectangle;html=1;whiteSpace=wrap;connectable=0;strokeColor=inherit;overflow=hidden;fillColor=none;top=0;left=0;bottom=0;right=0;pointerEvents=1;" vertex="1" parent="MSijpHfO0dpYwcQFmJdh-444">
          <mxGeometry x="60" width="30" height="30" as="geometry">
            <mxRectangle width="30" height="30" as="alternateBounds" />
          </mxGeometry>
        </mxCell>
        <mxCell id="MSijpHfO0dpYwcQFmJdh-448" value="55" style="shape=partialRectangle;html=1;whiteSpace=wrap;connectable=0;strokeColor=inherit;overflow=hidden;fillColor=none;top=0;left=0;bottom=0;right=0;pointerEvents=1;" vertex="1" parent="MSijpHfO0dpYwcQFmJdh-444">
          <mxGeometry x="90" width="30" height="30" as="geometry">
            <mxRectangle width="30" height="30" as="alternateBounds" />
          </mxGeometry>
        </mxCell>
        <mxCell id="MSijpHfO0dpYwcQFmJdh-449" value="55" style="shape=partialRectangle;html=1;whiteSpace=wrap;connectable=0;strokeColor=inherit;overflow=hidden;fillColor=none;top=0;left=0;bottom=0;right=0;pointerEvents=1;" vertex="1" parent="MSijpHfO0dpYwcQFmJdh-444">
          <mxGeometry x="120" width="30" height="30" as="geometry">
            <mxRectangle width="30" height="30" as="alternateBounds" />
          </mxGeometry>
        </mxCell>
        <mxCell id="MSijpHfO0dpYwcQFmJdh-450" value="55" style="shape=partialRectangle;html=1;whiteSpace=wrap;connectable=0;strokeColor=inherit;overflow=hidden;fillColor=none;top=0;left=0;bottom=0;right=0;pointerEvents=1;" vertex="1" parent="MSijpHfO0dpYwcQFmJdh-444">
          <mxGeometry x="150" width="30" height="30" as="geometry">
            <mxRectangle width="30" height="30" as="alternateBounds" />
          </mxGeometry>
        </mxCell>
        <mxCell id="MSijpHfO0dpYwcQFmJdh-451" value="55" style="shape=partialRectangle;html=1;whiteSpace=wrap;connectable=0;strokeColor=inherit;overflow=hidden;fillColor=none;top=0;left=0;bottom=0;right=0;pointerEvents=1;" vertex="1" parent="MSijpHfO0dpYwcQFmJdh-444">
          <mxGeometry x="180" width="30" height="30" as="geometry">
            <mxRectangle width="30" height="30" as="alternateBounds" />
          </mxGeometry>
        </mxCell>
        <mxCell id="MSijpHfO0dpYwcQFmJdh-452" value="55" style="shape=partialRectangle;html=1;whiteSpace=wrap;connectable=0;strokeColor=inherit;overflow=hidden;fillColor=none;top=0;left=0;bottom=0;right=0;pointerEvents=1;" vertex="1" parent="MSijpHfO0dpYwcQFmJdh-444">
          <mxGeometry x="210" width="30" height="30" as="geometry">
            <mxRectangle width="30" height="30" as="alternateBounds" />
          </mxGeometry>
        </mxCell>
        <mxCell id="MSijpHfO0dpYwcQFmJdh-453" value="67" style="shape=partialRectangle;html=1;whiteSpace=wrap;connectable=0;strokeColor=inherit;overflow=hidden;fillColor=none;top=0;left=0;bottom=0;right=0;pointerEvents=1;" vertex="1" parent="MSijpHfO0dpYwcQFmJdh-444">
          <mxGeometry x="240" width="30" height="30" as="geometry">
            <mxRectangle width="30" height="30" as="alternateBounds" />
          </mxGeometry>
        </mxCell>
        <mxCell id="MSijpHfO0dpYwcQFmJdh-454" value="67" style="shape=partialRectangle;html=1;whiteSpace=wrap;connectable=0;strokeColor=inherit;overflow=hidden;fillColor=none;top=0;left=0;bottom=0;right=0;pointerEvents=1;" vertex="1" parent="MSijpHfO0dpYwcQFmJdh-444">
          <mxGeometry x="270" width="30" height="30" as="geometry">
            <mxRectangle width="30" height="30" as="alternateBounds" />
          </mxGeometry>
        </mxCell>
        <mxCell id="MSijpHfO0dpYwcQFmJdh-455" value="" style="shape=image;verticalLabelPosition=bottom;labelBackgroundColor=default;verticalAlign=top;aspect=fixed;imageAspect=0;image=data:image/png,iVBORw0KGgoAAAANSUhEUgAAAoAAAAKACAIAAACDr150AAAACXBIWXMAABJ0AAASdAHeZh94AAAAEXRFWHRTb2Z0d2FyZQBTbmlwYXN0ZV0Xzt0AACAASURBVHic7J15rCRXdf9rr+r99Vtn88x4xp6xx9jEEXaMMcQGgxeMMEnIIhYlihIFJYBISJQ/okQJKIpEgoKCCP8Skj+SiEDC2ASCwUtsgm3kELzN4JmxZ/O89+a93pfaf38cv/u7c2vp6lr6Vfc7nz9G093VVber+9Wpc+73fg/HIQiCIAiCIAiCIAiCIAiCIAiCIAiCIAiCIAiCIAiCIAiCIAiCIAiCIAiCIAiCIAiCIAiCIAiCIAiCIAiCIAiCIAiCIAiCIAiCIAiCIAiCIAiCIAiCIAiCIAiCIAiCIAiCIAiCIAiCIAiCIAiCIAiCIAiCIAiCIAiCIAiCIAiCIAiCIAiCIAiCIAiCIAiCIAiCIAiCIAiCIG/Ab/cAEAQJ401vetOxY8dS3KGu648//vhgMLAsy7KsFPeMIMhYSNs9AARBwrjpppt+9Vd/NcUdtlqt559/fnNzczgcYgBGkG0EAzCCbBs8z3Mcp6qqqqpB22ialu5BBUEol8uWZSmKoigK86rrur1ez3Ec+H+6h0YQhAZL0AiyPUAg5Hn+vvvue8973hO0WbFYLBaLKR7XcZx2u+04juu63hDb7XY///nPNxoNXdeHw2GKx0UQhAEzYATZNgRB4Hm+VCotLi5O8qBzc3NBr6qqKkkSDGxiQ0KQnQkGYATJHEmSJEkqFovveMc7SNWX53lVVXmeP3r0aPRd+aat4yIIQtBLiqLcfffdINEyTZM8/9Of/vSll17iOE7XdSxNI0gqYABGkMyRZVnTtPn5+Q9+8IOVSiXJrhzHgQnaJPA8H5Tgqqp6//33e5//5je/+eqrr7quaxgGBmAESQUMwAiSPhDeBEEolUo8z2uapmkazPiOfO/I8ObdIHq52HVdnudj7EFV1Wq1Cm8ndwCu63a73eQ3BAiyM8FpHgRJH03TVFWt1+uf+tSnIO7yPC+KYq1WI6HOdV3btr3vtW3b9/lwJEkaGURt2/YGS57nfd8rCAJdqR4MBv1+n+M4eg/dbvcv/uIvNjY2xh0tgiAcZsAIkgU8zwuCIEnS4uJiSM3ZN9mNMcs7VgYc8XDMk4VCoVAoMNtomiaKYuRhIghyBRiAESQFGJmVLMvwkFloC+kjWQLkW7wlT/rGtlar1Wq1TNM8deqUaZp79uzZvXu3d2PTNH3rzHRSWy6Xy+Uyd2VSSw+Dfp68l96DoigPPPBAt9tFiRaCxAADMIKkQBSZFak5RykyQ8DzpradTufcuXODweA///M/B4PBW97ylltuucV7oF6v5w2EiqLQjh+CINRqNdd1LcsaGTVFUYQYTwu4VFV98MEHOY47fvw4SrQQZFwwACNIfEBmJQgCTPqWy2U6QWRCETwMiU+2bZNXIch5BVMkcquq6rquJEm+VeWgQ9Av2bYNiTIEYFEUQ5YncR4BF31zoChKpVIhEi008UCQKKAIC0His7Cw8Kd/+qdemRXUb4OSS+YZiHymaZ4+fZo2Z4YIp+u6ruvkSdJBAYq9vnaS3JWxnN4hHTWZpHbPnj379u2DQ/iGcN/3iqLI8zwj0Xr44Ye/9rWvhZw3BEE4zIARJAmiKPrKrNwtIi7RgRBomqa3O0JQNkn8KaNIqOhRkYeO44DVBoRS27Z9Vyj57pPZFSPRgqllBEHCwQCMIGMA9lUcx11//fXXXHNNuVwOkln5zvJCqDt58uQrr7xCnty1a9fKyopt24PBwPsu34ZF3rVDhmGQ/487C+s4Ds/zrVbr7Nmz3FaVu1qtgmOl7wehlwLD3QMt0bruuus++MEPmqb5+OOP9/t97HuIIL5gAEaQMQBXDZ7nb7nllgceeIB5NVxmRXRVJ0+efOihh8jzb37zm2+88UYuINQFoSgKvaQ4ifwY0tlGo9FqtciT+/fvX1hYgCTet4pOPinnqWbfcMMNN9xwQ6/Xe/HFF9fX17HvIYL4ggEYQSIBMivSwohJfGmBlTdcQUIMBV4IUbQaGULXuOGTKQiP+WlGw0i0bNu2LIvn+WKx6LvsGD4a/QzP8+VyeTgcwkQ12mYhCAOKsBAkEr/4i79433338VsUi8VCoRCU8kJEhEIxx3Hnz5+/ePEit1W57ff7g8GAbAzrhscdDxR7ia4q9RQTVjaTA504ceLFF18slUq/+7u/W6/XvTV2GIYsy5DoC4Lgum6z2YQE2nGcfr//2c9+dm1tLd1xIsj0ghkwgkSiXC4vLy97nydZb1AayvO8bdugZIagBYuXEo4HYjnjrZEiZOIWEvRut7u5uQnLfIMyYOZfnufr9TrZoNvtZjRUBJlS0EYOQcIolUrvfe97b7zxxhtvvJEOwETnDAbLTGUVliQ5jnPp0qVms9lsNofDYRaFYhILwXuLy6AcDVHTdd1isbi8vLy8vAwrjgqFAqS5zHh8FeBknNdcc40kSaurq+kOEkGmESxBI0gYu3bt+vznP+9dVwNx13VdumkuAURJw+HwueeeM03TV8eUIjDbyvM8s2g4FXwdMffv33/w4EEuwPOSQCrS9E6+9rWvfeUrX0l3kAgyjWAJGkH80TRNURToJxj9XSBZgpw4isVjWoy02UqyZ+8ZAIkWx3HwL9M6KRxFUaCzYa/XQ00WspPBDBhB/AHVlSiK8/Pz3h6ClmVB8ICYB25Wuq7/5Cc/gZgExdisvZHJHPDIqeh0kWWZFo7t3r37qquu4jwuWkSZRW/c7/e73e5gMPjMZz6DmixkJ4MZMIL4E6664jzpJnGO9C1KZ82EU0ly/wHAIivvZr55ebFYLBaLvV4PWxkiOxwMwAhyBWSRLmiaCLTqivM0DWy1Wp1OhwlLWSCKIj0wov8CPRQxxAAsyxrL3CMKpEsEPITg2mq1XnvtNUEQlpeXJUli5ryJIIspU6uqqmka+mQhOxYMwAhyBcTrignApL8CHdJA7cxxXLPZfO211yYwPEmSaBMPwzDIeiQYM+MQknoAZoIoHL3RaDQaDVmWl5aWiLM02YacNLobBJznQqGAPlnIjgUDMIK8AcQGURShq6BvlyEGooKeWAV45CxvRnPAUZRocDYiFpbBzASaGNK2JAiyc0ARFoK8AZhNLi4u/v7v/z7MU9IdfnzXHRmGceLECcuyTNOczNQv01KQicfhryaB2EkOBoOguw1SPPB2NoRRFQoFunYNPlkPP/zwv/7rv6YySASZLjADRpA3AEWxJEnz8/MRnaqgC8IEpn7pI4Z3DMwuA/babniPDk2ZwDWaeYlYYZMdgk9WclMwBJlSMAAjyAh8OwzSjscTW+y7jRA3zfAPC50Ng7ahp6vJk5IkaZrGcVyShk4IMo1gAEaQMILaLYC7kyiKjOfirBJRq0y04r4vQQ2fMcaSJAnaWmS9ZhpB8gYGYAR5A1VVK5UKsb4Kj6zE6yq78dA7ZwIb9EOk51MhepEWRgDMWzM74bYcIrMbueM4MCOOARVBQsAAjCBv8O53v/u+++4TBAG0V+12u9PpCIJQq9VIWZUsTzp37tyFCxeCvKCTYxjGyZMnyc5t297c3CQpeKFQuPvuu6Fyy3HccDh89NFHB4PBsWPHbrjhBrKTs2fP0ouj+v1+r9dTFOW2224j782C1dXVRqMhiuINN9ygqqq3dyGCIBwGYAQhFIvFxcVF8hASXCgy05uR/rvD4TDT8dCmWrZt9/t9JozRS3IHg0G/37csi37ScRy6NwNsY9t21okpqNLgTiXTVBtBphoMwMhOJ8j6CirSk48fGxsbGxsbXs1XqVQigVOSpJdffpkMmCyCajQaZ86cIe9qNBre/du2ffr0aVmWFxYWFhYWEo7W9/wEnTQiwqKfPHz48Pve9z7DMB566KFOp5NwPAgyRWAARnY6QdZXqqrKspxdkTmItbW1EydOiKK4sLBA0llBECqVCtnGtu3nn3/eW9fd3NwcOS1tWdZPf/pTjuOOHj2aPABHb4LEbdljMW85evTo0aNH+/3+Y489hgEY2VFgAEaQMUhofeVdHeu7TZS0m2zG7IQ2voi35yTQSmbbtnu9nm3bjOw5yBo66BMhyKyCARhBxgCsr2zbBscJL4Ig8DzPdCMAwHyRli73+33vZrAuNjxYCoIAFWld1+lZXsuyBoMByemZd4miSGuv6BaB3o8QdOgQDMN49NFHe70ePOR5/tvf/jbP83fccce73/1ushn0IiSdG8jz5XK5Wq3qup715DqC5AQMwAgyBiOtr0JCF3h3kA1CcmjS5TcE8ADxptQh6WP03HrkNkGA0Nr7JP0Q1G2MrxYxNkHRFrJzwACMIGkCVlC+LxGnRvKQftWyrIsXL9q23Ww2vRtzVxZsQd7sXYhsmiYMwDeSMXPGzWbzzJkzgiDs3buXZKIwF06/NyjX98Lz/DXXXGMYBkR627ZPnToV/e0IstPAAIwgaRKSg0L2HPRGy7JOnz5NwpV3Y3oa1XGc4XDozaENw4A5V0mSRubQm5ubm5ubiqKsrKzQpWBZlsl74T4g4oS3IAjXX389t5XOGoZx7tw5DMAIEgQGYARhgXgTFEf5LeDhxBRD3oKzF2ZsEXcLPQSJVIq+h8ji02G1GUEADMAIcgWWZa2trTmOUygU6HaEEKJc19U0jXhZBAmpssDXVJJBVVVoYxx9dZBlWc899xzP8/v37z9w4IC3O29yp2tBEEDwBd0Ji8ViuVzmrszpEWQHggEYQVhAY+VVMkPGJggCmejNWxuGKOotBtd1QXVMljun/qGYpJxZlYQgOxYMwMhOp1Qq3XPPPYqiHD58OGSzVqvV6/UsywL1U0jbn3FpNBrNZtOyrBiGyaVSCbJJYDgcQjTNut1CEHBQ+FcUxSNHjui6vrKyMvmRIEj+wQCM7HRKpdKDDz44si385ubmxYsXyUPflb7x2NjYOH36dLz3ViqVXbt2kYeXLl1qtVo8zwet8c0aOv8WRfHYsWMcx+3Zs2dbBoMgOQcDMDJTkCpxsVj0vmoYBohyabsob6YIUSS7DJK0FobaLFFXRYnoZO5ZVVXXdWVZpgXMiqKoqkqaFTI9jNMlypjBGCvIHRMq+UyBWlEUxhMU6Pf74eI4BJk6MAAjM4WqqqqqLi0tffKTn/R23Dt+/Pijjz7qOE6324UYpqpquVymA4AoiouLi6TCTDyiybRl8tz3zJkzp0+fhkaHgiCYpgkd6YfD4cg967o+GAyKxeI999xTKBREUaTnU6+99lrab/mnP/3pyZMnkww1CEVRFEUBxRZZecxsY5rmY4891uv13vnOd1577bXMq67rrq2t2bZdqVRqtRp5/q677nrve9/LbKzr+t/+7d+ur6+jTxYyS2AARmYKiASyLC8vL9MaZqBcLtNxgqyHYTaDkEbnqfSryTMw0zT7/b4gCKqqjpttE3VYuVz2zfJpQBGdBXDqwk+F67q9Xq/b7fouBXZd17Ztr6dYqVTyzhkPh0NYnYwrl5BZAgMwMlMcO3bs2LFjlUrFdxLUNE3IMiFyXH/99TfccEOpVIKNh8OhruuMkXK/33/mmWdM01QUJeHEqm3b6+vrtm3rul4qlZjSqyiK+/fv994NkPbDp06dsixL07Rqtaooytra2sjxbG5uMmuKOI6TJOnw4cOQ1kNfhNXVVWiccP78ee7KuwFRFJeWlryiZfgUHHU74lWMh4uweJ6vVCqO43gLFV4kSbrrrrs6nc6LL774ox/9aOT2CDIVYABGZoqbbrrpAx/4QNCrpmnSAemmm276hV/4BfJwMBi0Wi1JkmAaFZ7s9XrHjx/v9/s333zzDTfckGRslmVduHABVvtAb0F6glaSpEOHDnljKqR9/X7/5ZdfHgwGtVoNVFeXLl0aecTLly8zPswcx2madvXVVxeLRYi+pml2Oh1d17vdbrfb5a5cnivLcr1e9wZgy7LomV1GEA73FuEiLJ7nq9VqxIxWkqR7772X47hvfOMbGICRmQEDMDJT6Lre6XREUSwUCuF9ESLuEARNlmURl6jYY4OYxAQq8n9f5REzDNu2SSyEXNm35xK3tZYXPCm5K8XJpC49RWommGwmaTeCzAYYgJGZ4pvf/OYjjzyysrLyJ3/yJ0G1TUEQQHilqurIHRaLxXe/+92macqynFBRLMsyWCUTmGAcEoM1TXvnO9/pum673W6324IgrKysCIIAk6xks3K5XCqVHMcBfdPy8vL8/LwkSdBuAVJeQRAglif5LOHA/G4MV5AgdF3/y7/8y9XVVW9CjyDTCwZgZKbodDqQAYfbOUFdN0oeDJ13QSuUMGWMGPKD3gsrlUEDDNEa3DEZkyn6RgE00pIklctlEoCTfISxSDHDdl338uXLq6urae0QQfIABmBkByHLsqZp5XL57rvvhjlX+lXImJmQJori3r17HcdpNputVovePqMSLoRM8hBkz6Zpnj592rKsQqEAi5fIImZ6tOTJarXqOM7Gxsbly5cVRbnqqqtgn15FtyAIu3btohNi5uPHsI0MWmAdgiRJd955Z7fbPXr06LiHQ5ApBQMwsoOQZblQKCwuLn7gAx/wLlKC7guMcYQsywcOHOA47syZM51OhzyfXSoJKjDyELoBmqb5/PPPDwaDY8eO0ZompsxLfEhgZe2lS5fOnz9fKBRo3w+yMSinRFHct29f6p9i3OKzLMv3339/6sNAkDyDARjZQSiKUiqVvKE3HLDjIIImxtcpi76EvtIqqC0z+ShZj+t7dFEUQ1ZPZSfCIucEVgAHOWEhyA4HAzCyg3jPe95zxx13iKIYZe0pQBLiXbt2rays6Lr+wgsvkIgCM8Q8z+u6Tgt0k+iPDMOgzZ4gTIqi+I53vAO8J+mNC4WCpmlQbSZNEgmHDh266qqrQH1Nmh0xny5FqRR3ZQE/3AkLQRAMwMgOolQqjWy64AWiGoievK/66rmSGDYFSaXA94pJdpnYyQRgWZZHLjpKNw9mStwhTlgIgmAARhB/IHGkH3IcB0t66HaEYCvNTNxeunTJK9mVZfngwYMjNU3hEdE0TTqXNQwDMm/QRTuOQzuN0AE4BNLeOPp9w+XLl9fW1rzPww3BoUOHjhw5Ytv2u971Ll3Xjxw5Qr+KdpIIAmAARhB/fAuzkiSBJgswDOPEiROWZUmSREuX19bWnnvuOea9xWJx9+7dsVciAeAjTR62221YdgWGkbZt068Wi8UoAZi0nYgeGtfW1n784x8HvbqysnL11VdzHHfNNdfQz8cQVCPIDIMBGJlBXNft9/uu6yY3cB4JY24F08OgfmK2TDiSkMwYIijp7pfkKBEBNw8uwMAruyYQCDJLYC0ImUEURYHGBg888MCdd9451ntD+tf6bmyaJgmNuq7/+Mc/tixrOBx6Jz55ng83yAzBcZx2u01aIZHnIQPmOE4URTDrKJfL5NVisRhjzhtg1kMzM9OmaRqGIUnSm9/8Zq+irVAoRDmuJEkRz8ZgMPjUpz518eLFaGNHkOkAM2BkBrEs6/LlyzzPe3sBpQtYNJOHEKVs25ZlOfXM27btkMXHsNI3xdXJUJQOelXeYmFhYdxlXQiCABiAEWT6gBq74zhMnm0YRqfTgVSY53mYMGYaLI51FPJ/URTp2WtItRnTroiQOjmqsZAdDgZgBJk+HMfpdDrehgqwHBmaQcHaX9M0BUGgGyxGhFnvpKoqrIMClpeXfZsMRoGRlyPIjgUDMDKbQPCYWMc9qDxPzPJp8rljkNlW1sBk83A4nKLmiQgSEQzAyAwCCSK3ZYU4Ac6dO3f+/PmxBFzjoigKCUKTN3fUdZ1efzw3NzeZ4z755JPHjx8Hq6/JHBFBJgYGYGQ2ATnSxNIm0zQzFXz5dj2aJNDilzycWFvDwWCwvr6e6Z0NgmwXGICRGQTEyUEt7nu93pNPPmma5nXXXXf48GHve8GCY7uKrkHQGTCzRshLoVAgnz3FxcGCIOzZs0eSpHq9nsoOEWQngwEYmUHIilvfANztdv/t3/5tMBj8yq/8ijcAc1uGTd7eBtsIs94pPADzPF8sFrNwIBFF8cCBA7juCEFSAQMwMpv4irAMw8ioViyKoizLjuOAXCheH/uxEAQh6BCzpDGWZblUKjmO0+12J1b3RpDJgAEYmUGCRFjf+c53HnvsMdu26X5/qbBv375du3Y1Go0vfelL/X7/yJEjjA1yukiSdPjw4aAEPSj133ZgVGPVw2+//fabbrppOBx+5jOf8fa3QJCpJo9/pQiSHF8RVq/X8+3hkxywher3+/1+v9vt+jbfTRGmIj1FjDsbXSwWi8XiYDCYpbQeQQAMwMgs85Of/ISuW7744ot07usrrIVqp+u6Sewk19fXeZ6P2H9wKqjVavV6PZ71VTinTp16+eWXycNDhw5df/315OHp06dfeukl0zR7vV66x0WQbQcDMDLLPPvss88++2zQq0EBuNlsOo5TrVZjB+BLly5dunSpWCzu27dvNgJwvV7PqKh+4sSJf/mXfyEP77//fjoAw6uu68KcAoLMEhiAkZ2LYRghVskxGvwJglAoFEjODWuBxk0ZoeXRWG/JOaTf8MjNOI4zDINOdnVdz9t6MARJCzRDR3YuS0tL8/PzCwsLn/zkJ8nSGsuyLl686DiOIAigNJ6fn4eVwSNxHKfRaJDwCcuBxp31PHv27Llz58Z6ywQ4ePBg7Ay41+t1u11BEJaXl723Iw8//PA///M/u64LOudisUh3VIQ5dW6C1h8IMjEwA0Z2Lt1uF6rQvglWjExUEISFhYWEo8qngDkJjuNYljXyJgZOeLfbhYiLIDPPrP2pI0hCBEGoVquu6w6HQ13XISTwPK+q6mSEx3NzcwcPHiQPm81ms9lMa88jPZwNw3jqqaeGw+GhQ4eOHDlCno9hfUV6JvI8X6vViMUYg2VZoIzDOjOy08AAjCBXIAgCRKlGowEBGOQ/1Wp1MgF4YWGBTqNPnTqVVgCu1+u+zl80nU7nlVde2dzc3LdvX0LVFVSVLcsCBXXQZpZlZWqjjSC5BQMwgkQCNFkp7jCivMtxnCiriiVJInsjrQskSaKF3FH02CBJS+hk6VKEbAOuYRPrWIUgeQMDMIJEotfrpZuoiaK4vLwsCEL4ZPOpU6f+67/+K3xXqqrecccdqqrCQ8Mw/vu//1vX9bvuuuuOO+4gm0WZXS4Wix//+MdBDBXtc/gAyimmgRLDcDj8whe+sLGxsbm5GftACDLVYABGkEhktDpoZBJsGMZIUZJlWfTYYPJ1MBi4rjtu44RUdGSgugrfxnXdzc3NtbW11G1BEWRawACMIPERBKFcLvM8D4qtkRuXSiUiRCIdjcLlwUeOHLnvvvvC9yzL8rXXXkuKxlCyNk3zyJEjsHPm1iHkiGQ5UPgRw8GqMoJEAQMwgsQHFFuCIIBiK8rG3olYnudDZmdvvPHGG2+8cdyBvelNbyL/907HhnQztG2brM5CECRTMAAjO5q0XJbIGpuQ3JFYa5FnIvp7pAut1fJ+dsdxUlwOBB8wKNijxRWyw8EAjOxcoG5cLBaTh4FqtVoqlWzbXltbC4rBtm3TDfVEUVxcXBwZg0Oy1ZEQ5TajuIYnu92ur8FyiHJqLMD6Kqg1MtS62+02xmBkx4IBGNm5QAaWirQKfCtHRkq6tBsx/4viohzy3pBXo0ilEhJuhT17rtcIMhaz0KcFQZIgCIKqqmfOnBEEYX5+nn5JkiRFUUYuw9V1ned5EmlUVdU0TdO08PdCWDVN0zAMwzBM05Rl2Rtrx+oGQQhfgNvr9XRd13V93ADM83ylUikUCjzPj3wvbOxN8U+dOvU///M/J0+e/PGPfzxy4hxBZhjMgJGdTrfb/frXv87z/C//8i/TRlGFQqFQKFiW1ev1guIZ9C7kOK5er6uqSly0AMuy+v1+UEXXcZx2u00eiqJYKBTS6l0YklnCcePVmcFUUpKkVqsVe/nQyy+/DB0G0fMZ2eFgAEaQFCCl7CS6Kt8GiLHrz777j6F7oj9RWqoxlF8hCIcBGEFSod1ud7tdSZLA3CrGHmzbXl9f5ziuWq1Wq9WE44FMmpE093o9UF1FT3+JkAoehq+Yioiu65D64wQwssPBAIwgKUD0REkSO5hVzS4sxVBdwdx2uh0SU3fVRpApBQMwstNxXRekQGktvyEIglCpVEhnw4jv0nW91WoRj60kAzAMg56pHUvxBFIypocg8cmKMQFsmuaTTz7Z7/dPnDgx7nsRZCbBAIzsdFzXhS4LUZoOjQXT2TDiuwaDwWAwEEWxWCwmrPcOh8PYrQw1TfP2EHQcp9VqxVu8ZBjGQw89hObPCELAAIwgb2Ca5mAw4HleVVWvX1X0Zbu0kIrUWkf6ZHEZyJ2i+HMFDcM3+YYd0mPz3TN8fO9HQO0VgtCkJrBEkGlnaWlpYWFhfn7+k5/8JGkiBD31XNdtt9u+vlEMMF1aq9UqlQoYY9m2XS6XR/pkeY2x6JlX33hG42sh6Wxx+fLliAV22r7K94iWZZEDOY4DH5DZplKpVKtVUGyRQN7tdj/96U9funQJwzCCAJgBI8gbQBMCRiJEHDYipqS0kMp1XcuybNvmeR5MNsLndINcG7kI2i7fDSBbHWtue6Tqin6Jsbamj0taM9Gg9RWC0GAARpA3sCxrLLVUCDDNSeIN8zAc3834Lbgri8MQd+mUlH6vsEW5XHYcxzCMkE/HqK50Xacna+FV8hBejahnPn369Msvv2wYRr/fH7kxguwcMAAjyBuYpmmaJsSVhLsCIVXQw3B8FwtBXKTDMMCUc5n3SpIE74KFxe12OyQAM6qr4XDYaDTIw1qtRgdg5tVwXnrpJbS+QhAvGIAR5Apg1ZAoirIsp7v+NQgiWUrR9CroQOGaLPr55HchsL7LdV3TNHHeF0G8YABGkCvY3Nz8q7/6K0EQ7r///jvvvHMCR6xUKpVKJV7ThYhAdK9UKqVSKUg51el06BJx8lXRw+HwC1/4wubmZqPRQOsrBPGCARhBrgC0yjzP93q9yRyR7A697wAAIABJREFUSJZSdwIhQGgHkVdIc4h0AySor9fX14fDIYZeBPGCARhBroAYY73wwgs8zxeLxbe97W2+ml4aTdNUVXUcp9vtxq61QpgUBMG39E0vz9V1/amnnjIMA0q7qqredttt0I6Jfu8Eyto0PM+Xy2VBEMhsMVhxZd11GEGmFAzACHIFxBjrRz/60QsvvLC0tHTLLbeMDMCFQqFWq4X3LhwJWenku+SJfnIwGBw/frzVasHDWq325je/GQIwvdnI1cPpQpoVwkOYTY+uPkOQnQYGYASJBASzbRcTWZYFUu2I23trvwmrwVF6TpBBYuUZQULAAIwgkQAFU7ibVabA3O2jjz76/e9/37btKLZcnU7Hu/IHvL3ijYEIuML38MQTT3zrW99yHCf6UiUE2YFgAEaQSICCaZJTqr50u93V1dWIGzuOk26HCfD2Gjmn2+v1VldXk0R6BNkJYABGkBQgXlexC9SO4/R6PcdxFEVRFIXjOPCg9m7m+3bbtklcBBNmjuMURYF+iElmpqOgqqp3BhpBkHAwACNICozldeWL4zjNZtO27VqtpigK5JoRAzCTmBJbD03TNE2zbXswGGSajPr2LkQQJBy8XUWQbQYclRNmqFnXxscd5Lar1RAk/2AGjCDbDFhQMTOmPM9DIZrBt10SdFtSVZV+Jt1BdrvdwWAQcVrXMAy0vkKQkWAARpBtJsiCyjeIBkXWTJ0suTF9siJ2SUKQHQ4GYATxB7oTGoZBPykIQrVadRxH1/VUGhd60XXdu8QITKaCoqyu648//nihUNi3b9++ffuYV5PXt4MgowLrK9M0n3zyycFgcOLEiSwOhyAzBgZgBPHHtzuhIAhzc3McxzUajYwC8HA49PpsiKIILo9Bb3nooYc4jnv7299eLpezGJUvjPWVYRjHjx8H8+eJjQFBphcMwAiSL3xz3IjLe4JSZNRDIUgOwQCMIPmiXC4HZbG+K4OZ9+7atcv7ro2NDfTEQJC8gQEYQfJFUDek2O/ddvcuBEF8wQCMIDkluhOWoii33HKLqqoHDhygfSKztqZyXbfT6QiCoKoqaUGIIEhEMAAjSB4ZywlL07R77rmnVqtxHEcHYEmSsg7A0BKxVqthAEaQccEAjCCB0MVbxtopO1mTu8VY74JlUaIoxi5fJ4H4ZCmKomkaU/SG7oSTHxWC5BwMwAjij6ZpiqLAOleO49rtNt3aLztNU7fb7ff7oiguLCx481dfJ6xut/vlL39ZFMU777zzne98Z0YDCwF8sjiO+8QnPsF5bla+/e1vf/3rX5/8qBAk52AARhB/oKcQCYGpt/YLAjynIIB59VO+iirHcTY2NjiO6/f72yK5gjELgrCysuJNwavV6uSHhCD5BwMwgryBJEmSJBWLxbe+9a2yLMuyDA+Hw6Ft2xnZbnAcp6oqbfus6zpjv5UWiqKAXzQE6dTNvECTRXJ0nudLpZIgCNdee+2DDz7IbGxZ1lNPPdXv96M0GEaQmQQDMIK8gSzLmqYtLS19+MMfLpVK8KRlWRcvXszU2VjTNDpHbLVaGQVgTdNAqAUxstlsph6AQZMFCIJQKBQEQbjppptuuukmZuN+v//KK6+srq4Oh0MMwMjOBAMwshOBFBBSXvJkoVCAxvJ0L4FMQ29Qu4XUOysw+3Rdl34mO0EZ08KBntLmeR4WLwVZdxmGgT0NkdkGAzCy4xAEAaym7r///p//+Z8nz5OA1Gq1SCaXXWMfkFnR08xAuVwuFouwDMmbGoaLv5hSuSRJoiiKori0tMRR8Q8+UbFY1DQtO58sx3HW1tZIfBUEYWlpidzxaJr2iU98ApZaeaPscDj8u7/7u8uXLxuGgc7SyKyCARjZiQiCwPP83Nzc3r17mZcmUHMmQID0jk0QBJICMq+GZ4RBa6V81ybBgTIVbTGuIPRLPM/DbYEvg8FAURRRFNHGC5lhMAAjswzRVd1+++0kCJH2eVdffTXHcY7jMOuL8lD2BA02eTgcDn/4wx8ahvHqq6+GvAusKF3XhYzWcRzLsphdbReMRIsAS4eZJyVJesc73tHpdMLXEL/yyivPP/98+mNFkImAARiZZUBXtby8/JGPfKRQKPhu4zhOs9nMYQN5Om21LOvb3/42LXHyhQRgWMgEU7A8z2ed6UaBkWgRfF20ZFl+4IEHRu7zG9/4BgZgZHrBAIxMPTB3S6/kIWiapmmaqqpEbRTR3DHFscF/8pBVp0iKnyt8lj1cjyaKYogFpm3bUAOfsZOPzAwYgJHpBvyqlpaWPv7xj8MiVxq4fEuSBC8xblZApjKr5eVlQRDa7Xan08niEAyQ7HIcx9yOpJ7+lsvlarUKMquEAi7iohV0IFg65cudd975sz/7s0GvPvHEE8ePH4dD5LDCgSAYgJHpBiY4VVXds2fPyH4AE3OzAiD2e3XOWR+Uy74FoSAIsixDfTvhrpilSgzh0b1SqVQqlaBX6/W6KIqw5irREBEkGzAAI3kHhFSlUun222/3SnjAr6pSqYQ0ISAyq+zcrMLRNA2q391u13VdsL7y9goM0X9FzzLhQCG7CtJkkTXQvV5vG/NFGAZ5mKTJ0sGDB++9916O44bDYciJ/cEPftDtdtGQC5k8GICRvANCqpWVlY9+9KPeInMUbNveXplVoVAoFAqWZfX7fdu2GesrIKj/IBDyErMTkF+FbB+kydI0rV6v27Y9GAy28VzBMFLZ1dGjR48ePRq+jWEYZ86cuXDhgq7rGICRCYMBGNlOiCNVyDoZEFIpioKFxMkQxSGLllhHt9PK5zdI1kGFV8JRz4WkDgZgZNsgjlTve9/77rjjjqDNiJBKluUJjm5yhF/cocVvxPsPRoRlWZa3dg0WH1zAfY8oiisrK7Bmt91uBx0IlFM8z4OZV/jGAOOEFbJZ+AbpIsvy7/3e75mmGW57+dRTT/37v/87h3ouJFUwACPbBqmF1ut1ryPVziH80j+uNTQtwgp6Fxwu6KAQI8O9O0j/QZihj2j0ARP2UbacGDzPLy4ujtxsbm4OPmM+k3hkSsnXHwMyM9x4442HDh0K30YQBFihe+DAgUwHIwhCpVLxxpvU+/HFA8JYyKuxezOM3LP3SaIUG8uBWVXVkU1/SXY+jRw4cODee+91XVfX9ZEZ8NmzZ1966aUgM1EEIWAARjLhrW99axQno8kgiqKvrqfRaOQkAIdEpiQ+VuF79sVxnFarNa4cCebpx3rLdHHkyJEjR45E3PiRRx4Bx1DfKQAEIWAARsYgxHOKIW+VxiDGCmzJs5ksWg0mhKegn+FQcBQX8OdyXReaTUV8F7Zf3IFMx1USyQMgRd69e/fHP/7xkXnV3NzcZEaVhGq1CiqwKCR3s4K2gK7rwmyi67qg/WE2iz6lGpHwA4E2ynVdMvUbRYQ1A4QbgETEt1/TLbfcAsufYElYlP24rvvFL37xwoUL2H5xR4EBGImKIAjgObV37948dNdJDvTKjbhx8vlL0HLTz/hmPFnkQOEHglGRQBJFhDUbZJRulkqlUqk07khUVZ2waRqy7WAARv4/oGitVCq3336791VFUSRJmpuby1UFNefQkc9rUOUbAGL0EFRV9dZbb1VV9dChQ/QRSZIX8UCw2fR+vxFLuJCYJvEAz0JQdvvtt19//fWWZcEiMYbHHnus2Wyme0Rk28EAjPx/FEUBU+Xf+I3fwDvx5DBX+XCDKkKMHoKapj3wwANQ9qeDCoTYiAci0Wt6c1/SCDkc34L8WKR+inieB9fMIJ5//nkMwLMHBuCdhSzLIdcOsOGNorHaCTDpFJnP25YEEbRvQU6c6dqEQVSeRjVQRLfOCYwkBiHWoRzHqapK68xRsTUbTGutCYnHr/3ar7397W8PehUyIUmSlpaWJjmqfPL666+vra2Rh7Ztg/VEvV6PGO0kSdq9e7cgCORa6XvF9F2sAhGXHMhxnI2NjaD0ThCExcVFUrSgVVf0EcFUy/t2+uOQAzmOMzKbFARhz549k1S8j2ydFCUD9v0WQOIQfSSxu04FTS6sra15W3WVSiUobKytrdGl6S9+8Yvnz583TTOkkyOSfzAD3lnU6/V9+/Zt9yimA9+rW4z2dnQ26fvGKHsDrXL0g/qmRxFXQJmmmefVq+EO1bGTwnjLw2IcLugolmV5AzD5IpaXl+nnNU0TRRG7R0w7GIBnDVhbUqvV3vrWt3pfPXjwIP1wrAtWxCtUkqUduZp4rlQqu3fvdhyn1+vRETT6ZdpxnE6nQ2fAANNxL8ivKnlVmTHi8J1Udq/sPzjWTwJsswRBIP0MssNXTcYIqcJHHqScIsugo/z8yDCS/M7hW4DDkXVHvjc9hmHAYrBSqUTnzbfddtuRI0dIzEaJ1pSCAXjWgJnCvXv3/uZv/ubIjcdaCum75JEhogrGl7xZFdbr9Xq9blnWxYsX411tHcfxvSzOzc0VCgX6mYw+OBPafc+wbdvtdjteLuW6LnzAWq02gQDsja9R6uSEoCKzJEnR73WIsC7275y5mdN1fXNzM2hj4pYKKS95nlFsvfjiixiApxEMwFMPo6tihFThyo6xgEtPphKkfC6DSdEZiszLQkTf3hsOEku2S8uT4o8zRUaWuAnk+XGnJHyfCf8WwjWAUIGwbdtbxEbyTL6udEgMPvShD73tbW8jD6HMKMsy9HhpNpu9Xo95iyRJCwsLHMdZljVWbgehCJIqprxJVrjCv6DiGfezwMUloh3BZLQ/sHaIS8MJy3GcRqPhui6kYrIsHzlyBD4Fszg4rUgP8i6e5zVN8xbPV1dXL126xPN8uVxOeCtQq9V83bZDcBxnfX3dm3mXy+Varebd3ncFV5DqiklqGacRBvp513XX1tZC6gFkDPRgisVipVIJegsDScThuCSZ9hVh0R+B53miyWIAidaTTz75T//0TxGHgeQBzICnnnBdVdBNMQmWY13rIQMOeot3fi76num3RJlnnViSBHczXBrZKtTnyX0JbcrBxICEB6J3CGuKfE+pZVmDwUAQhHFtm9LCNE1vqEul2y7zeceaufcVQ4UDJzne2MiNbPge4EQF1b1BojXuPRCy7WAAnj4YmZVvLz/btiHxZVx1VFWVZVkQBPhLZq71sbvueBnLyIkhSqgjVdyxrq3D4ZA+IYwYyhciwkrSN0lRFFmWmfW1kiSR9JrLpk8DzAEH7bNcLu/evZtLI+Trut5utyFFG/n1wbxmkI4paFdEy8bUfumfGTmBSYwyyuWyN86FWzSbptntdoNeZRRqIV8HfTvS6/V8h+GryQIOHDjw/ve/n+O4xx9/vNFoBI0HyQ8YgKcPkFnt27cvRGZl27avsqNQKJRKJVgn6n01Rve6ICYwuwmXpyjSMMJgMGi1WuRhvV6PEoAbjUbCtExRFOj6wBRXaREc1PbTnY4lZte+p6hWq9VqNdu2X3/99YQLWobD4XA4FAShUCiM/OqHw2FIeCC70jSNCcCcR3XFHGvctbxeeJ73LYC32+2QAGwYhq9/JFCpVKLUGJiGysPh0BuAiSYLjKOZV48ePQpNIF566SUMwFMBBuCpgd/qAwgaK6iLegkxfOCuVJFwwTfjUcIAk4skkaVMgPDTkh18ZLuGTMc2Uj0XMrPg3RXzRubVkfvxFt69v5y8/X6CiDLOeJ8lXPo38k84+heKbCMYgKeG/fv3/9Ef/RFHyax8N2u1WvS6VYZOpwOladhgbm6OvjeHP2bTNNfX10f+9fquKCX/Z/YcTiqN4UKwLGt9fT3J0pF4CIIwNzfnrSv4Vl/hiknHpNiWxfDzoHflm72RS3y9Xnddt9/v9/v98D3Dwio6a5+bmyOpmOM4q6urI+MNUYAvLS1JksT0PSyVSpCD+ors4s2SjJXfj1VTmZ+fHykGFAQhygCY40KPyF6v57u+6PLlyyGarFKpVKlU0Ccr/2AAnhoURbnqqqtGbha+FMEb6nwLhskXM4wlS8kaCGaZxnhfoKrsPcPRc820khjfXfFby4IhgkacNaCFx963jBXqJEnympODPjzkXfF+V1mkgzADHUWNH+Po4U0hwzVZUIpHn6z8gwF4CgDZVHiPhCDVVTiDwcB7aUjl75ZJuTRNCxk/n8CCI/xyDKorpgkgAfQ+4fsPei+D76RAkKjKt/SaBUw7QmYwTDtkMn0bUieAHJ3OgEEqZZrmWD88bstFSxRFmNQku2Jm5Xu9HpMfM3Ol4Ycgi+Iinmr4dF5BnKIocFzf+9cgQdlYMMk97Jkc11eTFcRtt9127bXXnj59+umnn044KiRTMABPAbIsj9TrWpYV4qcTRJSqYzyYPc/Pz4cE4OwUW/1+PyTEpvjxVVWNXnInF/esS+LedoT0qWayN0mSQKAHnXaC9ukb/3q9XowATAviQP3kvYlpt9uvvfYaebh79+6xAjCc4egBmNv6dhg9l6ZpoGT2XY6cyuwGE4BhGOQP31eTFcQ999zDcdx3vvMdDMA5BwNwroE/SEmSQlRXqR+OSyMzY5KtLMrRvjlH0ALQFHPNdD/LZJQyTAYMp47kx6ncAPmelnFXmfuqsejh5WdeIw+ES7Gy+PEj6YIBOL+IoghJ1S/90i/deuutEwjAtVqtVCqZpkm34YtHuVwuFovk4VgzUlFWQ+m6fvLkSW8M3rNnD901qFqtwvLKtbW1VC5DoijOzc15r3fMgKNMDcJSMZLWiKK4tLSUMMCQ49LRC3JN27ar1Wq1WrUs69SpUzDND7PUR44cIb8uIrb3jha+QV/rSlhfzl15HlzXbTabEfM2x3HW1tbIxycSrcXFRXpdUET7MzJF6rvePQZMMT8LQZ/3D2Tkj6Hf70MBf2lpyfutybIM/lxjla+RSYIBOL8Qk4F6vb5nz54JHBH0L6kEKm+Hn3Rvwx3H8S3KMVcxeiFsWgOI4pQZ0VKDcVJMpfDgLQBAJRbKsPCqruukYuz9xsNH7jtI8luly7bjTovS3x3cN3AcJ0lSPM9Rr2tHQkIW3aW+/5EPAea2gIF8KVg2yC0YgKeewWDga+kXBZK4AKIowt8zuEZEhOhQ6KuAJEnj3nSPJcWSJGllZcV7iWcmYsNFWOEoiuK9hyAflh42RzkkAFGSeMdxGG02UzOE3sNjjZk5KPg3EYkQOGA4jgOyPvKWdrs90r+CXOuZAZdKJXrMjPq9UCjAPHRsiZZvo0P3yhaKvqN1XRdU1syT9OBz1X2LgRi95XmQSEIwAE89/X4/dpMAMMainwHvfl8zIF/4rd4MTPeFIJf88F1Fv9bIsrx///6Rm4WLsMJhdFXk8s3cakDo6vf7tKQoHnAGyJU3ebcJwzDo3wZRFDOCvhjyPUAQhGKxCDcKvicH7uSSSLSq1apvAG61WiMXy5XLZea9jItWQtusTIGhpmhOh+QQDMD5hczGBV0myCUv4t5SHNtIMir9hcB8wCQDiHKuyP7T/aQQ5kOUNdF3le7YQg7k+vU09FXhxRtP7LPB3A0wJzaV8zwxwhVV0/VZEAIG4Pyyd+/eP/7jP+Y4ztfsxjCM9fV1LtpSFlmWoV8KU4x1A0yho8MIp92t7gIpXvrb7XaI0z0gSdLy8jIZTBLrKyKz4nk+5O3dbpfu85hc5GLb9rlz58hctSAI8/Pz3nsv3zlR98peEY7jdDodsggH/pPFtCW0FPQGhnK5XKlUyNdRKBRUVR1Lk0XodrvQsgk0WWO9dzAYMC00YBYc7KsGg0Gn0+F5fnl5eTKtLZMA0sJ4xlhIbsn7z24noyhKiPZqrNjJUz316ELxuP2Ag0YS8jA5EduMux4fx9gfDWRW4Z3qYQY33v59cV2XrtPCfLw3oQkaEh1fYdqV/vhZRF/AV3zAjBzqqPG+Dph7JpqsGO9lniQmG3CWiFw8xtgmCXS1imeMheQWDMAzDsisiLqKSQpTuSiTyaoYVzFGNAuZLrOrKNOHkPPxPB9uueULNMSFKzJc67kIMqtxJzXHxXXdfr8Pn4ieyAyaEYROStCWh56RDVHJZgcz95x8QWq4Jmtc+v2+IAjkG4yyZyJQmLyhKcD0sozCvn373vOe93Ac993vfndjYyOzoSHxwQA84xCZFYTJVFJeGlLn5MZvwsrc0buu2263412jbduG/mv1ej1GAK7X6+CYTzIJehhw5R0Oh8llVtFxHAcEU2DDEr4xqXAMh0O6MD75/hMAtBQkDxnPyxiEa7LG3RV9cxBxz+S3ml0tIRyvBH0khw8fPnz4MMdxzz33HAbgfIIBOKeEZJMT09dkivdTpPWJYlwi3S28I+RSOuHuqIaA4WPjIne+m0bzo5G/duYZOJnb+EnzX7JmSHEdPJIiGIDzSKFQkGU5yFs4vOHgdhHeUpAxr+h0OlBfZTZL/qFAseWOY45v2/alS5c4jisWi4VCgdtagMuIv5KkklAZhn714167W60W1Eh3794NldKQhLhQKCwuLoKeKz/NcJglasz6H+9aOJrBYEDn9KDJ4nm+Xq9LktTtdidZliAIggAlB19r6LyB3QlzCwbgPAL1rqDZvoiipAkz8jJEBx66cJ0uMdYfEzkbYzGRosxqrBsCBvhEMMXLjVotDS8RbVF+CPl5eE3TmFfph2Se3reV4STJ2xkOAbsT5hYMwLMJOCRwHAf36ZMU4/heE5m779RvIIiQCqyv4u2EvBFCOLOCZSyY+4DkdxswJSwIQq1WU1V1OBx+//vfZ3o+EiRJ2r9/f26X1jC3X0ypn0GSJPglD4dDchNDNFmO41SrVXeUMVYUDMOASfdyuRx+i+M7YZE1MCQ05ZgxcvoniiREFEXGzWoyYpyglRLdbnfkWt4kiKIIQqrNzc3YARh0zu6ofnxRsCwrSfz24jgO6GhkWa7Var1e7ytf+UqQg1WlUvmDP/iD6HZmE4aJlOShbwSFXpzwpdABmCin5ufnwRg8YQAG4RjP86Qvsi9ECz1hdRssDZiitBuJAgbgPALCV1+/BW7a9DUTG3OKSUmezzCE9vBbBJ4i+RGjS8Bi75/5kQQdy1dJlLomayzVW64IGjlcT3CVcA7BAJxH3v/+97/tbW9j+g+OZX01eZhJa/BeAEeqJDOgEbEsC4RUMU4OzAGnG3Shf7PjOIPBIN09P/TQQ88++yxZpOSLKIoHDhxYWFhYX1+H30xsoNjrOI6qqskX4PrS6/Wglg4nCly0uK2EmNSrweMpa02W67rQFbFcLoeUEOil6t7vd7tWfwV1J/zt3/5t0zSffPLJr371q5MfFRICBuA8Mjc35/XAchPbRmYNfd8NGYnrupORiSY8OanfH2RXLWy1WmfPnh25maIoqqqmMg0MGubsvkRGP+/r/8VtdQL21WRB44q0NFkRXaVyaKEV1J0QbCzRpTKHYADOEWRtQ56btIwELpETuzCB9ZXjODGWZtGdDyYATGTCNPm4XzFYQ4PWLKPhhWNZFkyRKoqS6ZcLLlowFxv9QLQmi95VkE4tyjB8awylUon+7hiPTIh/5C4hxTw4hhMWgyiK0AUriUsrki4YgHMEkS7nVr86khC72owoFovVatU0zX6/HyMAT3JthrvVMkFV1XHPkiiKe/bskWWZDjCTxDRN0zTBcivTAAxiKEEQNE2LeJYYTRZ5vt1uxw7AjJkXAM6gTABmRgIT0rBNipWDGE5YDERP3ul0MADnhGm90CN5g7koTzKtZLLYsWyVckLE8XMcJ0kSqIJTn7cOgi6njwy9vkNKaAE27rvoI46lzPIdp9cfbUolWkgOwQCMJILf6hvPXI+II1XWQYKxviqVSuBm5Zt8DAaD4XA4yehFw/N8sVj0Tg+DTxZ5GO51df/997/tbW9rNpuf/exnJ2ACBXIkjgrD4fc3oNhino8h4CKNDhnbrPDUjWiyoMNguVwuFAqgqxpZ6vDt5ee67vr6OpEXwMMQiZY3ZYdfZj6Fk8i2gwEYSYrvFXlidl2M5QWxVfK95JGC4baU4CCc+BpwMq0DQ3YyNzc3NzdXLpcnVuqHAxEHrvBYwrhOAvHONoRMsAWN+BaiyXK3eirDHG2UbFUURWbdAef3XcCogsI5cyDMkpFwMADniFqtdvfdd3Mct3fvXvr5wWBgmuZYs5WktR+0I+S2LqMpTkoxnoiQIZHlMVl36xvL+spxHJghNgyD6XSUEEZ9DfUAuv6pKAospIHj+oqwwOGZfuj7ES5fviyKYqlU2i4dVhSgPM48mUTTQJYhJbnhKJfLI3NQJkcnAi7fuwfTNGNItLY3D967dy92J8wbGIBzxMLCwoc+9CHv871eb1wbKdu2oT45NzcHqpnUm6kxtUHINqAt4ASqu2NZXzmO02q1ssh6QVdFPi9ja8zzPOhOdV2HAOwrwpIkaWSIsm374sWLHMft2bMntwEYpMvp7pN8a/EaTnMcx/N8DFOw4XAYZDTGjSnRIsPOdDXXSLA7YQ7BAJwj0i1YTaD8RV9NvGKo7CCLjIO0S96BTWBU+WQbe/ZtI9sllYquB9xG8jmqnQkG4FwA/QdhkUAqSJIE6zFI4gsV7ITrCOmaMwhemG0mEO1qtVq5XLYsa3V1la5Pzs3NQWC2bZuUx2N0J5wloHMDZM8J659uZg2sIgI/YKbu4ktEN6vUIRIteMjz/NLSEj2vDHWOsTRZpCUXPbWRELJyD7sTbjsYgHNBPHOG8B0yipJU4iJ9CdiurohELEMrmcnkK/HWIIqhnNuHZQqYAOewO2EMxvoBR3SzSh1GqMGMOZ55Vup3tHCpwe6EeQAD8GziFWElAe4MIAMmnlMT/gMmqivfJTogs6Lr0pDyZqcFI7qqkG2IRAsiAblLSH6npWnavffe2+/3g17VdX1zc1MURUmSoImhbdu+M5feMUOnhygz0xwVTiZT5YZEnFQ4ZFmmf96WZaX1jSuKkrzRIdhcy7IMP9qJlWF6vZ6u64qiZGTfjaQFBuDZhBFhJdkVCRgQgGHPk59TFEVxfn4+KHtwHKfT6ZCHRO6UHVGH6RDMAAAgAElEQVQaDjISLRDppJKMlkqlX//1Xw8Z2+nTp5vNJqxZEgRhYWGB47iNjY0ozlCDwcBxnEKhECUAQyCc2EQ7iWEgLVQUBTo3AL1eL60ArGmapmmu6yZpdAh/g5VKBbRpEztLpLExBuCcgwE4F6RoJU9Iseq47RIe2rzCzXdPxoirTpPsf+RnJ4I4ps/BWBKh7dIxJYH8TvL288jbeJCcgAE4F7z//e+//fbbQ/yPxoURYcUDUl5oKchtqZ/SGmF0yHHh2joxj61woOEgeQhuVlAJpzcjtwuxRwvru8jDRqMRsiaNrMZeX1+3bbvZbJ47d468ypiWhBtU6boO5s/lcjmkQf12KbOYWV6Y+1dVFRZeN5vN/JhPQSGa3+qZSHquTKZRGJJnMADngnq9zphvJMQrwoq9H47jYCJzuy4WjEVRTnRVjKMkvdYz0wMxQdS7MczTW5Zl23b4PP3ICWyYbY0x5gnAFEJIsg7OWbkatrdLYK6Gh2wjGIC3k9z2H4TxwEIFElHARdl1XXrWjRDFkSocIrNinicCFhB/hR9lwh0GCYyblW+YhClheplKeGehGI0dTdMEM8go9wFBHQbBzcqyLIjfMOaImqwJY5om07sQvn1N0+AMtNttnudLpVJIEj8xBoOBruuyLIM9CwxpLHcOWZahGtTv92Pf6t16662HDh06c+bMM888E28PSFrk7i9qR0H6D+YqABPVVafT6fV65Pler9fr9RRF2b17tzcqbGxsJAzA4TIr27Y3NzdHXqom3GGQwMQnsL5itgFFD3lIbr98iSeWNgyD/srCgQ6DMAz6tgAUQ4PBAGqksFo0oiZrwoCuGxzHZFkmC74hSvV6vc3NTdC+5SEAg06wVCpBACYm29F/saRRh67rsQPwvffey3Hcd7/7XQzA207u/qKQKYWplBLCQ6ZvFXcm4ZN1U88OUsud9kYCRHrmPdVJBGXEdi21gSLIFhiAZxzf7jRBMF5XY+Er0QIBV9DFS5Kk5eVl8jAohEfB3aYOgxEpFAqqqkKnirwN0nVdyMwYTRazgjzo7grmBcg2xWJx8rkmqK68IyQzr6AijGGMBW5W8DEn0PxxksiyXK1WOY7r9Xr5EaztNDAAzzhjTYgmCYExnLxGToKORZ7NJqFJA90pL1fA9ddr2xTlC6Xnm7cxaQ53+6LtUMYF7kKirJ+eLsj3O3WljlkCA/B2UqvV3vWud3Ge/oNJgMQlyaQyWUvjKza2bZu2vGCAfnn0Q1/FFnk1ynhA3kWunoqiMLOt4NwUZVdZ47W+An3TWLOnSW6DJEmCFvS0AUgWgMQ6nt4tSJ7NaMFmFdM0YSEZVAtIIAy/P4C7HP7KHqDItIMBeDtZXFz88Ic/nO4+C4VCwnZ1xEUr6NWQNm2KohSLRXIZBV1VksFwHNfv9+neq6qq0h9wc3MzD6uSAK/1VYySLLPwdyxApOM4TtY3JaZpxk4KLcvytgFItxySZ2DJOMdxqqrSAThcDg3hOclvA8khGIBzTU4Su+ika5/kLYom32euYKRP0/4B8z/+hFIsLtU/SSIZi/He5NIw0rs6/9/aDIMBeHuA/oPhqaphGCAemSKJhGVZr7/+Osdxc3NzCRNxy7LW1tbcUQ0HcwJJa5hrIojgIHEBVynIksE2q9vtQplaVVVJkvbs2SOKYrvdpjP+rCFeV/HCErN0O8qXwkwijPXeIKI0K4QGmjzPLy8vj7ukiqwdWl9fT6vi0mg0YNEXTNOM1aywXq/DCrGQ+aBwbr755oMHD3Ic97nPfe7MmTPxdoIkBAPw9gBXivArDplQnCKYSdDku6LLuUzDwaRjTRU3oOUwM074xsn3zhgkQWSa8KJwKIHGDn4xiqLxljiHE+X3AHqxeImjIAhgcplivgg3DcS/hR+nWSFE6yQr70ulEtwip+iAi4wLBuDt4dixY1dfffXi4mJG+yfxIOK1Jld6SF/VlSAI9GcBpdhIY6xcQbJ2SZLAbYq+w4DlQIIgJO/jJAgCvb7LcZyNjY2gWyKvPxeIoRipFHQ2JA/hI3C5+c0AxD6TmXpP0tGIBjJ+TdMMw0hLFw2aLEiFo2uyUgQKMCONS5EswAC8Pdx+++2gf86O6H/AWWQkSQhSXdH9dx3HiWKMlTfgPMMtheM4dIUDPlFaR9m3bx+Jl6ZphjQnIF5XABFDMTIrTdOYAJxDYywiFS6VSmQRM9ylpbVKDVYSt9vttAIwmbxQFCW6JitFVFUtFouGYWAAnjy5+xNCYjNWCSuIHFZ3uSkUo0UktgCH/D/ozCRRw/n+Bpgnc5X4RiGfK7CzJkVFJJIFGIAnClkmm0qrIhpZluv1OpfMVrrT6QwGg7xdp3q93mAwABEWeTJXCqwQYN6auQKSOde5uTnXdccSQNVqNTAwAlqtllexZdv266+/zvN8tVod1/vJdV1YpcrMaoNwjDwktlnMF5ErOxTyEeCXMxgMohtlTx4o8hNjE19NFqmawO8qfIf9fh+mM5aWlnCiN59gAJ4ombrPJA/qOen0x5ATr6XY+I4Znoxxt8S0XQraQxIpnO+7mMhKi+NiHGLCiKKYN9m8F34L8pDzO73R74+9bRCRvIEBeNYYa+ooV1el8IaDoLoi16Npma+KkhFGsb4ii4VA+kTQNI3OcYfDIa3h0nW91WpZlpVWYkp7e0WphGcHY3jCuGj1+31Y55pR5qcoSrVaBY/otM5tr9cbDoeyLJP+mxx1y+57V0SWMtJtQ5EpAgPwrBGxFyyQZP1J6oQ3HHQch17ymM+5ai9R7ocgPxu5zcLCgjffLRaL0NESaDQadADu9/vQODbFqzMR625j8dl13eFwSGIS3BCQk+O6Lli5lcvljAKwpmmappEl3ansE8ZcqVSgHSSx6QjRZJHuhKZpTtFyAISAAXjSZOE+k8Q9GJiKYDaNpLVyFKYzfe+WmP17DwfB0t1qO5hkGFNRcPbCDDuJBVX4zqfx7wjmnqelpDRjYACeKFddddUf/uEfchwHgqlUgFvmJFcTy7JgAcxUWG5ZlpXDcSqKIsuy4zi0io20tSCZShQGg4HvEpdWq+X9lnft2rVr1y7ycG5uzrf7BZyxS5cugU8ZQ8gNnHdNbdb+hbqu0x+faZJIRsX0vgy6NfE+D90JYanSuAo17/6hWSF5JkWfLJL40pos+tCpHIXjuN/6rd8yDOMHP/jBV7/61bT2iUQEA/BEUVV137596e5TFMWE8qups9zKYZ4RFMNiqGAcx/FNR3yfNE2TPm748tyg30n41ZyZp8g6CSbmo0BQZTuifs13tPBr98b1GNCnNF2fLEaEld1pB8+W5E1TkBhgAJ4QMEeV+uojQk6srwRBAHPgsebeGOsrsiu4RDKC236/n2m5bKzbEbCtoB+CYaFt23STXWbA8GMgTljMMqQon04UxcXFRUEQQro9eimXy7t37yYPu90urDiKgu9PBRRz7hbc1ueNZ9MBuiry8cGYIondh2VZUIEAsr7LJD5ZzPNj2WYZhgHrykqlEi3eznqKnej7TNNEPdfEwAA8IVRVVRQllZvuIPJgfSVJ0vz8/LhxnbG+AiC6EPNnbuumwbKsTLuju+M004UIQacpcBXTdZ0OwKZp0ld/TdMgAMdedS2K4v79+8dVGNXrdXru4/z582Oti/Ut84LIizyE/zO2WVHw6qoKhULCX6n3ri5rfGvanU4n+i9W13WQ0cGPhPypZq06lCQJ1HydTgcD8MTAALzTSfEPe0oVOpmS3IApZBnxuDAjiTKwKOujmIexK7ETnllIYhY2AXI+PCQVMADvLJj5vBStr2q1GhSfp/16AVX06Nv7fl7QZJETyyxW0XUdis9RzjwjsyIHjTGdsba2dunSJfIwvCQLHv3cVuJL5jiY+WCogTOLZPit1rndbjd6OjXhxKvX60GuGaM74QRYX18XBKFYLNIGcMiMkbufHZIpTIBM0fqKcWiaapKvjWbOM7NDRmcUjizL9ErfJJimSc+JhuPtret7uwDbCILgGz6hHfL4I50EjuMYhpFbj2iYC2d8V5AZAwPwhDh27NjBgweXlpaibOwrSmIQBAEW7EfMhGjVFayW4dKQpZB8McXo69t/cLpg1kpF1FXNz897xXHMepuxMAyD+Ypp0RaTl5fLZfpYkiRBEt9ut+kgGmRCSbJe+knouhhv8MlvgyRJgr8RhrS6E0ZElmU47Yxtlq7r9ENVVb0fmWiywgecw4V5SBQwAE+IsfoPRpGnSpIUvTbFqK5s2242mxHfO3IYMVRX4UD/Qah5TmkMjqEUA10VtAJMy55M13Va3cbzPC3CarVadACem5u76qqrmD3Yts2EDWKRSH/p5CEdCUBIlcoHiQcYRjJPuql2J4wC2GZxnjueXq9H35nJsuz93okmC5lJMADvOJKorlKf3w0ZSRIb+ukiixWfXt8r37M37RP2IwnSMdGV53SNsUIIV0gwwwha95Xd2HI4ET7z4BnPluz6D0YfQFqqK5BZMU8mUV1ZlrW+vk4v/WSgR06coqciIQARVsSN6/X63Nwc6SiQPBI4jrO5uUk62TmOw5SRySBpeddYtW73ymaFMGzXdX0Xsfi6WQVhGEb0r5goxXyB9gY8z8/Pz5Po4rou3Z0wRWOskSwuLtJ/eu12m/7lt9ttWMYGf2WLi4ven1C/30+rdsVw8803HzhwgOO4v/7rvz5z5kwWh0C8YADOFj7L/oMRB5CW6ir13jLExiFoA+akWZY1LT0YxqohK4oCMqu0Ks9wT8NMQvvGRfoSP+6iW+aLIPIC73zkWPXesRRq4XsGH0e4M6BHS6+v5VI1xgqHCajMzxs+NdmGtEWiye7us1QqQeBH2dckwQCcI2C+jRuljVJVlXYaCpooZQI/XNxj3AcQmdXEknhfsa5t25Au5FZVG0K4UWWKa7dAdWXbNu2P4V0jpKpqxJIj3CSRmUtY/hRUHXVdF4zAmJfGqm2Kohg9BkTcMznD+b97A8WWVwfQ6/Vs244XgPv9vq7rEY2AZFlWVZX8uSGZggE4R5CmCOEUCgW6FOzbbI5RXSVJxLOQWYUzHA69CqapM6ymEQTBtysACcDpqq6gdWPQnQq/1Vo4yg7BoIpc93lPJ2CyGcS25KqreDaW4fBb/aDyH4A1TVtYWPA+zyjmxoI0Z4wSgDVNKxaLhmFgAJ4AGIAzJ2Lky/rSEG//My/SyQPhgWEsMZpXexWyWUToBH22fw8Tdp4KysujDMO3/o9MHRiAs+Wqq6769Kc/zY1qNtJsNhlP3dgwqivANM21tTUu2oJUwnaZW5VKpUKhQFsv8TwPHyH/GQwD07yPPv+kd+FwOPTtEgjs2rVrZWWFPOz1erAuyFdXRYwvQn5LjuM0m01YIzQyYZUk6brrriOn3bKsU6dOeUsR4WKonEAqDb6/5263C4qtpaWlyeiBDx8+DHK5ixcvkid7vR78GJaWluhJn3a7Tc/LMDdtc3NzqGGeRvA7yxZVVb1rK71YlhW7vsTgGy9hJm/cXaWuuooIdDhgAvDUhV7O810wF01QG8G/Id8OE+1ARgfBO/YdG1FHj9ySWcsLDppekdS0fDsht5KTN8aCgjCz4h+GwXlOKTMpy3x303L+EQYMwFmRdf9BL7539/wWUfagaRo94OwGPxwOTdNk0nHSfxCi7wxcU5i1OgyiKC4vL/M8z/hVMa2TBoPB+vo6eQj96lOxKDFNczAYEE1WlLcIgrC0tAQ2I2CmRg+M/F8UxVwlZPB7Y55M65Y3IYVCYWVlxXXdfr9v2zb5oyNW1UByr6vhcLi6ukof1+tSwnHcW97ylgMHDpw7d+5///d/OexOmDE5+iOZMSbQf5AmSNQK8p+IK0xKpdJY/WVjM7L/4Mz8zYdcNyVJ2r9/vyRJ7Xa70+mQ56HITB6O1bV3LEDeLAiCLMsRfyGiKEJF5/Lly/RtAROPQaif+oDjAT0hcjtLWqlU4I/u4sWL9D0BKKcIySVRnU6H/pktLS35BuD77ruP47gnnnji5MmTHHYnzJi8/JHMHhD2RmpNY+Qx415KomSTub08cZGFRdNF/k84wXeojIDIW3fJcoDZMjFjLAZiZhLv7SPHzLxKLgtT/WVNOxiAs+LBBx+87bbbwudQDcO4fPkyF+32VpZlMPJlkhVRFL3pC1l31Gq1+v1++F+1LMvQJSI/WQsNyE9moygNzM/P1+t18h0NBgN6+dn2JhyWZb300kskFZMk6frrr/f+jGu1Wrlctm37woULlmVB/wzyat6u6fD3BffEPM/XajVJksAJi9lyksZYDOCTFdHrivSIhD8KUNVpmhZiZ6YoCkhBwYGr2Wy+8MILHMcdOnQorXZbyLjk8YI7G8zPz4+UX42ljeIDWsAGXez4LXP8kYfgeT7PnQSjfITpQpIkem7CcZz8rLmEGEBmH2VZ9r0hgNW6tm3zW0bW4xppTRLm1g0GHzTgiRljMcBfdzyrDZjpGNk/jZaJWJY1vc42MwMG4JSBGTVulLEfqELSdZagy91gxcAFKE0cx6H/zrer5hZEfkYyGWRZhmVXuq5vY5bf6XS63a5t2yHXccdx1tbW6A0g5fJqsnIIdCcklV5RFCHzm3B3wqlgz5490L3t+9///sbGxnYPZ2bBAJwygiDAX3V4OTd1ZQ3vaTgY8mdDwjPZOMWRJIeRbc98PFYUpVKpwPqTbQzAjUZjpBGbbdtnzpwhPmWyLL/lLW/RNG1jYyP/AZh0J4TV0uC56E68O+FUcPjw4cOHD3Mc9/zzz2MAzg4MwLMALVPKebiamXnchDBfVj6/Na9VExk2/QxdQcHvNzm+ZzKfvxAkIRiApx7oMMht/YnOzc3lVlIxsv8gjW3bzWbTzb7/oOM4tE4NahiZXu82Nzfb7bYkSfv27YOGlYVCgZhjDAaDPGSTu3bt2rt3r+M4jUaDJIiu6y4uLjqO0+12Qcvzf//3f4IgLC8vHzx40HEc0GRt78inmlKpBJ5i6+vr9BRVtVqFvwWvcGxcxtpVsVisVquwZDzhcREvGICnHqbDYN7qyTTuqP6DzMYT6z8IjlTkuFkfDvQvsizDsUDHDv5fjuOk1ZghIYqilEoluA2iYyrMrcB8Byi2OI5bWFjQNI1ospDYCIIAikjmTMIJT0U1AruKeJ8EP848X1WmGgzAKVOr1e666y6O43bv3u19FfrEcbH+kEizQgZmVzA/F/TXZRhGuMpmW4BFLNCvhjzJ83yxWIRLfKZJFSMCDwohcN6CtOiA67pg1kh2FdS8z3cYpVIJLK7g36w1WZIkwWeBvvTwywGvK+gJ2G63g8y8YN6afgacVSqVCuwq64SJnNUkpwhu7zRNAyE6rVg0DAN0EqVSadxbovPnz584cYI83Lt373XXXRd7kNGxLAsuL5qmjRyzpmlgMhpueAfGWK+99tozzzyT4lARAANwyiwtLX30ox8NetWyrNiKBshFRm7G+Cgx6Lqew1KSqqqlUokEHvI8XOLB+DC7ozN2x0FYlqXrOuSpQTHVdV3orwAPiSQ+CoIggEQIvK8noMmC027b9vnz58ktjiiKBw8eVFW12WyG/Fa9jRw2NjYEQdi7d68kSRPQZDELYWNA3gsdR/r9Ph2AoScm+HSOu0jvxIkT//AP/0Aevutd75pMACYLK2RZHhmAy+Xy4uLiyH2CMdYjjzyCATgLMACnzNSV4EY6RTM5EJ9e89qR7ARFT8gCsKB2dSkemglgZInODJ/5yX+0eEecuisJEgMMwKlRKBRkWc6tAMqXPXv2zM/PQ8oVtM3q6uqXvvQlchFZWVn52Mc+NgHXBcuyNjc3Xb/eOyMBKRN5CDluwisa1MnD71cEQWCsiEI2tizr1Vdf5XkejLHI86DJ4jgOEpTw/oMxgBIxnKJGo8Ft6QYY1VXe5ikYYDpgrNjW6/UgqV1cXKR/wKmHOsMwaKvzeCrCKMZY5NeY9TIqWZahPNPr9XL+w5guMACnRkTz51yhKMrIOwbDMM6dO0frYLMf1xsHSlKDpavZqXwpEc2eot+aEIE3M8NNvEWhfG2apq7r6V5hQXTG7DNIdZVbxv1tQJMPCNuZ5pfMXWO87y6JMVbqkIYumJenCwbgicJkZoIgxGhjbhiG9/pIevn5Qkx/FEWhJ7rC5z5feOGF1157rdFoDIdD13VD3PvyBiOVkiQJEv3ke7Ztu9VqpXsXAl7QMAfsHSTERdd1BUEYeSk3TRPuWnwFXGBAwTxPVFcpNsLSNK1er7uum1bWni4ZdSd0Xffpp5/udru0AovjuPPnzz/yyCM8z99yyy0JTzKYeXEcx9yTMaqr6UoDdjIYgCeKbdu0BRV48Yy7E991orIshwfghYWFcQ/0xBNPPPzww+RhsVicogBMnw1FUXbv3p3K4EEcm24VDvrEybJcLpe9l05N0+Cz0GXqkF1BzPMtHti27c2oiOoqwSdgKZVKkExD8TzFPSfHzaw7oeM4x48fP3v2LHOST5w4ce7cOUEQrrnmmoQBWJZlUhehT2ypVJpk63EkLTAAp4awRdAG26htGetyQ4qT6V46J/bxvR823att+DRw8lUx9IFi74oZJO2VxuzZu1kqzLCMKzYwsx4uuYhIKv0fo3vnTVJ6uaPAAJwaDz744M/93M8FZRIXLlygHYXA7yaVwACXWsdxwMiXOOkAYIw11oEuXrz4uc99znVdaJVIGA6HsY14Wq0WLDYNuS6TP3IQy3iLpVFYXFz0ZoopXj5kWb766quDXjVN89y5c/HyY8uyXnvtNfJNEZ+ssXZSKpUgXaZXmJim+fLLL5OcWJbl6667jiytIcugIXvm0vByaTab8GvMaC4Z1EneG0RFUUam8jzPz83NybLs244wC2DOiOf5L37xi4VC4dZbb33f+94X8b3hxljkYYzqDll2tbi4OHKd1c/8zM/8+Z//Ocdxf/M3f3PmzJlxj4UEgQE4NRYWFvbv3x/0qq7rsEYeEEUx3ea7xN+RuSqJojjuKkbDMF599VXv1Q2eiXd1jthSkEg6wQMrxoHCS/HJYYrbDEmSG8Z0k/hkjQWpwdAFSVEUackVOJx4A1WKbR99a93pAvPZzJMRazbh7QhTh2iyLl26JIriNddcE/294cZYSYB5Ci5arQLmFDiOS3eqAsEAnBRitpB1icZxnHCXKxqiuhprZuj5558/e/bsxsZGyN9kt9v93ve+JwjC0aNH9+3bF33nIZimSd+d0KYQ3JV6Zi/FYpGWkk2+jSuNKIr1ep2EAdu2Y6uQHMdpNpu+U8KFQgH8q8meBUEIMWwSRXFlZYU+q6nHHkVRNE2bZKFSURTvryLiTS1UYibfjtAwDEEQpkJhHgTUGGzbnupPkR8wACclYv/B5MDVPOLGsVVX3/rWt8K3aTQa//iP/8hx3Ec+8pG0AjC4DjFPEiUz6RzuS61Wi2LoMxlEUdy1axd5aBhGt9uNd3G3bXt1ddX7/OLiIlwBNzY2SDVCFMVCoRASgA8ePBhjDNEpFotRNGJpEV6HGAnUAybfjhB+5GmVGbYFVVWLxaLvQgwkBhiAMyf/ahQyNZv/odJMy5LE1FVO3qn0/JyKafwhpUiUD06mA0aa0CEzDwbgbOn3+6dPn+a2bnslSSJ+v8l3nla579KlS3//93/vuu6FCxdS2WE8RFGcm5vzPt9qtbrdLnk4Pz9frVbBFoPn+awLD0lgFFtJJFqEZrMJK9ng2l2v1+fn50m1oNFogLkVUKlUarVaksOFA2uIyXwqaUc4FekR8R6fm5sDdzCvJst13fX1deiTEeVM9no96GARss2zzz77Z3/2ZzzPf+xjH/Nt2YLsHPJ78ZoNYK6OPMxnwCBeV/RQJw+cHG9OwNxnSJIE0405PJMMTKUU7hgS7hPCG0iX4STQh3Ach1Y/TcAYFRw64f+gI0ulZd5kcLfaQfI8HzRseD5ixTuKhWen0zl79izP81Ndi0ZSIe+XsPwT3n9wYhBTrbHC0ssvv3zhwoWNjQ3wusqJyyuzXLVQKNCioZDJzpwjCAIt0XIcp9VqxZt9FARhbm4Opn7p5wuFwvz8PDGO1nW91Wp531ssFuEc0jcEqqpWq1VG3gXJX8gJp41lwOvRu42qqlH6TUUhlXZeWXe5CAck4jzP//CHP3zllVciNiuE9UimaWbaGWwk2J0wXTAAJ2V5eTmk/+DEEAQhhsnOD3/4w+9973tBnYa3CzLHCXG3UqnQdxVTZ7hNYCRapml2Op3YAXhlZcUrcS+Xy+Vy2bIssKDq9/veqgasTPM2loAOg7Zt06pguGkIuquzbfvMmTMjU95SqZSWUK7RaKQSgKH59LYEYFKi/4//+A9RFO+6664oARgK4J1OZ3sDMHQn/N73vocBOBUwAGfONt5rBzGlqquZZNyWPgy+/QST7G3kIZiXUEaUHNRk7VgwAMcH+g/C+vQgisXiDTfcwHFcs9ns9/spWl8l2cPrr7/+5S9/2XXdixcvRl/alB3g3wR+XkEBiTQjmpmLlCRJINFiPCWazWZIBzqGhx566KGHHiIP3/ve9z7wwAOiKB44cMB13UajAY5UNLDAief5SqUCkkCg1Wo1m03XdU3TpGcBzp07F3TOeZ5fXl4euao4xWXH1Wp15MS267qvv/56/qeioez0xBNPnDp1iuf53/md39mzZ8/kh3H58mXwZvGVQPqC3QnTAgNwfKL0HySrhInxWx4wTfPs2bPg55eHvx8wMyGq1KDNZib0AkSixQTgsWbxG43GqVOnyEMItzzPhwsCIDhBU0LypGVZ3vIm48/FIIoiaQ8wGaK4iMBt3GTGkwT402u326Cq2647BjjuWH55s3c3vF1gAJ4CYNl7HiIlR12RsxsP/FWTP/IpnfH1Au4ZvgaK0G0QeiYylpDEBRAwDEPX9aAgdPLkyePHj6uq+va3v32kcFfX9U6nA9kPiPii50BAPj36Ibn3/l+83EoAACAASURBVD4NwxgOhzzPQztCUlqHj7Bd98dEk5W3tlHIBMAAPAX49h/cLshqpezWevJbzFiHNcuyXn311aBER1GUWq0GVoV0JrqwsEBLt6BA7btei+O4p59++umnn67X6zfffPPIAAy/K1EUoZssE+mnF57nfW3gINfktmq/OYGsK8MAvAPJ3d3rFAG3/zkpwkQcBpR5c/6nTuqis6QRi6i59d0sz9ZXSFqMnIJBZg/MgOPzgQ984NZbbw1vD2IYBjT1yy5fHKuz4fHjx5955pnBYADLQ3MViUk9s9/vQwpIzJ4StjHfdl5//fXV1VXSscoXaBronQtcW1trNBqyLB8+fFiSpEqlAhXjKLVf5tSBJgvsq+gidvisqu9E8mAwyMi2RVXV7e2osS24rvvlL3+5WCzecsstIc0KSRsrpjshMqVgAI7P4uLigQMHwrcBq/dMhyEIQnTZzsbGxmuvvWbbdk5mlBkg4tq2TV9cpkVTE4JhGCPLnq7r+k40mP+PvTcPduQq779Pr9qvpCvdde7si2exZzy2Ae82EGKwjZ0KUFQMRYGDTZKqX0jIH4RgCISE/JJUkfAWVYFgGzAmlbdYDAyxeYuADWPP2Ngz9njGHvvOeufum66u9t7fP57Mqaa71WpJre6WdD5/TI2uWt1Hre5+znnO93wfSZIkCRf/ARWSQyU81N3Tv0SXq1w0JfUyH8u+M9EOPTbv4BwoVrht2zabbbAGrdvvCAJAAnDTeFZ/sBPIsiwIQqAGvqh+OcJAUSwWbYIoOGA0tUOoWEXTdKlU0ptd10M/6sVLtnbu3Hn33XcLgnD48GE8cywIwv/8z//E4/GdO3deccUVeA/gk4UQgkhvKF9fL6gbikmAaVpT3crp6WlwRLdk48aN+qhjmAI39CHaged5yAeAS4kr+3QRKFY4NTX1q1/9CiH0lre8pdsTP4SGkADcNJ7VH+wEoij6a/hsiWU5wqCRy+VmZmbqvbt58+ZmAzDLslu2bOE47tKlSw4DsD5XDDmMt7zlLddff30ulzt+/Dg+h5VK5dFHH0UIffjDH9YHYOyTdf78eUmSUqmUIQA3XOGjaVqpVGo2ffL666//6Ec/qvfuHXfcoQ/AMOLHLyORiFs3WjgcDofD0IcIYACGn+/UqVPnz5+nKGr79u0kAPc83RdCgkDw8z+WOUNfWtIztHMC/bpgPFBvOVSW2b8bfIlZ0G6fAJ4iQguQANw0mzdv/ou/+AuEkPd14J0kvVOpVDQaNdyf8/Pz//7v/44Qmp6e7lTj3IbjuNHRUd+rHomiODk5KcuyIek6NjY2MjKCX9r7GIyOjpoXxnjw1Z588skXXngBv7zzzjv1PllYc+ukGaC6wrVs8R8feeSRhr5d+oINZp5//vnTp0/jlzfccMM73/lO/BKXV0okEq5M+oB7F5Qe0U92WJYjxFQqFVitm81mbWapY7HYwMAALDhuv6k2ZLNZMNJxbppGCCAkADdNKBRqqL3yEbDaN/xRFEVsfeVLq1oA7Jx87+mrqloul83T0jzPO181y/N8U05DbmEoD2zwyZIkCfcqGp5nVVXNsltVVefm5lZXV9tpZKFQ0Puh7tmzx3AIG4PS1oAIqiiK/lvbi4pBt9iwGSCS8kAdAl/BxqSM0BWQANwEUHjce5UmVH5VVTU4ZpYOgeiFGtkM6WvKYrwf+FrKrCRJgjFfIpHQR9xmZ3w7BAxJOY77vd/7vXK5PDk5OTk5WW9j8Mnief7WW28F8416hh7INBcLv6AkSfrJ5k4M9aanp3/961/jl1iiJYoi5AzcujAMqW+GYUDb4e8MsV/GWFCbCyEUjUZd9O4m2EMCcBOEQiGe571fpAh14vTjlW5BluVcLtdw7BIKhcyjSe9F5qurq7Ozs/XeHRwcnJiY8LI9ToABYjgcvv/++ymKevzxx20CMPbJuuaaa8LhMAzXYEGR+TcSBMEsDRME4Sc/+UmbQ157Tp8+rc9Iv+td79q2bRtO3rioyTKk0zmOC4VCIPD2MQD7ZYwlCAKMp3meJwHYM0gA7nHgwRpwhx3f88xO8LeRzo/upPyl/npweGGQ+pUegwfoAbw7SOVEtyABuFthWRYqgtmPFA8dOvTSSy9Vq1WYZgvU6guGYcD9n6ZpfcNCoRDHcR7c5HNzc0tLS/glJBh4nt+1a5d5mOXLJC5CaHR0FMRoNnMf2Bbj3e9+9/XXX18sFv/xH/+xnjynUCg89NBD+AsmEolPf/rT6XTasBzZsNboyJEjTz/9tKqq4KHWA2DntUDdFAA2xrruuuvuuecev5tj5Oqrr/7iF7+IEPrXf/1XmxXehIaQANzFOMnF5XK5wFpfwZQeZNsMVeW9SYJZGlRBWYLgLPJ2qPaCE5hOp7PZ7Nramk37FUW5ePEifplKpUBeZCmzwhQKhS6S0Dsh4MM4J8ZYfoHrdtgb8RIaEpSnTFewZ8+eTZs26Ref2AAlz1w0daJpOhKJ4JeGEIUlJJ5pxCYnJ6PRaDwev+6669x6kHn8QEwkEvpCQyDCUhRlaWmpXl4B21d51Ubv4Hk+Ho/DbCvuD0mS9PLLL9dqNX3M7g1wPw8ne+E/4XBYVVXzwrMAwnEcmHX4VdgbJs4NC7oIziEBuAluueWWt7/97Q43dugv6ByGYWyccSAwuHi4hrzwwguvvPLKxo0bDx486NZ4EQKbZ2E4k8noT9rFixfL5bIkSRcuXKj3kXA4nE6nezIAg9ZPVdVarYaf5rVa7cc//nFHVVd+ga09IQGDNVmxWIyiqEqlEvwADN5eCCFRFH0JwOFwOBqNQsFy74/eA5AATCD8L0FOSDYLzq86kU3ppwBwNIKXPqquoP299KMQCAZIAG4MwzAw4dG3dVqCjyAIk5OTDgcBoVBo165d5mnmsbGxhlkEgyFzJxgdHXXusWUAViVFIpG///u/VxTlySef/NnPfmb/kWKx+LnPfQ4m42maNqxKUhTFF9VVKBS6//77BwcHQWnYOTRNy+fzsizDYA4FJuSDOiH4HumEdiABuDF4riggdybBDDh+OAzAiqJYDuz88qsyN6Nllw9csnDLli0URUHtI3uwJgurgoMARVHj4+PDw8MeHEuWZUmSQHjvweEcAhdzABXaBBchAbgxqVTq1ltvRQjpBTvBIRwON1ve1TMYhoFYIgiCzYwaTjZCjqGFISbLsiMjIw6fVhzHBSfSIITi8bj+0mrfYwumMymK2rFjx913312r1Z599tluGUtt3Lhx69atHMfpJYcIIfAl7cR1HovFQAeuN2oNyATw7Ozs008/jRC67rrrSHGk3iOIT+2gMTw8/NGPftTvVtQlFosF9s7E0rBcLmcfgGH41bL5M8dxW7dubb2hvjI4OOhkqNoU+mKFa2trr7zySrcE4D179rzvfe8z/JGiqEgk0onkP0VRsBi9UCiAV3agmJychCKYW7duDextTmgZEoAJhN6n3prXgDhb6dsWqDwwgdBRSAC2IxKJcBznvOgNoSkURVldXcUPXI7jQAXjGQYnLKCeRKsbgcWsHMd96UtfMufnnUi0POCGG254xzvegV8aVFehUCgcDuP56ZWVlfn5efxuNpsdGxvzrKmapi0vL1MUFYvFksmkZ8dtCKlO2KWQAGwHSF4DNV/YS2ADRcD7oY+lE1Y9iVY3AqJomqa3bt1qPr0eLxyvx8DAwKZNm+q9CyWb8EtJkvQ/Wac10mbALCxoDlCkOmGXQgJwu0iSpC+5ynFcOp324LjeW18ZgNgZEK1KU8DIG5dKNJhbBU2i5QpQYAcq7eA/SpLkZe6XZdmDBw8apFUIIcPkvaHiJ0RfTdNyuZwsy1AyDwTe9tY0zcLzfCKRgHFky9pjURQFQegfV4prrrlmYmJiZmbmxIkTSFe7k+AQEoDbRRAEvUtfPB73JgCzLOvvCEYUxU6Ug/UASZLOnz+P1yyBgCuYMnJXgBJ7CKFqtaoX+larVS+7GjzP33vvvUNDQw03M89EqKo6PT2NLzaapicmJsyxvB3AVUrTNEEQWo4itVpNf4Z7njvvvBMh9Nxzz505cwYhVCwWSQBuip596LhFwB3bgwAYJ3XXWequ1nYOL89Dm8ciPxmh9yAB2AJsffX+97//4MGDQZvvaYparQaFCDvE4uLi3/3d31EUddddd73tbW9rbSfpdDqRSHjW1+F5/sorr8QTvR6YW3kPZEFxjYFisWioP48QuuWWW6666irPmkTTtD45RFFUPB6naTqTyegNN7BFM6BdZsuWLXq/zKWlpX7I9GKbZScmM9FoFB5Wy8vLNoWt7FlZWaEoKhqNwuosQkchAdgCbH01NDS0efNmv5vTFqqqdtSlXRTFS5cuIYRgcq41WJb1spcDBQc9O5z36M2c4aWiKObc4MDAgPciJj0MwzAMEw6HbZqB+w36vLSqqqurq/0QgOG3c7gxnE/UqEa4PRC5g2AJ1w+QANx9BNn6qimw80YPfJcWwFoww9/j8Xj7Zlh6KIoKhUL6+gqiKHqp9IalRAghOG4kEolGozDMgnGw/cfNeZFOZEpAP4UQ4nme4zjciYHEjO/VCV966aVLly6Nj49fccUVPjbDktHRUSgTd+TIkbW1NVKd0Dn9+ODrdoJsfdUUNE0PDAxQFNWf3W1Zli9evGhOFW7atMn1AGwYPkqS5GUAjsVisFB1fX1dUZTh4eHx8XHkzHPUcmKiE5qDWq2Wy+UoispkMizL4pE3TdNBqE546NAhhmFuv/32AAbg7du3b9++HSE0OzsLprMkADuEBGBrnN/ePbNmlEDwC/ubiMivugjyYzUFCcAWbN68+ZOf/CRCKJvN2mw2Ozubz+fxDM2GDRtSqVTvyXk6QSwWA3uj/rxdFxYWFhcXVVV1faAAzhv220DiQdO0cDjszdQ7TDHQNL19+3aGYViW1U9S/uAHP3jkkUfqffZ973vfxz/+cQ8aCdckIgWI2uD+++8XBOGVV175wQ9+gBByXqCsbyEB2IJQKLRly5aGmwmCoDflCYVCvS3tcRGD2UK/IYpiqVTqxJ4N8qt6QDeR4zgIOd4ABRXM8/3Ly8snT56s96kbb7yxw+36X7CCSRAEktZqDbAFnZ2dJfVbHUIC8O/AsizDMD0wJVksFl966SWE0NzcnN9tsYM86cyUSqWFhQWDP1dDYNzm5HzCpLuX2jeO40BtB0/k11577eWXX8bvHj9+3Oazr7/++uOPP85x3J133glOVciPy4Zl2Wg02qZNh2dEo1Ge5yVJ6kafnL6CBODfIRQK8Tzf1Qt/gdXV1W9/+9sIoSD78mCdCwnDenK5XC6X43k+mUw67As2tVgFNFleemCFw2FYVAoDo1//+tdf/vKXHX728OHDhw8fjsfjb3nLW0B7qKqqw4G+i/A8z/O8pmmWwvWgAYUiisUiCcABp9c8bwkEAoFA6ArICLhr4DgOfHS7Uec1MDAQj8clSVpZWemW8e78/Ly5WCFmbGxM79/kF05UVxhDaT/PMJhbNQWIsGia3rBhA0Iol8stLS1hd+tOACNdWZbhxKqqSl2mQ0d0AshNumJEe+DAgS9+8YsIoW9+85tTU1OSJFWrVb8bFVBIAO4aaJru3slpmG7sLlGGIAg2UqmAlIFqKhlrKO3nJS3/9NlsVu+XKctyp2dVzOEWO3J09Lj2wBRD8LPfSOckE41GGYYhQmgbSAD+Hfbs2bNx48aRkRHLd2u1mt42wd5tFYYaiqL4MgsLahHkzELWrwP5Pqpoing8rle5+65475Pp89OnT3/ve9/jOO4973lPa/4zYLaF80aappVKJZvLtVwuQxFl/cWpKAqMPqEEk5fqcT1zc3PPPPMMQujaa6/1xY2nUqkoiuJQP3/w4MHx8fHp6WkQhBLMkAD8O9x666233357vXdLpZJ+SGRf/hq6gYIg+BKAVVX15rj4QK0taYXMZFeE4UwmMzEx4Xcr/pemVFddzW9+85vf/OY38Xj8uuuuazkADw0N4eyRqqq1Wq3e2dM0LZ/PS5IUjUb1DtVQ1ISiqLGxMR8TUZOTkzMzMwihzZs3+xKA19fXBUGIx+NOAjAUK3z66adJAK4HEWERCAQCgeADZASMkK7+oKU7hCiKKysryDTIi8Vi0WiU4zgwzLJcvMTzPNje5vN5b4akhw4deumll4K8+gghVC6X9bqMwcHBAE5vj4+P663QvG9h+6b2S0tLi4uL+OXo6OjY2BiuA9h2A73AIMJqioGBgcHBQfS79zVN0+Pj45qmFQqFXC5X77OG+aaumHw14Ep1wvbhOA5yCcQYywwJwAjp6g9a5kJVVbVU3MBHeJ63mQ7ElQY8e96trKxcvHgx4Be6oij6Fgbz6QZLP31sQPurXUVR1Ju1CYIgy3K3hF7AIMJqCpZlLTOlEJbspblNycuDiSvVCdvH/una55AA3C6KokApXKgSWG8zfzVZHnDmzJlnnnkmFotdd911vXGnFYtFffRyESc+lFDyFkoXNyv4UlU1l8upqmpof7lcXlpaAq83hmHK5bJ+g4GBgYY12CmKisVi5ge6IAj2kgg9e/fu/dCHPiSK4lNPPWU+FXv37j148KAoij//+c+LxaJBhBWJRGwc2qvVaod+soCgKAqc55deemlqampsbMyX4kiSJMFDD3TO9huPjo6CsObo0aOkWKEBEoDbRZbl1dVVhFA2m7UJwP5qsjzg+eeff/nllycmJg4ePNgb9X1XV1dnZ2f9Orosy5cuXUIIbdiwodkArCjKpUuXzGmbtbW1tbU1juMSiQTP87Ozs9PT0/jdHTt2NAzANE1DtT7znp0H4Ntvv/32228vFAovvviiOQDfeuutDz30UKlUeumll4rFokGENTAwoNdGGVhcXOztACzLMkSvn/zkJwzD3Hbbbb4EYNzfgp6c/ca4WOHc3BwpVmigm5JRBAKBQCD0DL0wUmmfzZs3//mf/zlCCKymWiOfzxcKBZ7nbVJkHMdBwZD19fUODYVhvUQn9tyrCIJw5swZ86y58yFdPXie37lzp3m8COUI29x5+2zcuHHz5s34pb0FeiKRAIdhyxHPwMBANBpVFOXcuXNmvQ8uL7FlyxY8rR6LxR5++GHzMB3uwUgk8vDDDwuC8KMf/ejhhx+uVqsPPPAAbmEkEvnqV79qXhU2ODioX5zj2SLp3/72t08++aSmaQsLC94csSmy2ayqqtVqNZ/PO9mY47hutNvrRkgARgihcDi8devWNncCeRX76U+apuEh0jlZhKqqAVdgBQ1N08rlcifSYjBjap6YCIjkOxQKRaNRhxuzLGsToUHvA/aN5jMJf2EYRh8RGYbZvXu3zQ4huXr06FGEkKIob775Jn4XZnPMn+I4Tn+2JUnyxrCsUChcuHABBcYfzQCcE4dCaChd1eEWEf6Xfg/AUH+w3twtLEVo6tHcOU2W/Z6LxeKxY8dQUOsPwtyPXz0DWZZBlFTvXcu3EomE8/hkSSgUgvFEqVTS/9BdYV9VKBTW19cZhtm+fbsrD2VN03K5HMdxkUik4ay2JElPPfVUsVi0LFYoSdLPfvYzc6pp9+7d1157LX5psN40CJt5nk+lUg2NsXoGlmUhPQBuVt43AIyxZmdnT5w4gRCSJKnbdebt0+8BGOoP1nN1MVhfOaFzmiy850wmY97zysrKt771LRTU+oPlctnHxLgkSefPn2/2oZPJZFpYe6qH5/lNmzaxLDszMwOdJ6ArnjvLy8uTk5ORSOTqq692xXRJVVXoHY6OjjYMwIIg/Mu//AsMK+u9a/77Aw88oA/AeB0OYBgQg7xc07TgL9tzhXA4DA86v7rCYIx15MiRM2fOIISKxWJX3AgdhYiwCAQCgUDwgX4fAVtSz/rKdXie77QmyzNqtZogCL4vApmbm1teXjb80ZB7DIVCO3fubCgzaWGmluO4zZs34z1jC4Lh4eF0Oo03EwQhCDMFgiDo5wWXl5f15Reb0qCtrKwsLi46rBK4urpaKBQMmizMD3/4w0ceeQQPl5viiSeeeOGFF/DLP/iDP3jwwQfrbYydsII5cWsP3GhHjhyBtWoPPvggOO45ATRZ9d61yduZWVlZoSgqGo02XMBGsIQEYAvqWV+5DkVRndZkeQbc0r6n8kRRbDhrANqoTixWpigqEomY92ww1WrqGdc5DP2SarW6vr7e2q4Mllv2SJIkSZJBk4VZXl5+9dVXW2vGysoKdJ2Bt73tbTYb4wJH3QjcaOvr69CFaqq35OLlB0cPiKiwG+n3ALxnz56JiYnR0VH9HxmGgUkvgx+sAZhKwcJm/FlQ7nj8kPWs/mAnqNVqoPeJxWKdcNFiGCaTyeA9cxzneo8nGo1C6HWy58HBwW3btsmyPDs7W+/3omk6nU6DE5a7Ta1HNBo1L8PjeT6fzzcMVJbRl6KowcFBfEI0TQMjJPwSNFl441QqxTDMnj177rvvvra+yWUOHjyILhc4AvdTfU6LVIn3hZGRkdtuuw0h9PzzzxNjrH4PwLfddhtcDXo4jstkMgihlZUVmwBcq9VqtZpBIMqyLHzWYzyrP9gJisVisVi0d9VuB47jtm3b1tGljalUql4ZaTMbNmxIpVKVSmVxcbFeAGZZdtOmTV5241KplGUicX5+vrUdMgwzMTGB7w5ZlovFIv6+hiQzwzBQtdfylmwHTdPm5ua6d7DbY2BjrIWFBWKM1fWZTwKBQCAQupE+HQHjRHH7E4GwxhQhNDExkUwmvZ/NPXTo0LFjxwIy/F1aWvrSl75EUdSdd9751re+1YMjGlRXmUzmwIEDhm1omnbrd9E0zXLMOj8/v7KywnHc9u3b6w21VVUtFAr19tBLZLPZkZERiqKcj+BVVT137hz+mWiatpRoNUUul1taWnIoDSO0TKVSgTRJJpNx/pN97GMfq9VqJ06c+P73v4/8W53sL30agCmKgtDb/nNZ0zRIoRgmgz1jeXn5woULAbl2RVG8ePEiQqhlOU+zCIKgV11ls9l4PN7RI1pKh0RRFEUxFArZmGzApdIPax85jmt2NkHTNP2kbD2JVlNIkuS7LL8fUFUVBChNXduwAGRhYQEexb1RQq1Z+jQAp1Kpm2++GSE0PDzc7Gfx1QYxj+M4mDmr5+bhFn7Ju4IJJB40TYOhP5ZZwXMfvwsbG0RYzWLzWAEdu17e1bDZeG+d6zPRNJ3NZmVZNhQcBOsJhmE6lKfBqitDH6hSqZTL5aZMUg0Srdbo+ehrqE44Pj6+a9cuvxtFaII+DcCjo6P3339/a5/FlpBAKBRq30faCX7Ju4KJwdyK53m9zMrwbjgcTqfTrYmw7DPGEGxwPGNZ1ibMa5omSRLemyiKHfKkZBhm06ZNCKGZmRl9EEqn0+YCBu4eV6+6wqyvr+vrHjqhtXXA/QauTvjjH/+YZdnbbruNBODugoiwCAQCgUDwgT4dAQeNVCqVSCQkSdLbCDike+sPMgyTTCbxkLGpEWooFLryyivxSyyzAk0WtpgYHx8fGhpqSoRlGPLSNJ1KpeqNaymK0u9ZUZTFxUWKoqrVarVapWl6YGBAvxBWv+dQKHT99derqjo1NdXsAFHfWpthdDabhfL10Ib2DRNkWdYXHGQYZseOHThRLIrif//3f5tXlSSTSb0RmIFoNGqeMDYsGvYMWI5snnSo1Wo9n9Bun9XVVZqmI5GIc2Osq6666gtf+AJC6JFHHrlw4YIsy321PpsE4EDAsmzLeuzurT8IKlkc25qamDRPNAIGJyye51vQZBlCmr6RDT8IgttqtVoulxmGCYVC9b4XhGeEUDu1ge0DMC7P5+Ia6Eqlgn2XWJbVxypVVVdXV82uTAzD2ARgmqbNPQNN0/xS5bAsaz6lDmv59TlwlpqauYeyNAghMKfrB4minr4LwPb1Bw2ArkpRFOiUQWnCTkS7Fuoe4kptwawBbg/HcfBD4CcdPG0hnFAU1ebD16DJaoj+tqcoCopF6huGkWV5YWGh4WNCEARBEGiaLhaLOAAzDDM2NtamAEpRFBjfQzEZOGPYNku/mT6KGBpsP1etR1VV/UgU/KTwu5qmra6u4rvJ0BekKAqm3g2/Asdx+ohbb1weiURUVfWspq8Bw5Vpz/j4+G233aaq6jPPPNOl6SgXkSQJVDLRaLSj7jc9QN8FYPv6gwagd1ar1SAAV6vVDvnptFD3cGVl5dFHH0VBrT9oTyQSiUajmqZBCIHIgTO0DMO0GYANmix7DJlhMCKt1wBRFE+ePNnaeCgSiQwNDbWZB5ZlGcyDLl68iHtsHMcZct02Ci+8Bs8JiqJcunSpntWwoigzMzP1PsswzMaNG82arHA4DEN/GyiKgm1KpZJfq3ih10LTdMOrce/evXv37lUU5eTJkyQAQ+8TIcRxHAnA9hARFoFAIBAIPtB3I+AWwEUDJUnSj4DB0bcHChn1EmNjY9ls1qHqCnK5BpmVOQEOfzl//vylS5dUVYVx565du7Zt24a3gQo/hv0zDAONgZe1Wu3o0aPm8Vwymdy3b5/hj4ZxqqZptVoNcgaw582bN+vTpIbJEbcWOMF3b3gywfrK/Nn216xHIhGe5/3SZBHaATRZhj/Wk2h99KMfrdVqx44de+yxxzxpXSAgAbgx2OLKkE4JhUKeVaohOCQUCjn3I8MKJnuZFbxVrVbz+Tz+YzQa1S/LBlt5wwdZlh0eHsaXDdScMIs8E4mEkwtJP60LE9WW38UXWrC+cgjDMKAV6E+npK7Gcqam3vQHDHKgvHH/0HcB2LL+oF8oigIzuPZziuFw2CyTNhhydReiKMLQSj8hqqpqqVTSNC0ajXbUVgyrr2EGmrqMYbO1tbVCocCy7Pj4OE3TmUxGH+EMsl5Q9mFfUgNLS0vLy8u1Wg1+LHCkUhRlbW0NvvXS0pLhI6AcNg8g2ve1tpne1s/1gskDaL70nwXnL0OF40wmk0wm6x1REIRarQadBpqmWxsWe6/Jwle6zQAAIABJREFUghPVFYEfDF56oKwQLBxACEmS1A+K6L4LwK4XO2sHWZZXV1cbbhaLxaA+sZ6urj8IlRzB2ws/4BRFWV1dBU1WpwNwNBrVP1gtQ9r8/PyZM2disdjIyAhN05s2bYIyapZADwlkwOaR6Llz51588UX8cnBwcMOGDaIoFgoFkBmvra0ZPsLzvF5XhXGu4bfBMqhUKhX9EN9gY4k/CGaWhqW9g4OD2Wy23uFyuRwE4IGBgdaW23mvyWpfiu8lMDXWAzUnsOEuiPz9bk7HIfOXBAKBQCD4QL+MgO0rGYii6GQkapi9y+fzkiTxPO+6RXMymYTWAoZBw6FDh44fPx5MX56RkZFPfepTZtvqgYGBWCwmy/LKygoeICqKApUcATyLCUIniqJcX8MAi9AcDm62bdsGyWc4/3ihtn6AixcNT05Onj9/Hhqvn6mFPK1hjdni4iIkn/U5QyhliH9r82IhSM1Zthxcps1/hwlU899hbAHnQVXVlZUVcwIT1E+GD2JBVqlUqtVqUPWh4c80MDAA17NhusQ+l245AOqcJqtcLsMKIsvj2o/GXnzxxSeffFLTNH8X5R8/fvyLX/wiQujjH//4hg0bfGyJDdVq1aZ24VVXXfW3f/u3CKGvfe1rZ8+e9aF93tIvARg/ziyfX3g+1R7DDS/LspNPtQDHcTZKouXl5fPnzwdzvofjuG3btpnTjJChNTxw64WNzumJcDR1QiQSiUQi5lbpn8X4G1UqFSd9OABqFxr+CNndeunlhlJky5NW7yP6LgIsGjZfTvaTzeDIQdO0k18Kfn0QchtmlBt+1kDnNFm4slALrK+vQ/fL3yRwsViEZnToueQK9rULsTFWp4vLBYR+CcDt1B/sBO1YX83MzAiC0MMTJIIgFItFhmEGBgZcec5i1VW9sVoL8R6K+uHmpdPpzZs343fz+bxzQ4ZYLBaNRs0dFAP4WAaLK+0y5o9ga6oO+SFomlYul6FbA2dYXxtK3wzcTsPH4T+Wv7Ll9yX0CTAI6Q1lmQ39EoDbqT/YCdq0vgpyD7d9QP4DKiRXdmhWXRlo4RHPsqw+gQbrj/HL06dP62tW2jM4ODg+Pt5wMwhsho6XIY9tACIfjJ47ISmCVDC6LJlmGCYSiZgDsKIolkNDfSbc/C72RyMBuA8Jh8PRaNQyN9NLEBEWgUAgEAg+0Psj4EgkwrKsXtOkJ5/PV6vVHk7n9jxQfzAcDu/cubNe8tPFBCxWXdmni7ds2TI2NlZv9AbLgvFLSZJAlqKHpmkopNh+m2GWFzLwHcpFgyYLxHeW8gWbL4KHv5a3YVPD38HBQfMck6ZpFy5cMA/BseoK6Mb19AZEUYRv8Y1vfCMajV5zzTXvfe97/W4UwY7eD8AwQVXvuSNJUm+nc3seQRBKpZLl6lt0OYHpYg4TwljDdC4WcFkGlVKppBdbaZpmWcLPxWbjoklu7dCAosP8lZ2YWSI35notDbnAbdS8cTuqq2CCfWBmZmZYlt24caPfLSI0oPcDsIvAQ1NVVehNQ8GZpqbW9JUNO9TIIANFfCHeNDwDqqoWCgUYcdpUEEokEiMjI2YvSQgDNhWBmm087AqeceaPm6NOm+EE65uw55RhhzDWaSp5Y9Zkud5BAcxm2nD02dlZPKVH0/TGjRsNHRF9S5y3iqKoVCplrnsIVZkN1a5aAzRBDnsSBCdUq1VZllmWtRQ8HzhwYHh4eH5+/sSJE6h3jbFIAG4CGNZgMzywc2rq4QULYTvWwKADZXoRQrlcrmEAlmUZDBrtS/hls1mzB1PDZ25riiSIEE6WmrQf1VRVhUXSqVQKvr7+AQT9gGYPYdBkQSM79FwzBypZlk+ePIm1hzzPj4+P6+eG9EuoUTM5YYqixsfHzc/xQqFgUy2xKSKRyODgoCu7IgDr6+sIoVgsZhmA77zzToTQ0aNHz5w5g3rXGIv05ggEAoFA8AEyAm4XrKBJpVJ63wYD7au9FEWBlS09oBZpClgL6NAYCwZ5+GUkEgHNFDbWN499cYGBejs0FLf3uCduGKTCPCuyzdA2rANo8MEeGhqCjHezS+PqgdusHwdzHHfjjTeCJg7m0etJI3HDkLNcgqZp58+fN4+5PZvoEUWxWCx2Lp3QLJVKhaKoI0eOTE9Po2AbY/U5JAC3i8OqRO3bZtWrtNMPOM+1Gp7XDksXdGiZrFsYZkadPOWd1xLA0Vpf67p9zD8ZzNSiy8ZYThpWb1fmY5mLPHpJ0O5NeBatr69DF6THtGa9RO8H4N27d09MTECxSVfAtXqgBJj9xk2prsDHANUvmdnPOAw8rc28Wuqq8A7tDZucH1dRlHw+32YZK5qmG2YC9At7nI/JIBOALqsLW2ibqqqrq6ssy8ZiMTAUtDx1WAtmvytQbCUSCUPlx+CgaRq4sveDazGhE/T+g/722293t/4gWCQihAqFQsPnSFOqK5ZlbWq6ETqUe3eoq2o4oGwYtBRFmZqaanOo1FQ9YEVRnKdhGYaJx+NQc7flAHzx4kWE0MTEBARgS68rJ90CRVFAsbVr167ABmBFUZ544onp6WkyxCS0BhFhEQgEAoHgAz07AnZYf7AdmUYsFotEIqFQaGRkBJnyxi56bB06dOjll18OZv1BA0tLS//wD/9AUdS73/3ut771rfU2s6xO6AFNrQ7ytyQ7TdOxWAwSzi3PzrZwbmmaTiQSCCFBENyaFbbUZNnDsiwotmzKgjWLvfUVz/ORSETTtFKphG9biqKy2ayNk0+Q0RtjxWKxgwcPBtAYq2F1ws9//vMIoW9961sXLlyQZdnfyX7X6dkA7Er9QXtAzFmvdKCLxQqXl5fPnTsXKJVHPURRhIJosMivHpbVCQkG8CnyWFuL6x+7uM9muwJYseWitNje+gos88zWOhzH2SxDDzIGY6xgCqEdVieMx+MsywZEZO4iPRuAu4twOAwF3fxuSCAwDDjg//bapYb1jszbt9lI1ExQKZfLlUqlBesM1OSkb/uAorhNWW+5XF5cXKRpenBwUP9TtiBnM7yUJAmmqJ0/i+EbNexzQ3juyeJLIBedmZn5zW9+gxA6ePAgJDkIvkMCcCDAHT0CQigUCunNcaBfoijK6upqvYcjx3GRSMTLANzUk3ptbW1ubq61AzlcSeUWoGRuU++2tra2trbGsmwikdAHYPv6g4bNLBEEwT65Uq89DQf0ENqb3XNXAFMJp06dguzU5z//eRKAAwLJARIIBAKB4ANkBOwyWN7VFVO2XUGhUICso+WIE/RcHXXJbzktKUnS+fPnW6u6o6oqGJ8lEgmO4zRN6/T4zPVihYqivPHGG+C0pV+Ib59AtjzVmqatra1hFzCHYNVV527GcrncdTbFjzzySDgcvvrqq++55x6/29LvkADsMpal5QjtYC9nY1nWRaGsJS1PCqqqWi6XW376wwfxw73T05Ou92DA3hIhBOvmDW81uzdJkpo9kx4UHASf1I4ewnVmZ2cRQsHUZPUbPRuAU6nUTTfdhBAyFOiu1WqyLAdksqfPra/qVSc0RNxO+G9AAGjfW6Me7aiu6gEVgoNjOOycSqViqclyQguqK1fA9QctGzw3N3f27FlFUbpicSCAuyM8zwfQeNW+OuH+/fuHhobm5+dfeeUVhJAsy113F1jSs8/90dHRP/7jPzb/vVgsBuee6XPrq3rVCQVB6PTAxaEct+Xw2Y7qyhK8rK4bHz31NFlOaE111T729Qdff/317373uwgh/cLigCPLMgzWGYYJYI/fSXXC559/vseqExIRFoFAIBAIPhC4flCgKJVK+qFYPB63mW500fqqe8HSIc+S/IVCoVwuQy6h2cSa67OqWHXlxFzaIcvLyzBpB6RSqcB6I9uDNVnxeNz5MpgWJiA0TVtZWZFlud8KdzoEihUePXoUrqv7779/YmLC70b1KSQA22HwsrcPri5aX3Uv2MDBs44IJNZUVTV7GHlPm6orS0RR1JfpjcViLu7cS7Ami6bpTuvmRFEMiM4jgEC/JJ/Pk2KFvtODARgM/DzzLlAUBZ6PnbvhIbT3+djaHoh85gAMNlK40F7nwKor13+maDQKs2LQybCcIesucJciGo26K70WRRFqKZKbpSHYGuz48eOzs7Ojo6O7du1q+KloNMpxnCzL7laPdsjQ0NCtt96KEHruueecV5kLMj0YgEOhEM/znj2nmio42BqCILRTQbYfAJ8sy7+rqsowTKeVn66rrjDpdHpgYABqJvaGS2K1Wq1WqzAOdjcA12q1XC7n4g57GKzJ+vGPf8yy7C233OIkACeTSYRQqVTyJQBv3759+/btCKHz58/3RgAmIiwCgUAgEHygB0fA7SNJEqwu8FfEMTc39/DDDyOEoMg5oQWKxSJIThYXFxFCiUQiHo/TND0wMNDmgHhpaUnfB3dRdeUXkC1ACMHSuHK5rJ97dh1VVZeXlymKisViZqeOpvBedSWKIogNSa7bXeyrE2Ki0WgikeiB6oQkAFvgge2fE2q12rlz5xBCJP/cMjjPBoC7giuGiwZtVA8AmnCKoiBd70GOEXot7c8WQX7ey3u2zWpRhHrYVyfEwFLmHuj9kADcGCzaDODq9cBy7ty5w4cPx2Kxq6++Ojh1fyFqggGZuVVQpdjwR0VR8vm8+VbvdK+Ioiio74TlhOCE1dGD6sEen0Gee/ZYdaVp2ssvv1wul6Fn3BtIkqSq6uzs7OHDhxFCBw4caDMh4QFXXXVVNpudnZ09duyY321pCxJRGsOyLEgPCM45evTo8ePHJyYm9u/fH5wAXC6XYdGwpfwHin4b/ijL8tTUlPfDHZqmU6kUHqxjJyzP4DguHo+rqgpOkF4e2jkeq64URfnhD384MzPTS0t3INVx8uRJKFb4uc99LvgB+K677kIIHT58uNsDcFCejAQCgUAg9BX9MgLGVQKDMLmLEUURFAfJZDIajfrdnH5BURS9Jgv/vVqtmkc2kKDztH0IoctltXxMHng26oU1LRRFZbNZ32d5cDPcrcwYfCRJAlnZww8/HI1G7YsVRiIRqC+5urraIfnh6uoqTdORSCSVStXbBtzFEUKVSqVLXc/6JQDjuf1AgWsX9oCaoIvAp93Q6bEsN+uj1qZPrgo47TRNByTRzfO8ZzY+wQHLyqanp1mWHR8ft9kYl47u3Np6GCnZd8homoYNfLfAa5keDMC7d+/esGGDvgC4c0AiG5A5S9B2Ir9XQxH8Ajzd/Dq6qqp90gMgBBZZlmGtQSQS6cmcRA8G4Le//e1gV9YC0Wg0Go0GZHlJd1UbJbgL6J99fOj4lXsnEDC4Muno6GhPBuBADPUIBAKBQOg3enAE3AIcx8FUP8woRCKR3bt343fxCpCFhQV9/e1YLGbj1dIOhw4deuWVV8jwl4DqzEx3FI7jKIoSBIGYPfUh4Bz3wgsvgD70Yx/7mE2xwkwmo2latVrN5/MdbZUTTVY3QgIwQgjRNK0PpQzDWBZ9Mzhkde7BtLS0dPbsWWK1Q0AIeVzbB+tZVFUlV2AfAr29tbU1EKDYG6LBY9ODpSVONFndSO98H6yIc123Isvy+vo6IoUzCR6iaVqlUqFpGitOiRaPQNCTzWZvueUWhNCRI0e6tDhSTwVgGLa63kuq1WqXLl1yd58Egj2qqkJaL5lMQjlCqAfsd7sIhKCAqxNevHixSwMwEWERCAQCgeADvTMCdgVckQ2wXBOM7VdqtVq1WsUvW4DjOCj91ntzG0GGYZhsNovnLAhBoLXqhLFYLBQK4XKEHW1hX6E3xorFYgcOHLAxxvKMesUKu7c6IXkA/Q5Qkc1+G1ygplqttqk+wHWWCF5CUZRlMQaCv7RQnRAmyFVV7V4vpGBiMMYaHR31u0UI1S9WCJ3pbpTr934ArtVqsizXi5RgfdXUSEhVVVAGdk4UI8uyKIr9I7oJhUJQeKfTNf54nud5nmGYLnpeVyoVURQpiopGox40W1XVXC7XXfVu4eQoiiJJUvtKyUqlwjAMlI52pXk9DxTOQghVq9X+eWq5Qu8H4GKxaLOgFqyvmtqhoij61cCdQBTFvloEHIvFYrGYJEnVarWjOqNYLNZ1lSXX1tZKpRLHcTt27PAgZ64oyvT0tCRJsVis5bkVj6EoKp1OI4QKhUKbAVjTtLW1NYTQwMAACcAOCYVCcK7m5+dJAG4KkoUjEAgEAsEHen8E7CKW1lddlMzsW1iWzWQy3aW6UlV1fX3d+4oILMvu3LlT0zTQGHp5aEIAwcZYCwsLqJExll985CMfqVQqp06d+v73v4+6qjph1zyPggDMDPndCkLTdKPqCmzXvNeV4MlmVVVJACZAJMvn8yCjsTfG8gsonri6utp11Ql7JwAnk8kbb7wRITQ0NNTsZ7H4Gf6lKAp+QviXpmlQZrZQjkNVVX3Baux5GQqFOI4zDMiKxeKJEycQQlAuntA+cJ67S3UFMAwzODiof+lxlXiO42KxGDj9emAAQlFUJBIxmMI2C6iBoM3dqIntdqLRKMdxsix3Ok5Xq1VZllmWbUozH0B6JwCPj48/8MADLX/coPnUh0aWZZ0vTDRgUGxxHAfPl0QiAbpBPUtLS9/85jcRQp0WA/cP0Wi061RXAMMw4+PjPpZgi0QikUgEFn54kNADIVWbGSZos6Zpc3NzJAB7D9xrpVKp0wEYvIFjsVi3B+BuSsoRCAQCgdAz9MIIOBKJsCzb7GqiTlMul0VRxLk7EHB1XSKU4BeapgmCAMIxlmU1TdNfTp2Doii4UGVZlmWZjCMJyGSMtX///nvvvdeVPQuCUCqV8EuwBGhtV3v37v3c5z6HEPrOd75z/vz5rjDG6oUADA8pH5N1loAtAH5JBFyEZoHgh4OuN8UYcB8Ryj+QChAE1EljLFVVDc/JlneVSCRg5Xo8Hu8WY6xeCMCdQxRFGAfYbMMwTCQSQZctt+x3iDe2XA8DoxxECs+1Aaiu8Mt2FD0BweO6vPCoBRW0ZwcldAugzJ+dnX322WcRQvv37zfrY1w0xur5YQwJwHaUy+WGeiiWZaGgwsrKij6XYr+xJaqq9pUBVifoXtVVPRRF8bhD5kF9dUKXAuqqU6dOXbhwASH00EMPmQMwNsZaWFho89KVJEkvYg2Hwz0WgIkIi0AgEAgEH+jZEbAoiqurq6jJ7rxl/UGHJJPJRCJRqVQuXryILqeRcbHCwcHBeDxeT4R16NChV155pZeGv7VaDRytvZlB7JzXFcMwIyMjCKFisdgww+EiYB7iu7JBVdVOO5/j+oNu/XYURQ0NDWmaVi6X3W08wzCf+MQnRFE8fPjwE0884eKeCZbwPA8u38ViEUrUgFN3IpFgWbZedcIPf/jD1Wq1K4yxejYA48JVTYEtOFoAciOSJOlDPq5diNMyliwtLZ09e7aL6s80BPQ7nl33nfO6gj0jPxZn0zTdXe5drcGyrOtlD+Bx3H5lJAMURW3atAkh9Oabb7q7Z4Il+BaAf7EzK/7Xsjrhhg0bEEK5XC74xlg9G4DbARccbCEiGmZ5GYaJxWKoUe++3+oPWkLTNNgYCYJgk7fged58MhmGAdWu4e+G/lC940YikcDepX7pkCmK6vbwj9VAlrRTu5BhGIjxkiT1oUocG/ydOHFicXFxeHh4165d5s1ggaj9eWZZFnSpgiBAlx3WDhn60zzP0zSNNVmiKKqq2gOaLBKALZBlGRIdLRAOh7dt29bspwRB6KX8c2swDJPJZBBCuVzOJmpGIhHLp6qlatdJ3phl2fHx8SAHYF9SIyzLdnsABmOseu+2U7uQZVnoWBcKhT7sN+O1IU888QTLsjfddJNlAMbGWDbnmeM42CyXy4miKEkSuFwNDg7qs8pg81Cr1eDJAOmoHtBkdfcNRiAQCARCl9ILI+A//MM/PHjwoE1XtyF4ptZjZmdnH330UYQQaPoJNjAMk06nKYoCXZKmaYqimLN/LcjoFEXRV7/Aei7DZolEIhqNyrK8urra22tkOY6jKKpSqVQqFcvEvpe0L6QCl2mznC0UCukLt1SrVS9Fdr0BFCu0d36ORCJjY2MIodXVVX1lGntSqRTkGPRUq1X4HQ2arEwmYzaFxsZYX//61ycnJx0e12N6IQCPjo7u2LGjzZ34koGs1Wpnz55FCJH8c0OwRSL+i2VgaGFCDmad8ct6GUWwhPRdltxpYOoXjDhcFzG1gCzLbTYDvou5R2WovOQ8NhAwcLPYJ+EZhoG7pqmeMcuyZhcdRVFgpGTQZFne9fF4HOJCO2OzTtMLAdhFnFhfYSxLCjYF1jL03ogKZhBbyysY/GDtNVkG8IgNblGe56PRKNSnc76HcrmMI73vEi086O+xucZ69QcNmh0X4yKuOmoALhWO4/BEY8P7cWxs7Oabb1ZV9fDhw51ephV8lpaWbIyxHAKL7hRFgV+8UCiIoljPGtqgyapWq7AE0bI4EtSg80tLYQ8JwL+DE+srjGVJwaboYesrnudDoVBroSsWi+mzT/aaLAPQKcYKXpDhQIFSh4NjRVFgBTngu0QLBhDQseglwW29+oOVSqVlCaQ99dbFQcodFgpqmra8vNwwAO/bt2/fvn2yLL/22mskAJ85cwbqqH72s59tOQDDLQ/+AQihhYUFdNk+wbyxQZO1vr5erVbrVScMh8OxWAwGV621rXMQERaBQCAQCD7QxSNghmGgH2RIAufz+Wq1GvCk7qFDh06cOEFEHzbIsryysoLLsBjAujlFUTr6WxskWjRNDw0N0TTtsTFWL2GwvjLIrFzMtOMVa/Yz93CB0TTNMAyMyzVN6/b1LV6CixU++uij8Xj8qquusixWODg4CJNB+Xze/C7oquzvZayby+fz+qxYqVSCHJVeVdcVdHEApigKbmDD3H476+s9Y3Fx8cyZMwFMiQQH0EbZJF3hlut0ctgg0QLbJpqmvTfG6hkM1lfty6zqge0y7DFcY3qZD8EJhmKF9aIgti6xfFeW5YauJlgxYPh14Ojd+Djt4gDsCgaJh5OfEJcUbKePTKyvzKiqWq1W8R1oODmapsGaB4MTFp7uNfSd4SV4i9I0DVIsJ8ZY9mCJFkVR8Xjc0GYvcaLHDvK0MQyGsA6xo9hoZfXt0cv3CL6gL0fdcGOGYWDSF4yxZFmGpFQkEtHfHVdeeWU6nV5YWDhx4gRCqOE420v6PQCXy+VmZVD2JQUdQqyvzCiKAjnneu9C5iqZTOp1GeAWa1iuirvkoGCiaTqVSiGE1tfX2wzAWKKVTqez2awsy3Nzc94HOUj/NBz9O5f0e4+mablczpvmWS4ZN4DXtIAmy4NWESyBk+/knuI4DkZB+XxeFEVBEFZWVhBCo6Oj+gB85513IoR++9vfwprPYrEYnABM+noEAoFAIPhAz46AeZ4HY2FAEIRcLudje4CZmZlvf/vbCKHz58/73ZbOcscdd9x88808zzvJlBYKBShc6KTbWyqVwBAHjLHcaGwrFItFL42izGZtoig2PF0OJ0HNx0IIxWKxUCikqura2pq7cyWlUgm8kwI1BQMiLBTs4jk9TCKR0DQNapiiyxMB+LcwaC1BxCcIgl6+J0mSjTFWMOnZAEzTtF7oEZCZsFqtdubMGdQH1ldDQ0M7d+50uHFTMhxFURRFcb3ub7N4n93Vz006XBbcTn1ryN53onsBv6Dru22TdkqREtoH7uh6F4bhagefH8PG9sZYwaRnAzCmVquBvs7JxiCMMgRvVzh79uzi4uLCwkKvWl8BeKDmUCIECqYW5mXNmiyINIZhdD1jLOe+HN7D8zyYbsJDB4whDds4bHz77j9deqGGw2HnRmyGwRY4YWFLTrDrqvfZILsseY8kSaqqzs/PP/fccwihq666qmVfjqZwYoyVzWZvuukmhNCxY8fAzj0IP1nvB+Biseh8uFmtVqvVKrg4uduMZ5555vDhw7Is9/bYl6ZpJ/WPAXvVVcPP6jVZeE2aYXRVzxjLfoGTv0Sj0VQqBXJrTdPAg9qwjXNXrzbHmkHWUdeDoqhkMuk8RwLLf+H/mqYVCgXcI6QoamxszCaNH4lEYrGYIAhBeJr7DswsnDp1CqrLtGOM1RRgCCEIApQytDTG2rZt24MPPogQ+ud//mfw2wrCT0ZEWAQCgUAg+EDvj4DbIZVKmSfzyTLBQGHQZOFVSUHo3rYJTdMwgrdM0VtOWLYz6WsJ5A9c3GFHMVhfYfPnejUY9KorXI5Qf+VomrayskJRFHbvIrRJJBIZHR1FCE1NTendbBKJBFRASqfT6LIxVrFYhEqCo6Oj5kexvTFWtVqFn3JwcND1jKZbkABsR73yGoTgYNBkdVG0cIL9mkjzl8XJ9v7EoPq219UbVFe4Do8B+GNgn+BdB65OaOhZwi8FHWh0+drGUkfLmRR7YyyapkHaGWQdQxcH4GQyecMNNyCEDLYY4XDYvGbDHlz61PVhU7FYfPXVVxFCs7Oz/WB9FYvFbrjhBpqmx8fHbTaDCoMdPRsGTZbBGCsSibhijOUiFEVFo1GQlcFfYCjvcHUW4OKyqK5WBdurYeHaMGjvg3MldDsOq6zyPB8Oh7FyShAERVEYhrF8dOPMFvymcJ0bLlGapvXGWCzLQjrEoAbYt29fKpVaXFwMgjFWFwfgDRs2wKS6gUQikUgkmtqVLMswe+86i4uL//Ef/4EQKpfL/VDxO51Of/zjH2+ofzH477uOQZPVOWMsF6FpenBwUK8ex2WAnfdU8EqM9sEjlW7E3voKVFe1Wq1Dd32fg4et9pdiLBZjGAaXFIR0dDgctgzADMOwLIuly3BHgNQZb2MwxgqFQpaWhXfddRdC6MUXXwRjrFKp5GMA7t9sFYFAIBAIPtLFI2ADoijq66hjnGSVOY4bHBzEL8Ph8PDwMGqv3EK/EQqFeJ6HNUj1sK8w2A6wogkhFI/HoVSGJXhVEnScYWNFUdbW1rxcbJNIJMwnyjB9ixsJf/dSVgYu06BR0jQ1XaOTAAAgAElEQVRteHgY1kRBybkAQlFUKpWC0wXDKRvVlaZp4O3V1LinXC4LgkBRVDabxaMuhmEeeOABQRB++9vfPvXUU7BZkGccPeaxxx5LJBJXXnmlZXVCwKC6CofDINHCM7iAfVItmUxqmobvoEqlIopioVA4ffo0QmjTpk32zyUf6Z0AjOdxW0A/8YYuT0641K5+AXJE9knLhhUGWwZM7FAjd0PDoSHLKssyRVFeBmBcxcUeXG8R/8ebRlK/C+iPAl7iE/xY7NP1+ExKktRsbwb2DO4o+h1u3rwZIXTp0iXcW2rxC/QiUJ3QvnSNQXWFbw2wN8Gb2Z9YXEESnj94jh+6jEFW3vROAK5HKBTSD2TBGMv+I4qiwIKEcDjcsuVhn1hfBQ1RFCuVCniZYckValSs0BtNlllm5fBTMAKGh4tBVuYKcIpqtRqYi+GnmOGppy9CBYAfmS9OHeB1ZVDlOFRddZ21SD8AvvGqqkIqq97SO0vDOwPJZJLneUEQIACvr6/DlLBeG5TJZG688UaE0AsvvABH9IXeD8ADAwP6/MPy8nLDACxJEvwk2WzW/NBxyNNPP/3ss8/2vPVV0AAvM5ZlYRKhqWKFegukTsAwjEFm5QScl8ayMog0TamjGzaMoqhSqTQ/P19vm/Hx8YmJCcMfIe3k/ZJr7HWFh7z2KXqiugo+8JSu1WpQqCaVSpn7qXhexv4+HRsbQwjlcjkIwHBVDw4O6gPwtm3bPvGJTyCEZmdnfQzARIRFIBAIBIIP9P4IGMASrR4wSAomd9xxx0033RQKhSxHeE0VHGyf1jRZYB7roiaLYZhMJoOHsK64ZOA5M5Zl4Xy2nIuG9iiKcvHixYbp95WVFb0IK5PJDA8PUxQ1NDRU71yBjVRrM3AgdzJfS/j7Oqnh4XqFwXrGWNddd92mTZsURfnqV786NzfnyrF6AJjRAINoM4ODg6qq1mo1MHUHksnkhg0bEEKzs7Nra2tY17m+vg5yBP1px1YeIBvEcxCQ8BgYGNizZw9C6NKlSzZpyEgkkkgkZFmuVqvufO1m6JcA3I5Ei+CE4eHhXbt21Xu3qYKD7RMQTRY8MtxdTYtjCfwHlEGt7Qrik6qqoBq131gURf02kM3DEi1L2rGxhJly8zIE7C4pSVLD36gTXiJwEgzZ0VQqlUqlFEUhhll64Jeq10GEc2i4Q1mWhUsLOlj43oFAa9khg3/NnnF4V/Y3IF5h3NRXc4uuDMBQDNKhPAoKz9l3lrF1C8dxbj0uwdkuyAI8V8CmYwF3QLTRbuBBlUGThd9tuXYhxDYcA2DP7oYE+1F1pVLR9/2j0aheD9FOSyqVCowFoXKi5TbtJDxA3oVvRoqiwOGuNacRqDDogekKqU5oZmlpyXl1QlmWQQAbj8dtejMGkzhLYywDoihCViyZTAZnfWlXBmBYcupwpVCxWGy4flFRFDBmGhgYcCsAC4LQD/IrXH8wONe0GapOsUKMpSYLv9Xy0ilVVfVr01mWHRsbc3dAbN/vWV9fn5mZwS8nJibcqiiQz+fz+TxN0+l0uhOGWbBaF7+kKGp4eLjhQqN6u1pfX/cmIpLqhGbOnDkDboBOqhMKggCpMqi+UC6Xl5eXzZthN2kbYywDpVIJQvvu3buD87AK9KiFQCAQCIRepStHwEFmZmbmO9/5DkIIxPQ9z/Dw8Cc/+Um87McAWF8h/5zuDcUK7Tc2aLIAEFLhl+1ItCRJOnPmjM1n9clVjuO2bdvW8jJ0YGhoKJlM4peW649Zlt25cyc+tKIoFy5cgBlWfVMt83uqqoI6JhwO24jd2gFXGHSiusKAKqdarUIWyvWZoEqlAo3RG2MRLJEkycYQA1tf5XI5sxABvws4nDSBA+F1wGC2JYqiZUryvvvuq1Qqr7766mOPPeb0K7kHuXRcplarQQHLfsg/I4RCodCuXbvqPYNA++aj74GhWKE9lu00+Ga0I9FSVdXe+V3/Fs/z7Z+3UCjUUBYEml78Er6g80NADrBzOT1cYdCJ6goD3QWs7XAdS2MsgiV4ibblz4drflhOphgqgmAJXsMjIoQURQEBNiwcqPdLwep2v5YC904AZhhGb5qhKIoTWTkUxet5qVQnAClcvScvLjgYKNehesZYeswLe/SPhtZss6A+jI1VU3CgKGpwcBAMZPSdSBiJwpDXm/sFvK44jnMe5Dohe3YORVEHDhyYmJiYnp5+4403UJOdhp7n5MmTa2trQ0NDlsslIpGIIfOkf7darcLDBC4GWFxgMMYyqCkN++d5Hkwx65U7hH6ex9UJeycAcxynNx2t1WpOAnC1Wq23TI1gD8/zoVCoXuKx0wUHW8PSGMuMXkFjkBm3ZpvVRYo8hmE2bdqEEJqdndW3OZ1Ob9y4UZbl1157zYMArPe6ci5owgt/fYGm6fe///0IoV/+8pfT09MIoUKhQDr3mJ/+9Kcsy954442WAVg/V2JmfX1d/6CGNeJ4tkiWZQjAcKnABIRhD/F4fGhoqN7+GYaBPJDH1QmJCItAIBAIBB/onRFwU9jrAlrj0KFDr776Kq7aRnq+vQHW/sAKJfx3F22zDHKnK6+8cu/evTRNQ+UG+KMsy+fOnfNyccvQ0NDAwADLsvv374eFf6FQCE5FtVrFizqA9leBUxRlWNHUguoKfzCfz3uQSwRjLPil3Frf1beACCscDkOGyfCyBUKhEAx58/m8JEnVanVhYQEhlE6ng+OX0qcBGDsluThptLCwMDk5CbN9ruyQEBDwYn/9H0EeAkocd+f5EokEuPHpEUXRY6sT/jIbN27EEw2iKCYSCXAOctfaDBxd9LOALaiu8EtRFL25DbGBjwfH6m1EUazVargHZnjZAnhaF8s+IIkdKN1cnwZgPZqmQfU61Mi0jKBn69atW7ZsGRwc1D/4VFWtVqtNjV26BcPMsZOuG0VRYH3FsqzZN0ZV1Xw+j/fJsuzWrVtx/dRqtfrLX/6yVqvt27cPLG19QVXVhYUFnucTicTAwABN06Ojo6IoGowyWgBsLM1G2Z4ZhneO0dHRG2+8UdO0Z599NoBKiG4kEomATSx0+wRBgNUNlivrLI2xWJa1ecj7VZ2w3wMwNu8mGaRmufnmm++66y7DH2Hhb7c/QC0xmCAaFkhYAmuI620miqJepBMOh9/xjndEo1F4uba29td//ddLS0uf/vSnfQzAsiy//vrrCKEdO3ZARnrv3r0IIUVRpqam2tkzllkZ/u5wqUmQ2bdv3759+xRFOX36NAnArgASLWyMBdN8kUhkcHDQvLGlMRbOSFuCqxPOzc15GYCJCItAIBAIBB/owRFwPp8H73X9HzmO00/ml8vlXC6HEIrH4zzPG2bXeJ6HjhVM7YiiCBsnk0kbu59arVYsFnty8KenK8yfPYOmafDJomnanJG2r5TAsuwVV1yBL5hQKKTvsGez2ccee0wUxY0bN3ag4U0zMzMDdwFQKpVGR0dbKziIa0JgR1+3hrygDkOeSyCxMVYmk9HfF9FoNJFISJJE1joiZ9UJW5sEhHRUvQspmUxqmuZwzx5XJ+zBAGx5ueMJeQDrR7DPjmFj/Ywdnr3XG32YaWrBYveC194FvPyRN2CfLING2gk0TeuvKENZIZ7nr7nmGrfa2T61Ws1wW4XD4dYKDhpuOhcnfaEEmSu7ava4lnI8lmVhKbP3TQogcB7qnQ3L2VyHwEVY71Jsqlybx9UJezAAG+B5Hm4DeFkqlUBf53wPeI22paNhsVg8efIkQsiyakf/EEzrqy4CSifV66crihIo9SYmGo0qiiJJUsPIh1VXeIwI36hXLxhsjDU1NXXq1Cm/mxMUlpeXjxw5ghC68sorbZQ3oLpiWRZSGpIkwUAIHt2QtlQUpVKpoMvGWIY9GIyx7H2y/KL3A3AsFsPCFoTQ8vKyPpPmBI7jbGbvFxYWvvGNb6C+MX+uR6lUalj2kWCDLMsXLlzwuxXNQdM0TNasr687CcAG1VVvd9ewMdaTTz5JAjDmzJkz8MD8m7/5G5sAbFBd5fN5/QWWSqV4nhdFEf4IxliGPRiMsTRNg8F3oIpnkCwigUAgEAg+EKC+gLtwHAd9KINWaGxsTD+cxeoJAGRWTU3mKYrSV9ZXUH+QYZiRkRG/29I0wVziMjw8bJNiWVpaCv7sRiwW07sLYT84AMrUUxRlUF21P/zF5s9BSCrWM8aCVdQIoXK5HMx5hN4GZugd+oT/0R/9UblcPnnypDfVCXs2AGNvDQMGPwRDTRuO48yGCfbgREefEAqFrrjiii51LAmmyUMoFLLJxa2vr3vZmNbQyyyQTuSI39XfjC7+CoGaz0N1jLGwbjFQTe0fLJ3s6gHVCVdXVzvbpsv0YACGCGqf6MfC5nZi59mzZ5eWlmZmZlreQ3dhWX8QW1/52wvRNA0KDxvsDDmO4ziuo4LtlndO03Q6naYoSq9RMBONRrPZrME2ywOi0ahNw3Cte0s4jtPXGMYC195WXRGcgIs0218GUH8Q9+QGBgbAP9hGaGJvpoZFWNgky6Y/5Fl1wh4MwIlEIpFI2IcESZLaNNJDCP3qV7967rnn+mf4a1l/MCDWV4qirK+va5oGTsX479Fo1H7xWJvgtGoLgPdkw+XUmUwmk8mIonjy5Ekv19ik02moS2iJoVihAUPwxjnn3lZdEZyA3fLtJ4MM9QfHx8fD4fDq6qp9ANZXJzS8q48IUJbU5s5lWdab6oREhEUgEAgEgg/04AjY0Ms2LKB0YphArK+6DoZh0uk0umyuxDBMKpXCPWJYgRDwX2p1dfUv//IvzTO+99133wc/+EGwzVJVtdOaLJZlt23bxnEczNqur6//1V/9FT5iIpH4yle+Mjw8nM1mE4mEoijnzp3rvcIb7nLttddOTExomvZv//Zvc3NzfjcnKHz3u98dGBjYt2/fvffea34XjLFqtVo+nze/m8lkYrFYvXe7iB4MwOh3ZxdaUHwQ66uuAztS4ZehUMhQpsmPdjWBIAjHjh0zB9dbb70V6WyzOq3JoigqHo9jzZQsy8ePH8dCh8HBQZiWC4VCoVBIlmViiNaQVCqVSqVUVQ1OGdogMD09zbKsZTUFdFk3UC9NDWrZAK5oaJbeDMAtIwgCRVGKothbX8Gyei+LZhBaQ7uM3w2xQFXVXC7HMEz0Mnfffbe5eA6UQsIiLLD+6QTQBlzl6Y033njttdeKxWILRzScc0MhqXYwaGfw/8H+vVqt6i18WZb1xbFclmWYIDesaeQ4jud5VVVJxx1dNreyPxV4LtYwX1soFKBctP5dfNVZ3u/4ygmUFp0E4N+hWCwWi8VwODw6Olpvm/n5+a9//euo762vuoJgLvwFZFk+f/48Qmjjxo3RaDSVSv3TP/2TzcYXLlzoqAhrcHBQX/jh5z//+Ze//OXWdoVdhwBYiNlu+xBCuoW/hsOtr69D2NOLdGKxmC8BGPcDxsfH9YkZWA8tCAIJwAghyDIaVqwZqFdDEDL5mUxm+/bt6LLqyl54iyekAgVJHxEIBAKB4AOB6xG4Be4NQTrCle7PoUOHTp06BaNk1DfWV5jf//3fv/HGG8FP3++2NABWB0GJQJvWtl/hAF9msLBBkqQLFy7gC4PjuK1btzZcp7S0tGQzswuGt6qqlsvlNnPpPM/b1JxZXl4uFApYhPWBD3zgrW99q2EbjuOGh4fbaUOz2C8XgdOuadrQ0JCmacViUT/k7VK7mL7itdde+8d//EeE0Ic+9CGbZW/AwMAAzMhMTU1VKpVCoXD69Gl0+SEfj8dtMpfBpJcDsOFp1X7qf35+/o033sDr2PqN0dHR3bt3+90Kp1A6bLZp/0CGyc5SqYQvD57nnYRMQRBsEnHmOoAtY98HhWZwHAedkg0bNmzYsMGV47ZDQ68r2AD0TaIotlPVjuA9hULhjTfeQAg5kRqArw66fCWbfQwDNb/rhJ4NwPbgCoNNzcfIsiyKYr8NfOsBp85yzXu3YD8+tldvYWMdbL6jqqr9qYDhcrOny8XrzUm5XJCGmadOYf4Sv6xUKuCjvrKygnsPUO8IhqR4b6hJ6yscceHEwhjXZmPne/aearUqSZLBiZOgBxtjnTp1am1tLZvN7ty5s+GnBgYG9JcoaLJEUQR7pXg8znFcQ/Ul1mT5eBX1aQDGFQaXl5edB2BBEIjwCtMD9QftH+720iFQ9uIQDpHGPlhqmlapVHzsrxhGDJZQFHX+/HnzadmwYYM+AK+trV26dEmW5bNnz+IAzLLs7t279cGmheXXOOcMVeSa+mzQgHiQSCRIAK4HTig+8cQTLMvecMMNTgLw+Pi4/uUbb7whSVK5XIbn844dOyAA2zzb8RXurzIr6JN5BAKBQCD0JF05Aq7VaoIg6Bf8OadYLAqCwPN8JpOpt40oigsLC+iyE9b09PTjjz+OEDp79mzLbSZ4QyKRgMp37a89NYyPLRVbmqbBmNKJw1pXoGlauVw2Dz0vXrw4Pz/Pcdz+/fvD4bD9l22q4GA9mVVTuXeGYaCsBcy7r66u9qdQo3upVCoURR07dsy5JguD54P0UBRluQjNMA0El5nB1P2KK674zGc+gxB65JFH3nzzzSa/ShN0ZQDGxu4tfFaSJHDbsNnG4IRVrVZBJkDyz8GHZdlwOOxKdSbDRVLvmmmq2FlXYHlnwSpbCG8NM8NNmZ/Um4Rr4ZRCVUQnLSQEDbjq1tbWnGuyMPWcNyw3pijKYJVo3jiRSIDg1L5SWft0ZQAG1tfXjx49ihDatWtXJpMx2KAY9DX4/ELn3X55PsMwTmoaEgKIoS/cjg2WITDAoiakExb1UtB1iKqqq6urpVIJOqMURaXTaWyD4LDmuQHL4YtD8G8EDQhaeWA9FEXt379/w4YNU1NTr732mt/NCShYk9XUJZFMJnmeFwQBVCmgyQqFQolEwrwxxAV8nTRcK9FRujjAzM7OgiPVn/3Zn0E+Wd9zr7fwN5FINEwVYokWoesweDC144SFTRkBKIeMx9Yuujt1EVB9Ad9BDMNs2bIFtXee25kswL8RHL21HoA3UBT1gQ98ACH01FNPkQBcD4fFCg3AejlcrBAmEDOZTCqVMm8MPUX8EiYv2mx2y/TCrBWBQCAQCF1HF4+ADVQqlampKfwyEolMTEzgl3iO3b6zA6qr3lDTuAVN07D+xBdbXYd0ov4gXmgE+zS8hDkOPCDGw7itW7cihFZXV6GiZY+hKMrZs2fx6IRhmK1bt+ovDPuFzrCyqH0DMgz+UWAcg3+OdDoNtRkCqNvgOA5So+VyOfhFuvzie9/7XjKZ3Lt3r2WxQifok1X6axLmkhxGhE7TOwFYUZRSqWSzgZMTDVWu3GtUL4BDTpD7JZ2oP2gIJPil5fp9rDwA4Z65qFFvABppvJiYZVnDebafGnd9vg3LPnA9HPg79AmCWaiYpmnch/O7LcFlenp6fn4einy3Br4UDXMcTjzyPKOLA7CmaU6m65s60SCQpmk6Eom40MSeJhQKwZXd2nowPTzP60dRoig6f3RyHMeyLJ75c73+IJYIGS4kPAI2iCqBaDSayWR6wEoCA7OtZm25Ewswg1SqE+I1GAcbfiOO4yB5U61W9U8JQRAgZnuT1KlXnZBgg5NihQZCoVA2m0WXI4LeN0aP/o5GxAmrZRRFgcva/keydzsygMsRkgDckHg8Ho/HRVGs1WptPlLj8fjAwAB+mcvlnAfgaDQKg06gE/UH4QIzaLKwA6XlRzKZjCs6vlwuBz5TDMNkMhlLhVGtVgPHJYRQPB63VH4ihNbW1mBxnc2ubIDkkCzLhrvJiRgNa6OghmtTx3UItMHwG0UikXg8rmna3NwcDsBQs0GW5Wg06k0ArledkGCDk2KFBuLx+I4dO1CjeRCs14OX/i516eIATCD0PI8//vipU6cQQqlU6rOf/WwymTRvMzk5+bWvfQ3+f/fdd99zzz2Wu/rP//zPEydOIIQSicRDDz3UTnKPQCC4Qi8E4J/85CfPPvvsxMQETNfPzc0VCoV6y5AMpFIp84jB3McHdTtRTLhFLBbT5xg4jtOnMeLxeDQalWV5dXXV3JMFryu83MhF1ZWL6MVB+I9YzgY4sYaWJOm+++7btm3b1772hVtv/X9GRiyHraVYLPaNb3zjK1/5yubNz/z+75+y3NX3vjf7wQ9+cPfu3f/3//7fplwyotEoXlXPMMz27dvxjUBRFCysb993zBXqabKy2SzMXheLRYqikskknjYmBBlcrPC+++7bvHlzU5+1t2NTVRWn2fSaLI/phQA8Ozu7vLxMURSkMZeXl+HvDlVXDdNQrtgqEfSY68PobxJYcVsvCw25UPOPEoQAgKkX4fSdQocNfuONN3K5nKJw8/P7JMliZmRlZa5We+kXv/jF4uJioTA6M3OV5X5qtdLk5GQL9TP0LptYZWYgIFPd9TRZPM9TFIUrQQVZz0/Q01SxQjMNq5MhhFRVxR473tMLARgexPh5DQ8IVyZxz549u7y8PD093f6uupdYLHb99ddTFNV+sWuapiHu2icnsEoiEomYbyGGYcxeV96PfWGwVe/Qbik79uzZUyg8i9DpAwduunjx3UtLFsZ4pdLF/fvFV199dXh4OBy+7vXX32K5q/FxlM8/q6qnr732WifFefB8ajtfxOA65BkGTRb8TAzD6B8L+F2DRKvTjIyM3HDDDZqmPffcc72qlveXYrEoiiLHcU6iAIiE6l2iHMfxPN+sHMw5vRCAoZA4Llo+MjIyMjLiyp5/+ctfHjlypM+Hv5lM5sEHH3QlP8MwTDqdbvg4xk/DevOUbnldtYMsyzZKsaakfzbceeedBw7UBgennn76I/W22bJly5/+6Z823NV73vOe/fuFbPbcr371USeHdmVJnl82QwZNFrzkeX5wcBBvA9Iwg0TLA/bt27dv3z5N0958800SgDvBwsLC+vp6Op3etm1bw43tlyqEw+FYLCZJkv0a15YhmngCgUAgEHygF0bAwNTUFEzX33vvvXv37vW7Ob1AKBTieb5ePZBCoQAaIifp33g8Hg6HcdKvBS8krKpz0UfJ4XHxhKIkSRRFYesr88ba5eqEqqrC4M8mc4A1WaIo4ulJ3zGorjCrq6tLS0v4ZTabhXVWoH3DOTrDxYBXcMHeoFSRZ4otywPVs82qtxPYuFKptDxajUajIE8hxV28pFgsTk5OIoQmJiai0ahNqoyIsFygUqnAdP3b3/52v9vSIzAMA/XdLN+VJAmn/Z3sykZ11Swez/hC8IBI0/DQWAfkpJFwboM2x2FZ2xiXmgHw2gH4pvW8OPDZgJfwpPPs56vXJEvbrHpAirKdHhKurkbwElmW4YrF91c9OTQRYQWUHTt2qKqaz+ePHTuGEJJlOVBSW39pzQkL1/Jr4YjtfLYFDM5K5kGhHkPEhZhEUZSli5YBhmFs/BkYhqYoGm8QCoXMEirwbsOH0DRNLyzSNK1UKkHgoWmqoReEZVMjkQjUHIPdhsNh+I9BiWZ5ivCMOD4b+pfeAz9NvXcNX8EvlR+hZQYGBliWFUURAjD4rkClcL+bZoQEYDve+c53vvOd75ycnISxdblcDk6q0HdacMJqZ0GX94vBDLXt7HVVBkMovCAV6XKe9T5rvxaO43iWZfBEwPDwsNlji2GYiYkJ3FpFUWZnZ/HpkmX5/PnzkiRxHMcwTGs1xtPpNGjisM0QfF+D65DlN8VnEiIZPpOdM8ayx161x3Gc/ivAxqTn3UVYVidMJpObNm3yuWUmiAiLQCAQCAQfICPgxmzcuPEzn/kMQui//uu/jh8/7ndzvOOOO+644YYbQqFQyytqYN0RCqr8xH5Qi8evllNExWJRX+rOkKUEuy4UjBJSMD7WNC2VcsF+0qBV0X9BTdNyuZx5fBmLxfRe3xjQZOGXAfEyg8yBIf/RCaLRaCKRaEpL0W9IkgSjWMukRa1Wy+fz+GU4HE6lUvjlwMAAqHGnpqbK5TIuQhWQywwI4mMxaEQikd27dyOELJ14e5iRkRH44i1D0zSYELnVJHexn9bFWG6jKIqNU7xbToe/+MUvfvzjV0KhfKHw/773ve9tLXsMwuYf/OAH09PPK8rs+vp/3XPPPa3tCplmiPVfU1VVURTNMwX15t4MU+O+rOc249nTGRSOAfnWwQRPPFn+KIqi6PsuhjsOz+zg3j9WHpAA3JWwLNtRV5SAQFEUXLjthJBOVwlsDXNJQYSQpmn2QxDL82Bfr0kURXMpeIqi9FIpJxw9elQQuHR61+uv/3/ve9/7ksmkExMrS37xi18sLAiZzBUnTjz5rne9q9kALElSQwFEvUebJElwNgzBBlam4ZdQ3tHwWe8vGxfdu6D+YMs/GQHz+uuvl8vlbDYL9Y4swWUfRVE0FAAOh8Ot1aHavXt3LBZbWFh4+eWXW/h4Q0gAboJQKBSLxbC6vVfB61PbyRt7UCWwBSzzioqi5PN5d1U25XLZHIBZlh0bG2u2W/OOd7xj9+7dX/jCF8bGxoaHh9tp1W233XbgwAGoidQslUoFFz1s4bNmL1+apoeGhvTXmOWZcVLu0F1cdO9Kp9Ok/qAr/PSnP2VZ9vrrr7cJwIIgQCGAXC4niiLubadSqVQq1Zo58d13340QOnr0KAnABEI/8vWvf52macs51Gb55je/aV6QTSAQ/IIEYEJbsCwLzttgjOV3c6zBNjfYhyufz+PEJq790GkURVlaWjKPrmBBl+VHPvKRj6RST8Ri81NTD7YZgz/1qU/9n/+TUpRXz5z5Y5tdqaq6urpqHnS6Pu2iqura2pr5bMRisUQigc09sAIuUNoZQpDZvHmzfl1fsVi0nzDyERKACW1B0zRIbMwZ10BhEOsaZom8QdM0S92WjT/Ali1brrhiJJksR6N72lSSX3HFFen0hCRdYNk9DRvpjcrBclIZW5YaPEyCMIVB6ApisZj+nqpUKiQAE7qGWCz2tre9rdn6g2CMhfT7CR4AABv3SURBVF8Gs+SqJEmyLAdtLIU1SgBUQDNso6pqoVAwz5KKoihJEk3T1WoVdzLACcv8HSMRwTzNatjYM6PmemD9Gqx/wyIs/P8O/XYOK0iCrsqJJI3QaViWBbVKrVbr0v4ZCcAEI5lM5k/+5E+aXcBqyKN6XDLBIZVKpUNlxdrBoNhKpVLmAKwoyvz8vPmz+XxevxQSYBhmfHzcHK2j0XVzgUdVVXO5XHCE/dVqFToTY2NjLMti+R4uLNihR62Thb8URYGuqlAo5HK5TjSD4JxQKASucAsLC10agP13CSAQCAQCoQ/pnRHwpk2bPvGJTyCExsfH9X/P5/POjWaSyf+/vXuLjeOq/wB+5ua9zK53s2uHxCSpHEKbtAIkUBAVlwdUISGBaCKQehGCx4LgDfGC4C/+UiUKD0iIBlFQ1Leo7UNJQaoEqnihpAl/AmnU2K6d2klar+vY673Ozs7Mzvk//MhhO3vxrr27Mzv7/TzZ6/X6eC/zmznnd36/1N6y1cOB+g/SrM4+VSoVwzAURUmn0z4W4qBaV4GtBNJWpVIxTVNRlGw222kewnXdra2tTlvSXdelbK+26V2eNCvOeZCvHqgN5VBzsmhxve2bhHNeKBTEZTfnfHt7W5Ik8YzNzMx0WZsPZgG4cWQYhiRJV69e/dnPfsYYe+KJJ0ZT2PmFF15YXV3d3t4e0uOH5/2h6/qpU22yS/qq9NYpGXVCUP/BgZRwokJRvq8E91jrKlAcx3EcR1GULgGGUqU6BU6R7dU2vYsKjwQ56DYTBUGHl5PVffXXtu3mFJ7mNDpJkqamprDTdwTo5d7Z2VlYWGAjTPm8c+fOwsLC8HK4whOAB6Jer9OWlQA2rgo4ygYS33resv52oBO1roKz0skYkyQpEol0OvRTAL7X7O8/XUsHOwCqVtZ6e+/trUZJ9BIeTU5WLyh/jdpMIQz7KBqNehqX7for4qzL3+kxBOAPKJfL5XI5Go32lQAM7N5T1+mnNBU8sh23Ho1GY2dnJ2hBRZblAwcOdO8xfPfu3Wi0lEzWcrncoUOH2k5OWJZVLBbp63g83mkFIZ/P37pV3tmpb2xsiJ6+rRuCafo6gNfH9L+PLCerR1QdLJlMUrNk8EVzD4Ye0dLGMAbTF/9HAACdnD9//vr1/5MkN5V6+umnnz7QmsTM2MrKyvPPP09fP/LII1/60pc6PdTVq5ckyY3F/uf73//+pHUWAQggBGDYF8dxtre3Oedtl0nop4wxXdepDwGddQ57s6mn9JVH9/wmwdNwcHi6PBumaX79609+5CMfOXfufz/1qWc+9KH/fGA555ZVp0v6ZLLy0kv6b37zm1/+8pcnTlw6c+Zt8evUb4e+1vW1s2cfP3ny5DPPPJNMJtPptKIorXPynHMK820LOA+QJEnZbLbHDCbKfnIcJxaL7bmP0/BQqYdd/yPYp+7dCT1Es8JYLJZIJCRJond7oLZH4r0C++K6bpclw9ZsIAp7I5gN7t7oNxqN7hqAa7XaoAfVXveZ+eXl5WKx2Ghom5sPum5cliVJkl3XLZdLruseO3Ysm62Y5ot//etfNzc3i8WZW7f+20EyGo2JrP56vbCyskKnFKJTW9u/Sx0kh11ogpbAe0zTozeSbdvBDG80Ey4yxWBIuncn9BDNChOJBJUJClQKCAniu3mwqPS8p3MktDU/P3/06NGZmZleEhMo68pxnF4+DLZt12o1inyDGGmvROmrXu7cPY9s9GRZfvDBB9fW1jY3Nz/5yS+srz9aLOrJZDKZTIoAXK+fmJsrfvWrtZ2dndOnT2ezR65ePSb6HjYvCd93H1teXt7Y2Pj0pz9N5x++ZzAVCoXW0yBFUZqjsie/yXEcOjHytDIcOMdxbNveW9aCqJNFZbOGMDrYnaIodPbZ9iUQr+yuOfCWZQ0vzyD8AZjSTEzT3NjY8HssQfeFL3zhy1/+co937p515UHzmZqmdcn7HYa+Sl9Vq1WRzeQ7mkU/e/Zs87dUH3R+fp5OZcQzeeHCBfriypUrly9flmU5m816MrbOnDnjKU/mbwZTo9FYW1trHQA1YxDfTk9PZzIZ8a1pmqZpSpJ08ODBoV4Nm6a55zeDaZq08jI3N4fsaL9MTU01v3M8xMW0qqpdjkimaQ51HQpnZwAAAD4I/xVwW47jlEolxlgikcAp6gjUarV6vS5qt4p6RgNfleml9BW1BWy9XeRoFItFMTcry3IqlRrGVTtVpKLp4tb6a2JmjP4j9sGEMloTpctiKhRFc57z8/OZTMZxnNXV1dbnVmwGo+vOtk9Ujz0JBk6SpOnpaUVRPBfuhmHQv9b2rRKoZoWtdbIgCOi94Xl7iDxNVVV9XCaY0ADsui59qvFRGQ3HcSzLoqO/dM8wjpi9lL4SdTk6/dS2bTFVSwUxhhGTRNSktj9d7tn2r9MIxS9SyQ5d13Vdtyzr9u3brRFLPA49+X7F2k6mpqZaNzpTXbBOvxK0ZoVt202Cv9ou5IsDhb+lasMfgOnch64zGGNiRZ2edNo8IMsyXQdHIhFVVTtlZlIUCV+ioyRJ9C8P70xQ0zTOuaZptIDXqQbTZKIMNc+NIpFKXAfT1ilPnQ0qTNHXqYw4AWp+EPE1XVt32lc2QJQFLf50v2cDVC67y6c1CKhOlqqqlAoKvmh7Ut79zZbP55eXlxljw04KCf9BkDZZyrJMC/L5fJ7ScekFqNVqhmGI5fpkMtmlHHS9Xg942/m9EYf14R3LotEo5T9T5aBUKjXhZbebUQM+z42KosTjcXFFqGnaAw880Hoc31siledCs3mCTrQf6Pcx+0Vzznv7Xc45HRkTiUSQK4qIOlkIwD7aQ3H7d95559y5c4yxYXcvRRIWAACAD0J7BSwyTTyzc8lkUtd1zjnVbt3Y2CiVSlNTU1T8OcjTWQHRvfRVX4ZXGKvRaBQKBbHToC+yLFNpWcMwfNw7LloK0reapl27dk1V1cOHDx8+fHifj9zcjpB98DMysnrdnPNyudw8BZ1MJn1Jh3Ech6bEBtIHrFk2m9U0beAPC33xrNHQdr7uxfIcx+m95NZ+hDYAsw7VUkSIpRnRra0txpgsy2h/1KPupa/6NaTCWGIhcw+/Sz3mmN8JNaKIGLFtu1AoKIrSthx0v48ckHaEtm2LYQwpKa8XNAM/jDBJDbYH/rDQF885JWVddc85GFnZrPAE4FKpdPnyZcbYiRMn6OpWHNy7fLCpRmjrJpBm5XL5xo0b7F60hmBq3auzNyI5mYoLBiRPmHNuGIYsy8OuEAkAIxOeAPzee+/Rsvl3vvOdbDYrZhi654geOnRo11mvXC5HjxzKDKxwGGBzMdd1S6USvWeCE4Bp3pgxdvToUb/HAgCDgSQsAAAAH4TnCrgTT/UfCIJqtUr7ONPpdEAuMcdFLpejHdUnT55szRnM5XJ0h7YpcpVKhbZVBGEvO21DErNTvVRQ6YLKgQ27zeVgffvb3zZN84033vjDH/7g91jgP1588cXV1VWabRqB8AdgHN8DiMobIed8D2q12s7OTnMJi2amadLe07YcxwlUT7ABvgGGV1ttSCRJOn78OGPs9u3bfo8F/uvWrVs3btwYWaZF+AOwh8jJ6v10W9StHKOT64nVV/9BD/rFsXiVG43G1tZW67L3sOsGAIwpkc/R/ZKMyh2ObLp04gIwHWH7mu9yXRfpV+Oir/6DHqZpGoYx2PEMieM4i4uLfo8CYGz0mKc57P6DHkjCAgAA8MHEXQFDAA2vO2FfYrFYa9mEfSYHAUCgUCUsz41LS0uUCre6ujrKwSAAg/8CkkHT2owWAEKm7eb+UqlE1ZZGvNoYngAsChgNPIlG1CZ0HGcsMnT6FY/HT58+LUnSwYMH/R5L33atKjcuRP9By7KG3QoQRoPaEWqahoKUvqDDdfcz+8XFxVKptLy87EumbXgCcKPRoJOXgU9jKopC3fqq1WooCwHOzs5+97vfHdOJVlmWw3HZSh1/FUUpFAqFQsHv4cAAiHaEVBwXRqnHes6vvPLKW2+9ZVmWL5m2Y3nMBQAAGHfhuQIW/vjHP166dOnYsWOPP/64uFHkoIsehXRyNKaXfb4olUqGYXRvbgHjS9f1ZDLZ2qwwyGiOV5KkdDodjokQ6EJVVWqc0/21pvr/YjKZsq5kWaYQEKjlqhAG4HfffXdzc7N1Kt+zC7uX5QFoZtt2oOoowWCpqhqNRqkHlN9j6VWj0aAB44M8CXoMovwe+pair9hqESghDMB0adtp9p9eDPHy0IlSOLJ4ANrinNdqtU4FosGD2l3juRo74qjuum7vE3UjLn3lEcIAXK/X6/V6rVZr+1OajhAfMLoOHmAzO4CgGa9ZZX9xzkulEqLvOBIdd/oqKDvi0lceWAEFAADwQWgv+9bW1n784x8zxr7xjW98/OMf93s40IbjONT2S9d1yq0AANgnRVGas2tVVW1Ntl1aWrp48SJjbG1tbZRj8whtAK5UKteuXWOMPfLII36PBdrjnNfrdcZYNBr1eywAEBKenJ626VelUumtt95iIy995RHaACzcvHkzFotNT0+fPHmS3UvCcl2Xzok8SdHIxgKYcJFIRFVVx3GwEjwuPGnPYyT8a8B/+ctfnn322Zdffpm+pcJJ6j0Ubmn1nnaP+TpYAPCTJEmpVCqTycTjcb/HAr2io/c41gkOfwAGAAAIoPBPQZumWa/Xl5aWfv7znzPGvvKVrzz44IOe+4j8dc45LRhMSFWdSCSiaRpO9iEcxGofZrNCyXGccrnM7hU09HBdly6Caa+pOIy3XVW0bbvLQ41M+AMwPb9iyf3zn/9827vRK0c1OkY5PH8piqJpGvZAQziIHA5seg4lEWI7HaXFYXzXJmmiGrG/JuXI29qssDkxXeRkGYbhOI6mael02pdxBpDrulTVJAjv104451QmM8iD7I5zbhiGLMuh7Lg1yRzHoVTbWCzWuh9GlmVqVmjb9kSd/e+BpxSlZVl0FRuPxymhx5Na29bS0lKpVFpZWRnJkHcxKQHY06zQM8ksPhXb29v5fD6ZTCIAC47j3L171+9R7KLRaOzs7Iz18YvqVfk9Chi8Wq1Gp7Bzc3OtjYE1TaNup6VSCRfu3amqSs8VHb3L5fLy8jJj7P77708mkz0WNLx48SL1Hxz2aHuBJCwAAAAfTMoVsPCnP/3p8uXLR48ebdus8NChQ5lMxrbtpaUlxtjhw4enp6ePHDnywx/+kDH20ksvXb161a+RAwBMslOnTj322GOMsWPHjnW5GyVheW5cXFx85ZVXGGMLCwuVSiUge5YmLgBTs8LWqR56wWKxWCQSqVQqxWKRMZbNZhlj8Xj8oYceYoz9+c9/Hvl4AQCAMcZSqRQdirtrm34l8nDL5XJwMkUmLgDTU5/P5//xj38wxo4fP05RltAy/tTUVCaTYYzZtr29va1p2vT0tF8Dnii0GD+mRW3GnW3b1Wq1uZM5QEBQPWeRuEMdqyqVSi+FCynranl5mdZ9A3VsmbgATM0Kb968+etf/5ox9tRTTz388MPipxQAdF0/ceIEY2xlZeXWrVvJZLKX0y7YJ7EQQHVt/B7OxDEMwzAMv0cB0EYsFlNVVRSNf/fdd0ulUo+Vg0XWlb9ln9tCEhYAAIAPJu4KmDQajUqlwhi7cOHCq6++qigKtcPz1Mmam5ubnZ3N5XJURev27duJRKLRaNCmAvBR9zI30EyW5dnZWc55tVqltz3AWBBXvU8++eR9992XSqXodrr2TSaThw4dYoxRLb9Ox4RarRacrCuPCQ3AnHNqdULNIFVVTSaTjLHPfe5zzXej1/X999+n1XvGmKZpOOIHRGtNA2hLkiQ6ilHzR4BxIcuypmmMsfn5+VOnTonbKQBrmkbH7eYbWx8kyI2tJjQAe4g6WSsrK5qmJRKJ5hc7kUicPn2aMfbOO++gVAIMnKZpU1NTruuaphmoDJHgo6eOYSJkMliWRVM4kUgknU7rut58Fu55D2xtbdFu0kKhMOJx9g4BmLGmOlmvvvrqa6+9dv/99//oRz8SP52bm/ve977HGHvuuedef/1130YJIaXrejqddhwnl8sh+6wvsViMNiw4joNzl9Arl8s3b95kjH30ox9NJBLNedGtFhcXaekwyDCJBwAA4ANcAX+AaZqWZS0uLv7kJz9hjEWj0ebiou+9955/Q4OJJstyNpsVS2ITTpKkbDarKIr4eNKVkOiWA+MuFospivLQQw89+uijbLfSVx4vvPDCrVu3tra2hja6gUEA/gDagVosFv/9738zxnRdby2eDjB6lEg1IW2qdyVJErWybr6FYSU4RFRVVVU1m83uoQbD2trajRs3AtJuoTsE4G7aVizDKfbA2bZdq9VkWY5EIuxePTLW21Nt27bjOGO9dEolqFzXxSpmjzjntVqt9QirKEqQz1FqtZpt2yJxDLp44IEHMpnM8ePH6dtSqeQ4TqVSoc8IHSI851v5fJ5WiPP5vGVZY3FMQADuhspm+T2K8KMaTKqqHjx4kD5asiz3WBPRMIxx39tarVYDWKMnyDjn+Xy+9fZEIiG2igbQzs4OYyyZTDaXv4W2zpw587GPfUx8S6WvxLdt06+Wl5fPnTvHAlbtuTskYQEAAPgAV8AwZuj6GKt9AJNmenr6wx/+MLtXIkl4/vnnV1dXi8UiTYaNxeQzQQCGMSNWiAFgomia1naJYWVl5c033xz9ePYPARg6siyLUpz8Hgh0dOfOnTt37nT66ZEjR/ravwGMsXq97rpuYIsXToilpSXTNLPZLOVhTU9Pq6qaSCSa77O1tfX2228zxqh9+zhCAIaOyuVyuVz2exTQzd/+9rcLFy50+uljjz32xBNPjHI8445zXiwWEX199/LLL6uq+vDDDz/11FOMsSNHjrTeZ2Fh4Re/+MXIhzZImMoDAADwAa6AAQItkUjouo6Vb5gohmHIsnzlypVcLtfpPrSta6whAAMEmqqq1KwaYHJQUcKtra2xqCi5ZwjAAJNC07R4PM45R9/DZjS1gI1tMHoIwACTQtd1Xdcbjcb6+voY7ZUcNkVREH3BF1hVAgAA8AECMAAAgA8QgAEAAHyANWAICuoxJ0mSpmnUaJ2yYzjnE5gxRA2A6dlo/alt2zdu3LBte319ffRjGypN0+hfrtVqE/i6w0RBAIagaDQatLEvlUolEglJkigM04YEv0c3arIsz8zMdOpuW61Wz58/XygUarXaiAc2bPF4/MCBA67r5nI5VKSCcMMUNAAAgA9wBQwQWn//+9/X19fj8fg3v/nNZDJJN8qyPDs7yzmvVqvUvi1QqtWqZVmcc+oCEo/HxcgZY4ZhtNYnlyQpnU7LskxTJgDjAu9XgNDa3Nwsl8upVKp5LpdWlxlj9Xrdv6F15DhOcwMuTyGwTpPSU1NTiL4wdvCWBQgWykJCdQjiOI5hGIyxaDTapRq2aZqKoqiq2jZnDSCYEIABgkXX9XQ67fcogsIwDKrLf/jw4U4BmHoIMsYSiUTbhu0AwYQkLAAAAB/gChhgQiUSiUgk4rpuPp8P+EYv13W3trZkWW5eHgYYdwjAABNKVVVVVRuNxlgsNgczZQxgPxCAAQKhe+krD865bdu2bbuuO4KxAcAwIAADBEL30lcegd3FCwC9QxIWAACAD3AFDEEnyzItUiIBhzH2+uuvX7p0qV6vV6vVgTwgXXnjktovn/jEJ37wgx8wxp599tnwtdaA7hCAIegkSZIkCY1xyObm5vXr113XHdTpSMALY4VeJpPJZDKc8+aCXzAhEIABfDa80leu61Ku1mAfFgAGAgEYwGfDK31lWZZlWZqmYf4AIICQhAUAAOADXAHDeJAkidrdjEXViOGxLKtSqXDOsQMYYNwhAMPY6NIMZ3I0Gg2s6QKEAwIwgD/6Kn1lWdbCwoJt27lcrt8/ZNv2m2++mUwm5+bm5ubmOt1N07R4PM45N01zAteMHcehMxtMLcDIIAAD+ENRlN5LX1Wr1fPnzxcKhVqt1u8fMgzj/Pnzsix/7WtfO3v2bKe76bqu63qj0cjlchO45do0TeppCDAymNMDAADwAa6AAcaAqFQV8L6BANA7BGCAMSDaH/k9EAAYGATgiUYptUE7rNu2XavVZFmORCJ+j2Uo+ip9tb6+nsvlyuXyaF4mSZJisVgw3xgAIYMAPNHq9Xq9Xt9DXs9QGYZhGIaqqgcPHgzlrt++Sl+98cYbFy9edF3XMIyhjorIspzNZhljxWJxZ2dnBH8RYGIhCQsAAMAHuAIGGBFFUTKZjCzLvWz8FfZf+sp13Wq1KkmSZVl7ewQAGAYEYIARocobPW78Faij0T7/NO3rRYkJgEBBAIbA0TRNVdUwFZ7cQ8NBy7IWFxdt2x5gk/b19fV//vOfqqqeOnVqamqq+51VVQ13YSzqM+33KGCiIQBD4MTj8UQi4fcoBimRSKRSqb5+pVKp/P73vy8WiwNMkbty5cr169enp6d/+tOfZjKZ7ncOfWEsWZb7nY0AGKzwXGQAAACMEVwBAwyMSLPy3N5X1hUJQekrznm5XHZdNxqNRqPR4f0hSZJSqZSiKNSwEmBc4P0KMDB7S7PqRPTnGVNUvavRaIwgLkYiEURfGDt4ywIMwB7SrDqh0lelUmng0ZcSqvta0O1UGIv+3x5TtBqNRr1eZ4xNTU0h7wlAQAAGGIA9pFl1MrzSV5ZlWZalqmrvWc2dCmPF4/EDBw64rru+vr5rRKeCa5IkZTIZ5D0BCEjCAgAA8AGugAGCZf+lr7ozDOO3v/1tJBL5zGc+89nPfrbH39J1vXnrMC24SpI0MzMj8sWGMdpecM4LhQItwOu67tcwAPqFAAwQLAMpfdWFbdsLCwuyLM/Pz/f+W6qqtmY5UcxjjPle5JLWmJGHBeMF71eAvaMIJEkS57x5yZZylPp6KCp95ThOLpcb9DDDLxKJSJK0h+1eAD5CAAbYO0VRZmdnZVne2dnZ3NwUtx84cGAPpa9+97vflUqloHWHDD5JktLpNC5/YewgCQsAAMAHOGcE6MZ13XK5LPbtyLKcTCbFZtZGo3H37l3G2P5XbUdW+or+kCRJtG46EJSi5bpuPp8X46fnqvlugWqw4bouvawD2b29Z9euXXvttdc45++//75fYwC/IAADdMM5tyxLBGBFUTjn4njNOR/gjPHISl8NvDshpWi5ruuJZLv2XPIR51wEYB+Hkc/nr127xhjD0sMEQgAGaM9xnEajMYIeuuvr6xsbG6VSacRNh3K53NWrV1VVPXnyZL+R0lMYi4hryrGAdoTgOwRggPZM0xx4Laq2ROmrarU6gj8n9NWd0MMwjObCWOMI7QjBdwFakgEAAJgcuAIG6Inoqdclk0i0I+xrS0y9XqfSV2M0fztinPPm9DRJkpLJZKBSugD2AAEYoCeqqu66ULq3doTDLn0VDpZlNQdgnKxACCAAA6vVav/6178kSTp27NjMzIzfw5kUlmUtLS3Ztu1X6SsK/LZtI5gB+AIBGNjm5uavfvUrxti3vvWtL37xi34PZ1JUKpXnnnvOx9JX1J2QNlb5MgCACYdFFAAAAB/8P7zMzxHpo8AKAAAAAElFTkSuQmCC;" vertex="1" parent="1">
          <mxGeometry x="40" y="1680" width="300" height="300" as="geometry" />
        </mxCell>
        <mxCell id="MSijpHfO0dpYwcQFmJdh-457" value="" style="endArrow=none;html=1;rounded=0;strokeColor=#FFFF00;entryX=0;entryY=0;entryDx=0;entryDy=0;" edge="1" parent="1" target="MSijpHfO0dpYwcQFmJdh-456">
          <mxGeometry width="50" height="50" relative="1" as="geometry">
            <mxPoint x="186" y="1912" as="sourcePoint" />
            <mxPoint x="190" y="2070" as="targetPoint" />
          </mxGeometry>
        </mxCell>
        <mxCell id="MSijpHfO0dpYwcQFmJdh-459" value="" style="endArrow=none;html=1;rounded=0;strokeColor=#FFFF00;entryX=0;entryY=1;entryDx=0;entryDy=0;" edge="1" parent="1" target="MSijpHfO0dpYwcQFmJdh-456">
          <mxGeometry width="50" height="50" relative="1" as="geometry">
            <mxPoint x="187" y="1924" as="sourcePoint" />
            <mxPoint x="370" y="1690" as="targetPoint" />
          </mxGeometry>
        </mxCell>
      </root>
    </mxGraphModel>
  </diagram>
</mxfile>
